<svg id="wheels_antenna" data-name="wheels/antenna" xmlns="http://www.w3.org/2000/svg" xmlns:xlink="http://www.w3.org/1999/xlink" viewBox="0 0 148.76 144.95"><defs><style>.cls-1{fill:none;}.cls-2{isolation:isolate;}.cls-3{fill:#0f0f0d;}.cls-4{clip-path:url(#clip-path);}.cls-5{fill:#090908;}.cls-6{fill:#0a0a08;}.cls-7{fill:#212321;}.cls-8{clip-path:url(#clip-path-2);}.cls-9{fill:#131513;}.cls-10{fill:#050201;}.cls-11{clip-path:url(#clip-path-3);}.cls-12{fill:#4b4b4b;}.cls-13{fill:gray;}.cls-14{fill:#131413;}.cls-15{fill:#141614;}.cls-16{fill:#141514;}.cls-17{fill:#252825;}</style><clipPath id="clip-path" transform="translate(-443.12 -732.81)"><path class="cls-1" d="M519.68,877.76h-4.36a72.47,72.47,0,0,1,0-144.95h4.36a72.47,72.47,0,0,0,0,144.95Z"/></clipPath><clipPath id="clip-path-2" transform="translate(-443.12 -732.81)"><path class="cls-1" d="M543.88,855.71l-1.74.87a57.17,57.17,0,0,1-51.07-102.31l1.74-.87a57.17,57.17,0,0,0,51.07,102.31Z"/></clipPath><clipPath id="clip-path-3" transform="translate(-443.12 -732.81)"><path class="cls-1" d="M545.81,829.83l-1.74,1.74a33.45,33.45,0,0,1-47.33-47.3l1.74-1.74a33.45,33.45,0,0,0,47.33,47.3Z"/></clipPath></defs><title>enkei-wheels</title><g class="cls-2"><path class="cls-3" d="M519.68,732.81a72.47,72.47,0,1,1-72.2,72.48A72.34,72.34,0,0,1,519.68,732.81Z" transform="translate(-443.12 -732.81)"/><g class="cls-2"><g class="cls-4"><g class="cls-2"><path class="cls-5" d="M519.68,877.76h-4.36a72.53,72.53,0,0,1-25.48-140.3h4.36a72.53,72.53,0,0,0,25.48,140.3" transform="translate(-443.12 -732.81)"/><path class="cls-5" d="M494.2,737.45h-4.36a71.49,71.49,0,0,1,14.82-3.86H509a71.49,71.49,0,0,0-14.82,3.86" transform="translate(-443.12 -732.81)"/><path class="cls-6" d="M509,733.6h-4.36a72.53,72.53,0,0,1,10.66-.78h4.36a72.53,72.53,0,0,0-10.66.78" transform="translate(-443.12 -732.81)"/></g></g></g></g><g class="cls-2"><path class="cls-7" d="M518.31,747.41a57.15,57.15,0,1,1-57.09,57.15A57.17,57.17,0,0,1,518.31,747.41Z" transform="translate(-443.12 -732.81)"/><g class="cls-2"><g class="cls-8"><g class="cls-2"><path class="cls-9" d="M543.88,855.71l-1.74.87a57.17,57.17,0,0,1-51.07-102.31l1.74-.87a57.17,57.17,0,0,0,51.07,102.31" transform="translate(-443.12 -732.81)"/></g></g></g></g><circle class="cls-10" cx="74.33" cy="72.43" r="50.75"/><g class="cls-2"><g class="cls-2"><g class="cls-11"><g class="cls-2"><path class="cls-12" d="M545.81,829.83l-1.74,1.74a33.45,33.45,0,0,1-47.33-47.3l1.74-1.74a33.45,33.45,0,0,0,47.33,47.3" transform="translate(-443.12 -732.81)"/></g></g></g><path class="cls-13" d="M522.11,772.75a33.43,33.43,0,1,1-33.39,33.43A33.48,33.48,0,0,1,522.11,772.75Z" transform="translate(-443.12 -732.81)"/></g><g class="cls-2"><polygon class="cls-7" points="68.97 22.13 78.63 59.42 75.75 59.95 63.75 22.93 68.97 22.13"/><polygon class="cls-14" points="75.75 59.95 73.14 59.95 61.13 22.93 63.75 22.93 75.75 59.95"/><polygon class="cls-15" points="63.75 22.93 61.13 22.93 66.35 22.13 68.97 22.13 63.75 22.93"/></g><g class="cls-2"><polygon class="cls-7" points="83.29 21.81 88.39 23.19 82.14 61.2 79.3 60.52 83.29 21.81"/><polygon class="cls-14" points="82.14 61.2 79.53 61.2 76.69 60.52 79.3 60.52 82.14 61.2"/><polygon class="cls-14" points="79.3 60.52 76.69 60.52 80.68 21.81 83.29 21.81 79.3 60.52"/></g><g class="cls-2"><polygon class="cls-7" points="104.11 30.18 108.01 33.75 85.08 64.67 82.86 62.77 104.11 30.18"/><polygon class="cls-14" points="85.08 64.67 82.46 64.67 80.24 62.77 82.86 62.77 85.08 64.67"/><polygon class="cls-14" points="82.86 62.77 80.24 62.77 101.49 30.18 104.11 30.18 82.86 62.77"/></g><g class="cls-2"><polygon class="cls-7" points="117.84 44.02 120.5 48.59 89.36 71.21 87.82 68.73 117.84 44.02"/><polygon class="cls-14" points="89.36 71.21 86.75 71.21 85.2 68.73 87.82 68.73 89.36 71.21"/><polygon class="cls-14" points="87.82 68.73 85.2 68.73 115.23 44.02 117.84 44.02 87.82 68.73"/></g><g class="cls-2"><polygon class="cls-15" points="87.54 69.37 84.92 69.37 123.74 67.3 126.36 67.3 87.54 69.37"/><polygon class="cls-7" points="87.54 69.37 126.36 67.3 125.77 72.56 87.31 72.29 87.54 69.37"/><polygon class="cls-14" points="125.77 72.56 123.16 72.56 84.69 72.29 87.31 72.29 125.77 72.56"/><polygon class="cls-14" points="87.31 72.29 84.69 72.29 84.92 69.37 87.54 69.37 87.31 72.29"/></g><g class="cls-2"><polygon class="cls-7" points="87.51 75.24 124.41 87.53 121.94 92.2 86.25 77.88 87.51 75.24"/><polygon class="cls-14" points="121.94 92.2 119.33 92.2 83.63 77.88 86.25 77.88 121.94 92.2"/><polygon class="cls-14" points="86.25 77.88 83.63 77.88 84.89 75.24 87.51 75.24 86.25 77.88"/></g><g class="cls-2"><polygon class="cls-7" points="85.17 79.65 113.5 106.31 109.31 109.52 82.92 81.5 85.17 79.65"/><polygon class="cls-14" points="109.31 109.52 106.69 109.52 80.3 81.5 82.92 81.5 109.31 109.52"/><polygon class="cls-14" points="82.92 81.5 80.3 81.5 82.56 79.65 85.17 79.65 82.92 81.5"/></g><g class="cls-2"><polygon class="cls-7" points="81.42 83.23 97.45 118.69 92.34 120.07 78.63 84.08 81.42 83.23"/><polygon class="cls-14" points="92.34 120.07 89.72 120.07 76.01 84.08 78.63 84.08 92.34 120.07"/><polygon class="cls-9" points="78.63 84.08 76.01 84.08 78.81 83.23 81.42 83.23 78.63 84.08"/></g><g class="cls-2"><polygon class="cls-7" points="74.08 83.66 76.99 83.95 78.24 122.86 73.01 122.17 74.08 83.66"/><polygon class="cls-14" points="78.24 122.86 75.62 122.86 70.39 122.17 73.01 122.17 78.24 122.86"/><polygon class="cls-14" points="73.01 122.17 70.39 122.17 71.46 83.66 74.08 83.66 73.01 122.17"/></g><g class="cls-2"><polygon class="cls-7" points="73.64 83.56 75.92 85.4 55.64 118.61 51.64 115.16 73.64 83.56"/><polygon class="cls-14" points="55.64 118.61 53.02 118.61 49.02 115.16 51.64 115.16 55.64 118.61"/><polygon class="cls-14" points="51.64 115.16 49.02 115.16 71.02 83.56 73.64 83.56 51.64 115.16"/></g><g class="cls-2"><polygon class="cls-7" points="66.18 79.57 67.86 81.96 39.29 108.36 36.39 103.94 66.18 79.57"/><polygon class="cls-14" points="39.29 108.36 36.67 108.36 33.77 103.94 36.39 103.94 39.29 108.36"/><polygon class="cls-14" points="36.39 103.94 33.77 103.94 63.57 79.57 66.18 79.57 36.39 103.94"/></g><g class="cls-2"><polygon class="cls-7" points="32.57 46.32 69.02 65.91 67.54 68.44 29.73 50.8 32.57 46.32"/><polygon class="cls-14" points="67.54 68.44 64.92 68.44 27.12 50.8 29.73 50.8 67.54 68.44"/><polygon class="cls-14" points="29.73 50.8 27.12 50.8 29.95 46.32 32.57 46.32 29.73 50.8"/></g><g class="cls-2"><polygon class="cls-7" points="26.13 63.89 67.03 70.05 66.49 72.94 24.97 69.07 26.13 63.89"/><polygon class="cls-14" points="66.49 72.94 63.87 72.94 22.35 69.07 24.97 69.07 66.49 72.94"/><polygon class="cls-14" points="24.97 69.07 22.35 69.07 23.51 63.89 26.13 63.89 24.97 69.07"/></g><g class="cls-2"><polygon class="cls-7" points="67.12 73.89 67.73 76.76 27.96 89.3 27.03 84.08 67.12 73.89"/><polygon class="cls-14" points="27.96 89.3 25.34 89.3 24.41 84.08 27.03 84.08 27.96 89.3"/><polygon class="cls-16" points="27.03 84.08 24.41 84.08 64.5 73.89 67.12 73.89 27.03 84.08"/></g><g class="cls-2"><polygon class="cls-7" points="50.39 29.53 70.63 61.5 68.03 62.87 45.6 31.86 50.39 29.53"/><polygon class="cls-14" points="68.03 62.87 65.41 62.87 42.98 31.86 45.6 31.86 68.03 62.87"/><polygon class="cls-14" points="45.6 31.86 42.98 31.86 47.77 29.53 50.39 29.53 45.6 31.86"/></g><circle class="cls-17" cx="521.4" cy="805.97" r="14.91" transform="translate(-745.2 566.43) rotate(-88.02)"/></svg>