<?xml version="1.0" encoding="utf-8"?>
<!-- Generator: Adobe Illustrator 21.0.0, SVG Export Plug-In . SVG Version: 6.00 Build 0)  -->
<svg version="1.1" id="wheels_antenna" xmlns="http://www.w3.org/2000/svg" xmlns:xlink="http://www.w3.org/1999/xlink" x="0px"
	 y="0px" viewBox="0 0 741.8 190.9" style="enable-background:new 0 0 741.8 190.9;" xml:space="preserve">
<style type="text/css">
	.st0{fill:#0F0F0D;}
	.st1{clip-path:url(#SVGID_2_);}
	.st2{fill:#090908;}
	.st3{fill:#0A0A08;}
	.st4{clip-path:url(#SVGID_4_);}
	.st5{fill:#212321;}
	.st6{clip-path:url(#SVGID_6_);}
	.st7{fill:#131513;}
	.st8{fill:#050201;}
	.st9{clip-path:url(#SVGID_8_);}
	.st10{fill:#4B4B4B;}
	.st11{fill:#808080;}
	.st12{fill:#131413;}
	.st13{fill:#141614;}
	.st14{fill:#141514;}
	.st15{fill:#252825;}
	.st16{clip-path:url(#SVGID_10_);}
	.st17{clip-path:url(#SVGID_12_);}
</style>
<title>enkei-wheels</title>
<g>
	<path class="st0" d="M108.3,40c37-0.1,67.1,29.7,67.2,66.7s-29.7,67.1-66.7,67.2s-67.1-29.7-67.2-66.7c0-0.1,0-0.2,0-0.3
		C41.5,70.1,71.4,40.1,108.3,40L108.3,40z"/>
	<g>
		<g>
			<g>
				<g>
					<defs>
						<path id="SVGID_1_" d="M108.3,174h-4.1c-37,0-67-29.9-67-67c0-37,30-67,67-67h4.1c-37,0-67,29.9-67,67
							C41.4,144,71.3,174,108.3,174z"/>
					</defs>
					<clipPath id="SVGID_2_">
						<use xlink:href="#SVGID_1_"  style="overflow:visible;"/>
					</clipPath>
					<g class="st1">
						<g>
							<path class="st2" d="M108.3,174h-4.1c-37-0.2-66.9-30.4-66.7-67.3C37.6,79,54.8,54.3,80.6,44.4h4.1
								c-34.5,13.1-51.8,51.8-38.6,86.5C56,156.7,80.6,173.8,108.3,174"/>
							<path class="st2" d="M84.8,44.3h-4.1c4.4-1.7,9.1-2.9,13.7-3.6h4.1C93.8,41.4,89.2,42.6,84.8,44.3"/>
							<path class="st3" d="M98.5,40.8h-4.1c3.3-0.5,6.5-0.8,9.9-0.8h4.1C105,40,101.7,40.3,98.5,40.8"/>
						</g>
					</g>
				</g>
			</g>
		</g>
	</g>
</g>
<g>
	<path class="st0" d="M629.3,42c37-0.1,67.1,29.7,67.2,66.7c0.1,37-29.7,67.1-66.7,67.2s-67.1-29.7-67.2-66.7c0-0.1,0-0.2,0-0.3
		C562.5,72.1,592.4,42.1,629.3,42L629.3,42z"/>
	<g>
		<g>
			<g>
				<g>
					<defs>
						<path id="SVGID_3_" d="M629.3,176h-4.1c-37,0-67-29.9-67-67c0-37,30-67,67-67h4.1c-37,0-67,29.9-67,67
							C562.4,146,592.3,176,629.3,176z"/>
					</defs>
					<clipPath id="SVGID_4_">
						<use xlink:href="#SVGID_3_"  style="overflow:visible;"/>
					</clipPath>
					<g class="st4">
						<g>
							<path class="st2" d="M629.3,176h-4.1c-37-0.2-66.9-30.4-66.7-67.3c0.1-27.7,17.3-52.4,43.1-62.3h4.1
								c-34.5,13.1-51.9,51.8-38.7,86.5C577,158.7,601.6,175.8,629.3,176"/>
							<path class="st2" d="M605.8,46.3h-4.1c4.4-1.7,9.1-2.9,13.7-3.6h4.1C614.8,43.4,610.2,44.6,605.8,46.3"/>
							<path class="st3" d="M619.5,42.8h-4.1c3.3-0.5,6.6-0.7,9.9-0.7h4.1C626,42,622.7,42.3,619.5,42.8"/>
						</g>
					</g>
				</g>
			</g>
		</g>
	</g>
</g>
<g>
	<path class="st5" d="M107.3,51.2c30.6,0,55.3,24.7,55.3,55.2s-24.7,55.3-55.2,55.3s-55.3-24.6-55.3-55.2c0,0,0,0,0-0.1
		C52.1,75.9,76.9,51.2,107.3,51.2z"/>
	<g>
		<g>
			<g>
				<g>
					<defs>
						<path id="SVGID_5_" d="M132.1,155.9l-1.6,0.9c-27.4,13.6-60.5,2.5-74.2-24.8S53.7,71.5,81,57.8l1.6-0.9
							c-27.3,13.7-38.3,46.9-24.7,74.3S104.7,169.6,132.1,155.9z"/>
					</defs>
					<clipPath id="SVGID_6_">
						<use xlink:href="#SVGID_5_"  style="overflow:visible;"/>
					</clipPath>
					<g class="st6">
						<g>
							<path class="st7" d="M132.1,155.9l-1.6,0.9c-27.4,13.6-60.5,2.5-74.2-24.8S53.7,71.5,81,57.8l1.6-0.9
								c-27.3,13.7-38.3,46.9-24.7,74.3S104.7,169.6,132.1,155.9"/>
						</g>
					</g>
				</g>
			</g>
		</g>
	</g>
</g>
<circle class="st8" cx="106.5" cy="107.1" r="49.1"/>
<g>
	<g>
		<g>
			<g>
				<g>
					<defs>
						<path id="SVGID_7_" d="M133.9,130.9l-1.6,1.6c-12.7,12.7-33.1,12.7-45.8,0s-12.7-33.1,0-45.8l1.6-1.6
							c-12.7,12.7-12.7,33.2,0,45.8C100.8,143.5,121.3,143.5,133.9,130.9L133.9,130.9L133.9,130.9z"/>
					</defs>
					<clipPath id="SVGID_8_">
						<use xlink:href="#SVGID_7_"  style="overflow:visible;"/>
					</clipPath>
					<g class="st9">
						<g>
							<path class="st10" d="M133.9,130.9l-1.6,1.6c-12.7,12.7-33.1,12.7-45.8,0s-12.7-33.1,0-45.8l1.6-1.6
								c-12.7,12.7-12.7,33.2,0,45.8C100.8,143.5,121.3,143.5,133.9,130.9L133.9,130.9"/>
						</g>
					</g>
				</g>
			</g>
		</g>
	</g>
	<path class="st11" d="M111,75.6c17.9,0,32.3,14.4,32.4,32.3c0,17.9-14.4,32.3-32.3,32.4c-17.9,0-32.3-14.4-32.4-32.3l0,0
		C78.7,90.2,93.2,75.7,111,75.6z"/>
</g>
<g>
	<polygon class="st5" points="101.3,58.4 110.6,94.5 107.9,95.1 96.3,59.2 	"/>
	<polygon class="st12" points="107.9,95.1 105.3,95.1 93.7,59.2 96.3,59.2 	"/>
	<polygon class="st13" points="96.3,59.2 93.7,59.2 98.7,58.4 101.3,58.4 	"/>
</g>
<g>
	<polygon class="st5" points="115.2,58.1 120.1,59.5 114,96.2 111.3,95.6 	"/>
	<polygon class="st12" points="114,96.2 111.5,96.2 108.8,95.6 111.3,95.6 	"/>
	<polygon class="st12" points="111.3,95.6 108.8,95.6 112.6,58.1 115.2,58.1 	"/>
</g>
<g>
	<polygon class="st5" points="135.3,66.3 139.1,69.7 116.9,99.6 114.8,97.8 	"/>
	<polygon class="st12" points="116.9,99.6 114.4,99.6 112.2,97.8 114.8,97.8 	"/>
	<polygon class="st12" points="114.8,97.8 112.2,97.8 132.8,66.3 135.3,66.3 	"/>
</g>
<g>
	<polygon class="st5" points="148.5,79.6 151.1,84.1 121.1,105.9 119.5,103.5 	"/>
	<polygon class="st12" points="121.1,105.9 118.5,105.9 117,103.5 119.5,103.5 	"/>
	<polygon class="st12" points="119.5,103.5 117,103.5 146,79.6 148.5,79.6 	"/>
</g>
<g>
	<polygon class="st13" points="119.2,104.2 116.7,104.2 154.2,102.1 156.8,102.1 	"/>
	<polygon class="st5" points="119.2,104.2 156.8,102.1 156.3,107.3 119,107 	"/>
	<polygon class="st12" points="156.3,107.3 153.8,107.3 116.5,107 119,107 	"/>
	<polygon class="st12" points="119,107 116.5,107 116.7,104.2 119.2,104.2 	"/>
</g>
<g>
	<polygon class="st5" points="119.2,109.8 154.9,121.7 152.5,126.2 118,112.4 	"/>
	<polygon class="st12" points="152.5,126.2 150,126.2 115.5,112.4 118,112.4 	"/>
	<polygon class="st12" points="118,112.4 115.5,112.4 116.7,109.8 119.2,109.8 	"/>
</g>
<g>
	<polygon class="st5" points="117,114.1 144.4,139.9 140.3,143 114.8,115.9 	"/>
	<polygon class="st12" points="140.3,143 137.8,143 112.3,115.9 114.8,115.9 	"/>
	<polygon class="st12" points="114.8,115.9 112.3,115.9 114.5,114.1 117,114.1 	"/>
</g>
<g>
	<polygon class="st5" points="113.3,117.5 128.8,151.9 123.9,153.2 110.6,118.4 	"/>
	<polygon class="st12" points="123.9,153.2 121.4,153.2 108.1,118.4 110.6,118.4 	"/>
	<polygon class="st7" points="110.6,118.4 108.1,118.4 110.8,117.5 113.3,117.5 	"/>
</g>
<g>
	<polygon class="st5" points="106.3,118 109.1,118.2 110.2,155.9 105.2,155.2 	"/>
	<polygon class="st12" points="110.2,155.9 107.7,155.9 102.7,155.2 105.2,155.2 	"/>
	<polygon class="st12" points="105.2,155.2 102.7,155.2 103.7,118 106.3,118 	"/>
</g>
<g>
	<polygon class="st5" points="105.8,117.9 108,119.7 88.4,151.8 84.5,148.5 	"/>
	<polygon class="st12" points="88.4,151.8 85.9,151.8 82,148.5 84.5,148.5 	"/>
	<polygon class="st12" points="84.5,148.5 82,148.5 103.3,117.9 105.8,117.9 	"/>
</g>
<g>
	<polygon class="st5" points="98.6,114 100.3,116.4 72.6,141.9 69.8,137.5 	"/>
	<polygon class="st12" points="72.6,141.9 70.1,141.9 67.3,137.5 69.8,137.5 	"/>
	<polygon class="st12" points="69.8,137.5 67.3,137.5 96.1,114 98.6,114 	"/>
</g>
<g>
	<polygon class="st5" points="66.1,81.8 101.3,100.8 99.9,103.2 63.3,86.2 	"/>
	<polygon class="st12" points="99.9,103.2 97.4,103.2 60.8,86.2 63.3,86.2 	"/>
	<polygon class="st12" points="63.3,86.2 60.8,86.2 63.6,81.8 66.1,81.8 	"/>
</g>
<g>
	<polygon class="st5" points="59.8,98.9 99.4,104.9 98.9,107.6 58.8,103.9 	"/>
	<polygon class="st12" points="98.9,107.6 96.4,107.6 56.3,103.9 58.8,103.9 	"/>
	<polygon class="st12" points="58.8,103.9 56.3,103.9 57.3,98.9 59.8,98.9 	"/>
</g>
<g>
	<polygon class="st5" points="99.5,108.5 100.1,111.3 61.7,123.4 60.7,118.4 	"/>
	<polygon class="st12" points="61.7,123.4 59.1,123.4 58.2,118.4 60.7,118.4 	"/>
	<polygon class="st14" points="60.7,118.4 58.2,118.4 97,108.5 99.5,108.5 	"/>
</g>
<g>
	<polygon class="st5" points="83.3,65.6 102.9,96.5 100.4,97.9 78.7,67.9 	"/>
	<polygon class="st12" points="100.4,97.9 97.8,97.9 76.2,67.9 78.7,67.9 	"/>
	<polygon class="st12" points="78.7,67.9 76.2,67.9 80.8,65.6 83.3,65.6 	"/>
</g>
<ellipse transform="matrix(3.455090e-02 -0.9994 0.9994 3.455090e-02 -1.3036 214.3828)" class="st15" cx="110.3" cy="107.9" rx="14.4" ry="14.4"/>
<g>
	<path class="st5" d="M629.7,52.8c30.6,0,55.3,24.7,55.3,55.2s-24.7,55.3-55.2,55.3s-55.3-24.7-55.3-55.2c0,0,0,0,0-0.1
		C574.4,77.5,599.2,52.8,629.7,52.8z"/>
	<g>
		<g>
			<g>
				<g>
					<defs>
						<path id="SVGID_9_" d="M654.4,157.5l-1.6,0.9c-27.4,13.6-60.5,2.5-74.2-24.8c-13.6-27.3-2.5-60.5,24.8-74.2l1.6-0.9
							c-27.4,13.6-38.4,46.8-24.8,74.2C593.9,160.1,627.1,171.2,654.4,157.5z"/>
					</defs>
					<clipPath id="SVGID_10_">
						<use xlink:href="#SVGID_9_"  style="overflow:visible;"/>
					</clipPath>
					<g class="st16">
						<g>
							<path class="st7" d="M654.4,157.5l-1.6,0.9c-27.4,13.6-60.5,2.5-74.2-24.8c-13.6-27.3-2.5-60.5,24.8-74.2l1.6-0.9
								c-27.4,13.6-38.4,46.8-24.8,74.2C593.9,160.1,627.1,171.2,654.4,157.5"/>
						</g>
					</g>
				</g>
			</g>
		</g>
	</g>
</g>
<circle class="st8" cx="628.8" cy="108.7" r="49.1"/>
<g>
	<g>
		<g>
			<g>
				<g>
					<defs>
						<path id="SVGID_11_" d="M656.3,132.5l-1.6,1.6c-12.7,12.7-33.1,12.7-45.8,0c-12.7-12.7-12.7-33.1,0-45.8l1.6-1.6
							c-12.7,12.7-12.7,33.2,0,45.8S643.6,145.1,656.3,132.5L656.3,132.5L656.3,132.5z"/>
					</defs>
					<clipPath id="SVGID_12_">
						<use xlink:href="#SVGID_11_"  style="overflow:visible;"/>
					</clipPath>
					<g class="st17">
						<g>
							<path class="st10" d="M656.3,132.5l-1.6,1.6c-12.7,12.7-33.1,12.7-45.8,0c-12.7-12.7-12.7-33.1,0-45.8l1.6-1.6
								c-12.7,12.7-12.7,33.2,0,45.8S643.6,145.1,656.3,132.5L656.3,132.5"/>
						</g>
					</g>
				</g>
			</g>
		</g>
	</g>
	<path class="st11" d="M633.3,77.2c17.9,0,32.3,14.4,32.4,32.3c0,17.9-14.4,32.3-32.3,32.4c-17.9,0-32.3-14.4-32.4-32.3l0,0
		C601,91.8,615.6,77.3,633.3,77.2z"/>
</g>
<g>
	<polygon class="st5" points="623.7,60 633,96.1 630.3,96.7 618.6,60.8 	"/>
	<polygon class="st12" points="630.3,96.7 627.6,96.7 616,60.8 618.6,60.8 	"/>
	<polygon class="st13" points="618.6,60.8 616,60.8 621.1,60 623.7,60 	"/>
</g>
<g>
	<polygon class="st5" points="637.5,59.7 642.4,61.1 636.3,97.8 633.6,97.2 	"/>
	<polygon class="st12" points="636.3,97.8 633.8,97.8 631.1,97.2 633.6,97.2 	"/>
	<polygon class="st12" points="633.6,97.2 631.1,97.2 635,59.7 637.5,59.7 	"/>
</g>
<g>
	<polygon class="st5" points="657.6,67.9 661.4,71.3 639.2,101.2 637.1,99.4 	"/>
	<polygon class="st12" points="639.2,101.2 636.7,101.2 634.5,99.4 637.1,99.4 	"/>
	<polygon class="st12" points="637.1,99.4 634.5,99.4 655.1,67.9 657.6,67.9 	"/>
</g>
<g>
	<polygon class="st5" points="670.9,81.2 673.5,85.7 643.4,107.5 641.9,105.1 	"/>
	<polygon class="st12" points="643.4,107.5 640.9,107.5 639.3,105.1 641.9,105.1 	"/>
	<polygon class="st12" points="641.9,105.1 639.3,105.1 668.4,81.2 670.9,81.2 	"/>
</g>
<g>
	<polygon class="st13" points="641.6,105.8 639.1,105.8 676.6,103.7 679.2,103.7 	"/>
	<polygon class="st5" points="641.6,105.8 679.2,103.7 678.6,108.9 641.4,108.6 	"/>
	<polygon class="st12" points="678.6,108.9 676.1,108.9 638.9,108.6 641.4,108.6 	"/>
	<polygon class="st12" points="641.4,108.6 638.9,108.6 639.1,105.8 641.6,105.8 	"/>
</g>
<g>
	<polygon class="st5" points="641.6,111.4 677.3,123.3 674.8,127.8 640.3,114 	"/>
	<polygon class="st12" points="674.8,127.8 672.3,127.8 637.8,114 640.3,114 	"/>
	<polygon class="st12" points="640.3,114 637.8,114 639.1,111.4 641.6,111.4 	"/>
</g>
<g>
	<polygon class="st5" points="639.3,115.7 666.7,141.5 662.7,144.6 637.1,117.5 	"/>
	<polygon class="st12" points="662.7,144.6 660.1,144.6 634.6,117.5 637.1,117.5 	"/>
	<polygon class="st12" points="637.1,117.5 634.6,117.5 636.8,115.7 639.3,115.7 	"/>
</g>
<g>
	<polygon class="st5" points="635.7,119.1 651.1,153.5 646.2,154.8 633,120 	"/>
	<polygon class="st12" points="646.2,154.8 643.7,154.8 630.4,120 633,120 	"/>
	<polygon class="st7" points="633,120 630.4,120 633.2,119.1 635.7,119.1 	"/>
</g>
<g>
	<polygon class="st5" points="628.6,119.6 631.4,119.8 632.6,157.5 627.5,156.8 	"/>
	<polygon class="st12" points="632.6,157.5 630.1,157.5 625,156.8 627.5,156.8 	"/>
	<polygon class="st12" points="627.5,156.8 625,156.8 626.1,119.6 628.6,119.6 	"/>
</g>
<g>
	<polygon class="st5" points="628.1,119.5 630.4,121.3 610.7,153.4 606.8,150.1 	"/>
	<polygon class="st12" points="610.7,153.4 608.2,153.4 604.3,150.1 606.8,150.1 	"/>
	<polygon class="st12" points="606.8,150.1 604.3,150.1 625.6,119.5 628.1,119.5 	"/>
</g>
<g>
	<polygon class="st5" points="621,115.6 622.6,118 594.9,143.5 592.1,139.1 	"/>
	<polygon class="st12" points="594.9,143.5 592.4,143.5 589.6,139.1 592.1,139.1 	"/>
	<polygon class="st12" points="592.1,139.1 589.6,139.1 618.5,115.6 621,115.6 	"/>
</g>
<g>
	<polygon class="st5" points="588.5,83.4 623.7,102.4 622.2,104.8 585.7,87.8 	"/>
	<polygon class="st12" points="622.2,104.8 619.7,104.8 583.1,87.8 585.7,87.8 	"/>
	<polygon class="st12" points="585.7,87.8 583.1,87.8 586,83.4 588.5,83.4 	"/>
</g>
<g>
	<polygon class="st5" points="582.2,100.5 621.7,106.5 621.3,109.2 581.1,105.5 	"/>
	<polygon class="st12" points="621.3,109.2 618.7,109.2 578.6,105.5 581.1,105.5 	"/>
	<polygon class="st12" points="581.1,105.5 578.6,105.5 579.7,100.5 582.2,100.5 	"/>
</g>
<g>
	<polygon class="st5" points="621.8,110.1 622.4,112.9 584,125 583.1,120 	"/>
	<polygon class="st12" points="584,125 581.4,125 580.5,120 583.1,120 	"/>
	<polygon class="st14" points="583.1,120 580.5,120 619.3,110.1 621.8,110.1 	"/>
</g>
<g>
	<polygon class="st5" points="605.7,67.2 625.2,98.1 622.7,99.5 601,69.5 	"/>
	<polygon class="st12" points="622.7,99.5 620.2,99.5 598.5,69.5 601,69.5 	"/>
	<polygon class="st12" points="601,69.5 598.5,69.5 603.2,67.2 605.7,67.2 	"/>
</g>
<ellipse transform="matrix(3.455090e-02 -0.9994 0.9994 3.455090e-02 501.4521 737.9139)" class="st15" cx="632.7" cy="109.4" rx="14.4" ry="14.4"/>
</svg>
