<?xml version="1.0" encoding="utf-8"?>
<!-- Generator: Adobe Illustrator 21.0.0, SVG Export Plug-In . SVG Version: 6.00 Build 0)  -->
<svg version="1.1" id="wheels_antenna" xmlns="http://www.w3.org/2000/svg" xmlns:xlink="http://www.w3.org/1999/xlink" x="0px"
	 y="0px" viewBox="0 0 741.8 190.9" style="enable-background:new 0 0 741.8 190.9;" xml:space="preserve">
<style type="text/css">
	.st0{fill:#0F0F0D;}
	.st1{clip-path:url(#SVGID_2_);}
	.st2{fill:#090908;}
	.st3{fill:#0A0A08;}
	.st4{fill:#212321;}
	.st5{clip-path:url(#SVGID_4_);}
	.st6{fill:#131513;}
	.st7{fill:#050201;}
	.st8{clip-path:url(#SVGID_6_);}
	.st9{fill:#4B4B4B;}
	.st10{fill:#808080;}
	.st11{fill:#131413;}
	.st12{fill:#141614;}
	.st13{fill:#141514;}
	.st14{fill:#252825;}
</style>
<title>enkei-wheels</title>
<g>
	<path class="st0" d="M108.3,40c37-0.1,67.1,29.7,67.2,66.7s-29.7,67.1-66.7,67.2s-67.1-29.7-67.2-66.7c0-0.1,0-0.2,0-0.3
		C41.5,70.1,71.4,40.1,108.3,40L108.3,40z"/>
	<g>
		<g>
			<g>
				<g>
					<g>
						<defs>
							<path id="SVGID_1_" d="M108.3,174h-4.1c-37,0-67-29.9-67-67c0-37,30-67,67-67h4.1c-37,0-67,29.9-67,67
								C41.4,144,71.3,174,108.3,174z"/>
						</defs>
						<clipPath id="SVGID_2_">
							<use xlink:href="#SVGID_1_"  style="overflow:visible;"/>
						</clipPath>
						<g class="st1">
							<g>
								<path class="st2" d="M108.3,174h-4.1c-37-0.2-66.9-30.4-66.7-67.3C37.6,79,54.8,54.3,80.6,44.4h4.1
									c-34.5,13.1-51.8,51.8-38.6,86.5C56,156.7,80.6,173.8,108.3,174"/>
								<path class="st2" d="M84.8,44.3h-4.1c4.4-1.7,9.1-2.9,13.7-3.6h4.1C93.8,41.4,89.2,42.6,84.8,44.3"/>
								<path class="st3" d="M98.5,40.8h-4.1c3.3-0.5,6.5-0.8,9.9-0.8h4.1C105,40,101.7,40.3,98.5,40.8"/>
							</g>
						</g>
					</g>
				</g>
			</g>
		</g>
	</g>
</g>
<g>
	<path class="st4" d="M107.3,51.2c30.6,0,55.3,24.7,55.3,55.2s-24.7,55.3-55.2,55.3s-55.3-24.6-55.3-55.2c0,0,0,0,0-0.1
		C52.1,75.9,76.9,51.2,107.3,51.2z"/>
	<g>
		<g>
			<g>
				<g>
					<g>
						<defs>
							<path id="SVGID_3_" d="M132.1,155.9l-1.6,0.9c-27.4,13.6-60.5,2.5-74.2-24.8S53.7,71.5,81,57.8l1.6-0.9
								c-27.3,13.7-38.3,46.9-24.7,74.3S104.7,169.6,132.1,155.9z"/>
						</defs>
						<clipPath id="SVGID_4_">
							<use xlink:href="#SVGID_3_"  style="overflow:visible;"/>
						</clipPath>
						<g class="st5">
							<g>
								<path class="st6" d="M132.1,155.9l-1.6,0.9c-27.4,13.6-60.5,2.5-74.2-24.8S53.7,71.5,81,57.8l1.6-0.9
									c-27.3,13.7-38.3,46.9-24.7,74.3S104.7,169.6,132.1,155.9"/>
							</g>
						</g>
					</g>
				</g>
			</g>
		</g>
	</g>
</g>
<circle class="st7" cx="106.5" cy="107.1" r="49.1"/>
<g>
	<g>
		<g>
			<g>
				<g>
					<g>
						<defs>
							<path id="SVGID_5_" d="M133.9,130.9l-1.6,1.6c-12.7,12.7-33.1,12.7-45.8,0s-12.7-33.1,0-45.8l1.6-1.6
								c-12.7,12.7-12.7,33.2,0,45.8C100.8,143.5,121.3,143.5,133.9,130.9L133.9,130.9L133.9,130.9z"/>
						</defs>
						<clipPath id="SVGID_6_">
							<use xlink:href="#SVGID_5_"  style="overflow:visible;"/>
						</clipPath>
						<g class="st8">
							<g>
								<path class="st9" d="M133.9,130.9l-1.6,1.6c-12.7,12.7-33.1,12.7-45.8,0s-12.7-33.1,0-45.8l1.6-1.6
									c-12.7,12.7-12.7,33.2,0,45.8C100.8,143.5,121.3,143.5,133.9,130.9L133.9,130.9"/>
							</g>
						</g>
					</g>
				</g>
			</g>
		</g>
	</g>
	<path class="st10" d="M111,75.6c17.9,0,32.3,14.4,32.4,32.3c0,17.9-14.4,32.3-32.3,32.4c-17.9,0-32.3-14.4-32.4-32.3l0,0
		C78.7,90.2,93.2,75.7,111,75.6z"/>
</g>
<g>
	<polygon class="st4" points="101.3,58.4 110.6,94.5 107.9,95.1 96.3,59.2 	"/>
	<polygon class="st11" points="107.9,95.1 105.3,95.1 93.7,59.2 96.3,59.2 	"/>
	<polygon class="st12" points="96.3,59.2 93.7,59.2 98.7,58.4 101.3,58.4 	"/>
</g>
<g>
	<polygon class="st4" points="115.2,58.1 120.1,59.5 114,96.2 111.3,95.6 	"/>
	<polygon class="st11" points="114,96.2 111.5,96.2 108.8,95.6 111.3,95.6 	"/>
	<polygon class="st11" points="111.3,95.6 108.8,95.6 112.6,58.1 115.2,58.1 	"/>
</g>
<g>
	<polygon class="st4" points="135.3,66.3 139.1,69.7 116.9,99.6 114.8,97.8 	"/>
	<polygon class="st11" points="116.9,99.6 114.4,99.6 112.2,97.8 114.8,97.8 	"/>
	<polygon class="st11" points="114.8,97.8 112.2,97.8 132.8,66.3 135.3,66.3 	"/>
</g>
<g>
	<polygon class="st4" points="148.5,79.6 151.1,84.1 121.1,105.9 119.5,103.5 	"/>
	<polygon class="st11" points="121.1,105.9 118.5,105.9 117,103.5 119.5,103.5 	"/>
	<polygon class="st11" points="119.5,103.5 117,103.5 146,79.6 148.5,79.6 	"/>
</g>
<g>
	<polygon class="st12" points="119.2,104.2 116.7,104.2 154.2,102.1 156.8,102.1 	"/>
	<polygon class="st4" points="119.2,104.2 156.8,102.1 156.3,107.3 119,107 	"/>
	<polygon class="st11" points="156.3,107.3 153.8,107.3 116.5,107 119,107 	"/>
	<polygon class="st11" points="119,107 116.5,107 116.7,104.2 119.2,104.2 	"/>
</g>
<g>
	<polygon class="st4" points="119.2,109.8 154.9,121.7 152.5,126.2 118,112.4 	"/>
	<polygon class="st11" points="152.5,126.2 150,126.2 115.5,112.4 118,112.4 	"/>
	<polygon class="st11" points="118,112.4 115.5,112.4 116.7,109.8 119.2,109.8 	"/>
</g>
<g>
	<polygon class="st4" points="117,114.1 144.4,139.9 140.3,143 114.8,115.9 	"/>
	<polygon class="st11" points="140.3,143 137.8,143 112.3,115.9 114.8,115.9 	"/>
	<polygon class="st11" points="114.8,115.9 112.3,115.9 114.5,114.1 117,114.1 	"/>
</g>
<g>
	<polygon class="st4" points="113.3,117.5 128.8,151.9 123.9,153.2 110.6,118.4 	"/>
	<polygon class="st11" points="123.9,153.2 121.4,153.2 108.1,118.4 110.6,118.4 	"/>
	<polygon class="st6" points="110.6,118.4 108.1,118.4 110.8,117.5 113.3,117.5 	"/>
</g>
<g>
	<polygon class="st4" points="106.3,118 109.1,118.2 110.2,155.9 105.2,155.2 	"/>
	<polygon class="st11" points="110.2,155.9 107.7,155.9 102.7,155.2 105.2,155.2 	"/>
	<polygon class="st11" points="105.2,155.2 102.7,155.2 103.7,118 106.3,118 	"/>
</g>
<g>
	<polygon class="st4" points="105.8,117.9 108,119.7 88.4,151.8 84.5,148.5 	"/>
	<polygon class="st11" points="88.4,151.8 85.9,151.8 82,148.5 84.5,148.5 	"/>
	<polygon class="st11" points="84.5,148.5 82,148.5 103.3,117.9 105.8,117.9 	"/>
</g>
<g>
	<polygon class="st4" points="98.6,114 100.3,116.4 72.6,141.9 69.8,137.5 	"/>
	<polygon class="st11" points="72.6,141.9 70.1,141.9 67.3,137.5 69.8,137.5 	"/>
	<polygon class="st11" points="69.8,137.5 67.3,137.5 96.1,114 98.6,114 	"/>
</g>
<g>
	<polygon class="st4" points="66.1,81.8 101.3,100.8 99.9,103.2 63.3,86.2 	"/>
	<polygon class="st11" points="99.9,103.2 97.4,103.2 60.8,86.2 63.3,86.2 	"/>
	<polygon class="st11" points="63.3,86.2 60.8,86.2 63.6,81.8 66.1,81.8 	"/>
</g>
<g>
	<polygon class="st4" points="59.8,98.9 99.4,104.9 98.9,107.6 58.8,103.9 	"/>
	<polygon class="st11" points="98.9,107.6 96.4,107.6 56.3,103.9 58.8,103.9 	"/>
	<polygon class="st11" points="58.8,103.9 56.3,103.9 57.3,98.9 59.8,98.9 	"/>
</g>
<g>
	<polygon class="st4" points="99.5,108.5 100.1,111.3 61.7,123.4 60.7,118.4 	"/>
	<polygon class="st11" points="61.7,123.4 59.1,123.4 58.2,118.4 60.7,118.4 	"/>
	<polygon class="st13" points="60.7,118.4 58.2,118.4 97,108.5 99.5,108.5 	"/>
</g>
<g>
	<polygon class="st4" points="83.3,65.6 102.9,96.5 100.4,97.9 78.7,67.9 	"/>
	<polygon class="st11" points="100.4,97.9 97.8,97.9 76.2,67.9 78.7,67.9 	"/>
	<polygon class="st11" points="78.7,67.9 76.2,67.9 80.8,65.6 83.3,65.6 	"/>
</g>
<ellipse transform="matrix(3.455100e-02 -0.9994 0.9994 3.455100e-02 -1.2824 214.4265)" class="st14" cx="110.3" cy="107.9" rx="14.4" ry="14.4"/>
</svg>
