<?xml version="1.0" encoding="utf-8"?>
<!-- Generator: Adobe Illustrator 21.0.0, SVG Export Plug-In . SVG Version: 6.00 Build 0)  -->
<svg version="1.1" xmlns="http://www.w3.org/2000/svg" xmlns:xlink="http://www.w3.org/1999/xlink" x="0px" y="0px"
	 viewBox="0 0 941.7 262.5" style="enable-background:new 0 0 941.7 262.5;" xml:space="preserve">
<style type="text/css">
	.st0{fill:#1E1E1D;}
	.st1{fill:#710D0F;}
	.st2{fill:#841212;}
	.st3{fill:#171722;}
	.st4{fill:#A9C2B5;}
	.st5{fill:#AB171B;}
	.st6{fill:#191919;}
	.st7{fill:#020001;}
	.st8{clip-path:url(#SVGID_2_);}
	.st9{fill:#535353;}
	.st10{clip-path:url(#SVGID_4_);}
	.st11{fill:#666666;}
	.st12{fill:#636363;}
	.st13{fill:#606060;}
	.st14{fill:#5D5D5D;}
	.st15{fill:#8B8B8B;}
	.st16{clip-path:url(#SVGID_6_);}
	.st17{fill:#5A5A5A;}
	.st18{fill:#565656;}
	.st19{clip-path:url(#SVGID_8_);}
	.st20{clip-path:url(#SVGID_10_);}
	.st21{clip-path:url(#SVGID_12_);}
	.st22{clip-path:url(#SVGID_14_);}
	.st23{clip-path:url(#SVGID_16_);}
	.st24{clip-path:url(#SVGID_18_);}
	.st25{clip-path:url(#SVGID_20_);}
	.st26{clip-path:url(#SVGID_22_);}
	.st27{clip-path:url(#SVGID_24_);}
	.st28{clip-path:url(#SVGID_26_);}
	.st29{clip-path:url(#SVGID_28_);}
	.st30{clip-path:url(#SVGID_30_);}
	.st31{clip-path:url(#SVGID_32_);}
	.st32{clip-path:url(#SVGID_34_);}
	.st33{clip-path:url(#SVGID_36_);}
	.st34{clip-path:url(#SVGID_38_);}
	.st35{clip-path:url(#SVGID_40_);}
	.st36{clip-path:url(#SVGID_42_);}
	.st37{clip-path:url(#SVGID_44_);}
	.st38{clip-path:url(#SVGID_46_);}
	.st39{clip-path:url(#SVGID_48_);}
	.st40{clip-path:url(#SVGID_50_);}
	.st41{clip-path:url(#SVGID_52_);}
	.st42{clip-path:url(#SVGID_54_);}
	.st43{clip-path:url(#SVGID_56_);}
	.st44{clip-path:url(#SVGID_58_);}
	.st45{clip-path:url(#SVGID_60_);}
	.st46{clip-path:url(#SVGID_62_);}
	.st47{clip-path:url(#SVGID_64_);}
	.st48{clip-path:url(#SVGID_66_);}
	.st49{clip-path:url(#SVGID_68_);}
	.st50{clip-path:url(#SVGID_70_);}
	.st51{clip-path:url(#SVGID_72_);}
	.st52{clip-path:url(#SVGID_74_);}
	.st53{clip-path:url(#SVGID_76_);}
	.st54{clip-path:url(#SVGID_78_);}
	.st55{clip-path:url(#SVGID_80_);}
	.st56{clip-path:url(#SVGID_82_);}
	.st57{clip-path:url(#SVGID_84_);}
	.st58{clip-path:url(#SVGID_86_);}
	.st59{clip-path:url(#SVGID_88_);}
	.st60{clip-path:url(#SVGID_90_);}
	.st61{clip-path:url(#SVGID_92_);}
	.st62{clip-path:url(#SVGID_94_);}
	.st63{clip-path:url(#SVGID_96_);}
	.st64{clip-path:url(#SVGID_98_);}
	.st65{clip-path:url(#SVGID_100_);}
	.st66{clip-path:url(#SVGID_102_);}
	.st67{clip-path:url(#SVGID_104_);}
	.st68{clip-path:url(#SVGID_106_);}
	.st69{clip-path:url(#SVGID_108_);}
	.st70{clip-path:url(#SVGID_110_);}
	.st71{clip-path:url(#SVGID_112_);}
	.st72{clip-path:url(#SVGID_114_);}
	.st73{clip-path:url(#SVGID_116_);}
	.st74{clip-path:url(#SVGID_118_);}
	.st75{clip-path:url(#SVGID_120_);}
	.st76{clip-path:url(#SVGID_122_);}
	.st77{clip-path:url(#SVGID_124_);}
	.st78{clip-path:url(#SVGID_126_);}
	.st79{clip-path:url(#SVGID_128_);}
	.st80{clip-path:url(#SVGID_130_);}
	.st81{clip-path:url(#SVGID_132_);}
	.st82{clip-path:url(#SVGID_134_);}
	.st83{clip-path:url(#SVGID_136_);}
	.st84{clip-path:url(#SVGID_138_);}
	.st85{clip-path:url(#SVGID_140_);}
	.st86{clip-path:url(#SVGID_142_);}
	.st87{clip-path:url(#SVGID_144_);}
	.st88{clip-path:url(#SVGID_146_);}
	.st89{clip-path:url(#SVGID_148_);}
	.st90{clip-path:url(#SVGID_150_);}
	.st91{clip-path:url(#SVGID_152_);}
	.st92{clip-path:url(#SVGID_154_);}
	.st93{clip-path:url(#SVGID_156_);}
	.st94{clip-path:url(#SVGID_158_);}
	.st95{clip-path:url(#SVGID_160_);}
	.st96{clip-path:url(#SVGID_162_);}
	.st97{clip-path:url(#SVGID_164_);}
	.st98{clip-path:url(#SVGID_166_);}
	.st99{clip-path:url(#SVGID_168_);}
	.st100{clip-path:url(#SVGID_170_);}
	.st101{clip-path:url(#SVGID_172_);}
	.st102{clip-path:url(#SVGID_174_);}
	.st103{clip-path:url(#SVGID_176_);}
	.st104{clip-path:url(#SVGID_178_);}
	.st105{clip-path:url(#SVGID_180_);}
	.st106{fill:#F6FFFF;}
	.st107{fill:#751614;stroke:#000000;stroke-miterlimit:10;}
	.st108{fill:#E80F29;}
	.st109{fill:#F20F0F;}
	.st110{fill:#6C1512;}
	.st111{fill:#AD2D2D;}
	.st112{fill:#020000;}
	.st113{fill:#E2F6FA;}
	.st114{fill:#D8EAEE;}
	.st115{fill:#030202;}
</style>
<g id="shadow">
	<g id="shaddow">
		<path class="st0" d="M128.8,236.4c0,0-139.9-5-127.9,1.4s132.9,17.7,132.9,17.7s599.8-0.8,601-2.7s206.8,0,206.8,0
			s6-9.4-39.4-12.2s-707.4-10.9-707.4-10.9L128.8,236.4z"/>
	</g>
</g>
<g id="Layer_1">
	<title>frs-body-frame</title>
	<g id="body">
		<path class="st1" d="M908.7,216.1c-6-7.3-10.7-20-4-39.3c6.7-27.3-0.7-30.7-0.7-30.7c-19.3-20.7-108-52.7-156.7-56.7
			S696,86.7,696,86.7c-16-2-74-6-74-6s-36-31.3-112.7-65.3c-80-20.7-108.7-15.3-162-13.3S228,25.4,156,50.1
			C94,68.1,47.3,63.4,47.3,63.4c-3.7,2.7-1,3.7-0.7,7.3s-0.2,27.2-2.5,34.5S23,136.1,23,136.1v40.7l20.7,42.3l13.7,3.3l5-9.7
			l42,13.3c0,0-1.7-1.3-1.7-9.7c0-11.7,2-24.3,6.5-38.5c3.7-11.6,9-22.6,15.5-32.8c4.9-7.5,9.1-9.5,14.7-13.3
			c10.8-7.3,18.5-9,26.3-10.3c7.9-1.3,18.1-1.2,22-1c5,0.2,16.3,1.6,31.3,10c8.2,4.6,17.3,10.7,25.3,22.3
			c22.7,33,17.7,76.7,17.7,76.7s62,6,83.3,3.3s63.3,5.3,63.3,5.3l269.2,3.3l1.2-15.2c-0.2-1.5-0.2-3.1-0.2-4.6
			c0.1-1.9,0.6-3.8-0.2-5.7c-0.7-1.7-3.5-2-4.8-3.2c0.2-2.6-2.8-17.8,0.2-32.8c2.1-10.4,4.7-24.6,11.8-29.2c3.4-2.3,9.6-2.4,13.5-2
			c31.3-30.7,94.2-28.8,119.5,9.2S834,234,834,234s6-0.7,41.3,0s43.7,3,47.7,2.3S918.7,224.1,908.7,216.1z"/>
	</g>
	<g id="shiny">
		<path class="st2" d="M259.4,180.5c0,0,21,3,26,0s9-11,14-11s5-17,5-17l13-16l321.8,8.5l6.8-6.5c0,0,38.5,0,46.5,8
			c0,0,4.5,2.5,8.5,0.2s25.8-24,59.2-20.8s48,20.5,48,20.5l14.2,17.8l13.5-1c0,0-27.2-40-63.2-44s-47,3.2-47,3.2l-32.8-20
			c0,0-53,5.5-73,3.8s-40.2-2-40.2-2L329.1,87.7L229,136.8l15,14.7L259.4,180.5z"/>
		<path class="st2" d="M378.9,214c0,0-12.5-1-19.5-8.5c-25.5-2-44-3-44-3s16,16,66,18s287,10,287,10l1-6.5L378.9,214z"/>
		<path class="st2" d="M262.7,228.7l-3.2,11.8c0,0-3,6.2,4.8,5.2h71.8c0,0,9.2-11.5,13.5-12.2s26-0.5,26-0.5l5-1.2L262.7,228.7z"/>
	</g>
	<g id="Layer_12">
		<path d="M617.3,120.7c-3-10.3-10.2-19.4-18.6-25.9c-7.8-6.1-16.7-8.3-26.3-9.6c-27-3.6-54.1-6.8-81.2-9.9
			c-24.9-2.8-49.7-6.5-74.7-7.2c-12.6-0.4-25.2,0.1-37.7,1.4c-5.7,0.6-11.7,2.2-17.5,2.3c-4,0.1-8.2-1.1-12.1-1.8
			c-4.4-0.8-11.8-3-15.6,0.4c-3.1,2.8-5.3,8.2-7.1,11.9c-2,4.2-3.5,8.6-4.7,13.1c-4.9,18.7-2.9,38.8,3,57.1
			c5.8,18,15.7,34.3,29,47.7c3.6,3.6,7.2,7.4,11.5,10.2c4.7,3.1,10.1,4.4,15.6,5.1c12.5,1.6,25.4,1.5,38.1,2
			c63.3,2.6,126.6,4,190,4.2c0.3,0,0.6-0.2,0.7-0.5c4.3-16.6,7.2-33.6,8.8-50.7C620.2,154,621.3,136.8,617.3,120.7
			c-0.2-0.4-0.6-0.6-1-0.5s-0.6,0.5-0.5,0.9c3.6,14.2,2.8,29.1,1.8,43.6c-1.1,14.5-3.1,28.8-6.2,43c-0.6,3-0.9,6.5-2.1,9.3
			c-1.2,2.8-1.2,2.8-4.2,3.1c-1.3,0.1-2.7,0.1-4,0c-7.9,0-15.8-0.1-23.8-0.2c-14.5-0.1-29-0.3-43.5-0.6c-29-0.5-58.1-1.3-87.1-2.3
			c-15.2-0.5-30.3-1.2-45.5-1.8c-14.2-0.6-28.8,0-40-10c-31-27.8-50.7-75.6-35.6-116.6c1.8-4.9,4.2-9.6,7-14
			c1.2-1.9,2.1-3.5,4.3-4.1c2.5-0.7,6,0,8.5,0.4c3.8,0.6,7.5,1.4,11.3,2c4.3,0.6,7.7,0,12-0.6c26-3.7,52.2-3.1,78.2-0.5
			c31.6,3.2,63.2,7.1,94.8,11c7.9,1,15.8,2,23.7,3c6.9,0.9,14.1,1.5,20.7,3.8c13.6,4.7,25.6,17.7,29.6,31.5c0.2,0.4,0.6,0.5,1,0.4
			C617.2,121.2,617.4,121,617.3,120.7z"/>
	</g>
	<g id="window">
		<path class="st3" d="M334,20c-31.4,6.2-63.3,12.7-91.8,28.1l2.4,2.9c0,0,30,19.4,47.1,23.6s34.6,5.4,52.1,6.6L334,20z"/>
		<path class="st4" d="M330.5,25.6c-27.3,5.2-55,10.5-79.7,23.1c0.7,0.8,0.9,1.3,1.6,2.1c0,0,26.7,16.3,41.5,19.7s30.1,4.4,45.3,5.4
			L330.5,25.6z"/>
		<path class="st3" d="M489.1,25.2c-5.4-2.6-11-4.6-16.8-6.1c-8.1-2.3-17.8-3.5-26.2-4.3C408.7,11.3,371,13.1,334,20
			c0.1,0.5-2.6,1.8-2.5,2.2c1.2,5.1,8,43.3,9.8,56.8c0.1,0.6,2.6,1.6,2.6,2.2c80.9,5,170.9,8.2,251.9,10.3
			C565.9,68.7,523.2,41,489.1,25.2z"/>
		<path class="st4" d="M489.5,29.9c-6.4-3.1-13-5.7-19.8-7.8c-8-2.1-16.1-3.5-24.3-4.1c-36.8-3.4-73.8-1.8-110.1,4.9
			c5.3,18.4,8.3,35.1,10.5,54.1c79,4.9,158.5,7.5,237.6,9.6C554.2,64.3,522.8,45.3,489.5,29.9z"/>
	</g>
	<g id="side_mirror">
		<path class="st3" d="M556.7,90c-0.8-1.5-2-2.9-2.7-4.5c-2.5-5.6,0.7-12.4-1.3-18.1c-0.9-2.3-2.4-4.4-4.3-6
			c-7.5-6.7-18.8-8.9-27.8-5c-1.3,0.4-2.4,1.2-3.2,2.3c-0.8,1.2-2.2,2.6-2.1,4.4c0.3,4.3,0.2,6,0.4,10.4c0.2,3.6,0.8,7.7,3.8,9.5
			c4.5,2.6,11.1-1.7,15.1,1.6c1.7,1.4,1.8,3.4,1.8,5.7c-0.1,2.2-1,3.8-1.2,6.1c-0.2,1.6-1.3,4.2,0.2,4.8c0.8,0.3,20.5,1,21.9,0.1
			c1-0.7,1.3-4,1.4-5.2C559.2,93.2,558,92.5,556.7,90z"/>
		<path class="st5" d="M552.2,66.3c-1.4-3.1-4.7-5.7-7.6-7.5c-6.2-3.8-12.8-5.4-19.9-3.8c-2,0.5-3.9,1.1-5.7,2.1
			c-0.5,0.3-0.9,0.6-1.2,1c-0.2,0.3-0.5,0.6-0.8,0.9c-0.6,0.5-1,1.2-1.3,1.9c-0.3,0.5-0.5,1-0.5,1.6c-0.1,1.5,0.2,3.5,0.2,3.5
			l14.4,6.3l1.9,1c2.1,1.5,3.9,2.3,6,3.6c4,2.5,9.5,3.9,14.2,4.4c0.3,0,0.7-0.1,1-0.2c0,0,0.1,0,0.1-0.1c0.1-0.5,0-2.1,0.1-2.5
			C553.4,74.2,554,70.2,552.2,66.3z"/>
		<path d="M892.4,207.9l-11.7-16.3c-2.6-3.6-5.2-7.3-8.6-10.2s-7.6-5-12.1-5c-0.6,0-1.4,0.1-1.6,0.7v0.1L872,209
			c1.4,3.3,3,6.9,6.2,8.6c2.2,1.2,4.8,1.2,7.3,1.2s5.1-0.2,7.7-0.4c0.7,0,1.3-0.2,1.9-0.6c0.4-0.5,0.6-1.1,0.6-1.7
			C896,213.1,894.2,210.4,892.4,207.9z"/>
	</g>
	<g id="diffuser">
		<path d="M105.3,231.8l-2.5-13.1h-0.9l-1.4,0.1c-10.6-0.4-21.1-2.5-31-6.3c-2.4-0.9-4.8-2-7.4-1.8s-5.2,1.9-5.4,4.5
			c-0.1,1.4,0.5,3-0.2,4.3c-0.5,0.8-1.3,1.3-2.2,1.3l-1.4,0.1c-6.4-0.2-10.5-7-13.1-12.9c-3.3-7.8-6.3-15.7-8.9-23.8
			c-1.4-4.3-2.7-8.7-5.4-12.2s-7.5-5.9-11.8-4.6c-1.2,0.3-2.2,1-2.9,2c-0.9,1.5-0.3,3.4,0.2,5.1L23.5,214l1.3,4.2
			c0.3,1.1,0.8,2.1,1.5,3.1c0.2,0.3,0.5,0.6,0.9,0.6l23.8-1l-23.5,1c2.4,0.7,4.9,1,7.5,0.9c6.7,0.4,13.3,1.2,19.9,2.5
			c6.5,1.1,13,2.2,19.5,3.6c10.7,2.5,21.3,5.5,31.8,9.1C106,235.9,105.8,233.8,105.3,231.8z"/>
	</g>
	<g id="flare_glare">
		<path class="st6" d="M25.4,175.3l9.7,28.2l8.3,13.7l12,4.7l-1,2.5l-27.5-5.2l-15-46.5C11.9,172.6,19.9,166,25.4,175.3z"/>
	</g>
	<g id="flares">
		<path class="st7" d="M85.2,110.8c14.1,10.6,28.7,20.5,43.8,29.6c0.4,0.2,0.8,0.1,1-0.3c0.2-0.4,0.1-0.8-0.3-1
			c-15.1-9.1-29.7-19-43.8-29.6C85.2,108.9,84.5,110.2,85.2,110.8z"/>
		<path class="st7" d="M99.4,84.7c20.8-1.7,41.6-2.7,62.3-4.3c11.1-0.9,22.2-1.7,33.3-0.4s21.8,4.3,32.5,7.1l65.8,17l15.5,4
			c2.2,0.6,6,0.7,7.2,2.9c0.8,1.4,0.2,5.6,0.3,7.3c0.7,9,2.4,17.9,5,26.5c6.1,20.4,15.8,39.6,28.6,56.5c0.6,0.8,1.9,0,1.3-0.8
			c-19.5-26.1-33.6-58.2-33.7-91.2c0-0.3-0.2-0.6-0.5-0.7l-56.2-14.5c-18.2-4.7-36.3-10-54.7-13.8c-17.9-3.6-35.4-2.1-53.4-0.8
			c-17.8,1.3-35.6,2.2-53.3,3.6C98.4,83.3,98.4,84.8,99.4,84.7L99.4,84.7z"/>
		<path d="M262.9,200.7c29.2,1.1,58.5-0.1,87.8,1c1,0,1-1.5,0-1.5c-29.2-1.1-58.5,0.1-87.8-1C261.9,199.2,261.9,200.7,262.9,200.7z"
			/>
		<path class="st7" d="M98.8,83.6c-5,8.8-9.8,17.8-14,27c-1.8,4-3.6,8-5.3,12c-2,4.6-4.7,9.7-5.5,14.7c-1.3,7.1,7.3,11.9,11.9,15.8
			c8,6.6,16.2,12.8,24.4,19.2c0.8,0.6,1.8-0.5,1.1-1.1c-6.7-5.3-13.4-10.4-20.1-15.7c-3.3-2.6-6.6-5.3-9.8-8.1
			c-1.7-1.3-3.2-2.7-4.5-4.3c-2.4-3.4-1.1-7.1,0.3-10.6c6.4-16.6,14.1-32.6,23-48c0.2-0.4,0.1-0.8-0.3-1
			C99.5,83.2,99,83.3,98.8,83.6L98.8,83.6z"/>
		<path d="M111.4,171.8c4.4-12.5,10.7-24.2,20.7-33c11.3-10.1,26.2-16.1,41.2-17.7c29.1-3.2,56.4,11.6,72.5,35.5
			c8.7,12.9,14.9,27.9,16.4,43.4c0.1,1,1.6,1,1.5,0c-2.6-27.7-19.3-55.4-43.2-69.8c-26.3-15.9-60.8-14.3-85.5,4.3
			c-12.3,9.3-20,22.6-25.1,37C109.6,172.4,111.1,172.7,111.4,171.8L111.4,171.8z"/>
		<path class="st7" d="M617.8,106.4c11.2,1.5,22.4,3.2,33.6,4.7c10.2,1.3,19.7,2.1,29.4-2s18.4-9.9,28.8-12.7
			c10.7-2.6,21.8-3.5,32.7-2.5c22.4,1.7,44.4,7.6,64.7,17.3c19.4,9.4,36.1,25,50.9,40.4c4.3,4.2,8,9,10.9,14.3
			c0.8,1.5,3.7,6,2.5,7.5c-0.6,0.7-6.7-0.2-8-0.2c-5.7-0.1-11.4,0-17,0c-3.7,0-18.9,1.6-19.4-3.6c-0.1-1-1.6-1-1.5,0
			c0.7,6.8,11,5,15.9,5c10.5,0.1,21.1-0.3,31.6,0.3c0.4,0,0.8-0.4,0.7-0.8c0-0.1,0-0.1,0-0.2c-4.4-16.8-19.4-28.7-31.8-39.9
			c-14.2-12.9-29.3-23.3-47.4-29.9C776.8,97.8,757.9,93,739,92.2c-8.9-0.5-17.7,0.2-26.4,2c-9,2-17,5.7-25.1,10
			c-5.3,2.8-10.7,5.4-16.8,6.3s-12.3,0.1-18.4-0.7c-11.5-1.5-23-3.3-34.5-4.8C616.9,104.8,616.9,106.2,617.8,106.4L617.8,106.4z"/>
		<path class="st7" d="M617.3,221.5c2.3-20.3,5.1-40.6,6.9-60.9c1.6-18.6,1.6-37.6-5.6-55.1c-0.4-0.9-1.8-0.5-1.5,0.4
			c7.4,18,7.2,37.5,5.4,56.5c-1.8,19.7-4.4,39.4-6.7,59.1C615.7,222.5,617.2,222.4,617.3,221.5L617.3,221.5z"/>
		<path class="st7" d="M616.6,222.2c20.8,0.8,41.5,2.4,62.3,3.2c1,0,1-1.5,0-1.5c-20.8-0.8-41.5-2.4-62.3-3.2
			C615.6,220.7,615.6,222.2,616.6,222.2z"/>
		<path class="st7" d="M679.7,224.5c-0.6-2.6,1.8-6.6,0.6-8.9c-0.8-1.4-2.4-1.2-3.6-1.9c-3.7-2.2-3-10.2-3.2-13.8
			c-0.2-4.4-0.2-8.7,0-13.1c0.5-9.3,2.3-18.8,6.7-27.2c2.1-4,4.8-8.7,9.4-9.7c3.3-0.7,6.8,0.2,10-0.8c4.9-1.7,8-7.1,12.5-9.7
			c6.6-3.6,13.5-6.4,20.7-8.5c17.3-5.1,35.9-4.3,52.7,2.4c17.4,7,31.6,20.1,40,36.8c0.4,0.9,1.7,0.1,1.3-0.8
			c-16.1-31.4-50.8-47.8-85.4-42c-9.1,1.5-18,4.9-26.3,8.9c-1.7,0.8-3.3,1.6-4.9,2.5c-3.6,2.2-5.8,5.7-9.2,8s-7.8,1-11.7,1.7
			c-2.9,0.5-4.8,2.1-6.6,4.5c-5.4,6.8-8.3,15.6-9.7,24c-1.7,10.2-1.5,20.8-0.4,31.1c0.3,2.8-0.2,5.6,2.6,6.9
			c0.4,0.2,1.1,0.2,1.5,0.5c2.3,1.7,1.4,3.1,1.4,5.1c0,1.7-0.3,2.7,0.1,4.5C678.4,225.8,679.9,225.4,679.7,224.5L679.7,224.5z"/>
	</g>
	<g id="rivets">
		<g>
			<g>
				<g>
					<g>
						<defs>
							<path id="SVGID_1_" d="M279.7,197.7L279.7,197.7c0.2,0.2,0.5,0.3,0.8,0.3l0,0C280.2,198,279.9,197.9,279.7,197.7z"/>
						</defs>
						<clipPath id="SVGID_2_">
							<use xlink:href="#SVGID_1_"  style="overflow:visible;"/>
						</clipPath>
						<g class="st8">
							<g>
								<path class="st9" d="M280.4,197.9L280.4,197.9c-0.3,0-0.6-0.1-0.8-0.3l0,0C279.9,197.8,280.1,197.9,280.4,197.9"/>
							</g>
						</g>
					</g>
				</g>
			</g>
			<g>
				<g>
					<g>
						<defs>
							<path id="SVGID_3_" d="M281.2,196.1L281.2,196.1c0.2,0.2,0.3,0.5,0.3,0.8l0,0C281.5,196.6,281.4,196.3,281.2,196.1z"/>
						</defs>
						<clipPath id="SVGID_4_">
							<use xlink:href="#SVGID_3_"  style="overflow:visible;"/>
						</clipPath>
						<g class="st10">
							<g>
								<path class="st11" d="M281.2,196.1L281.2,196.1c0.1,0.1,0.2,0.2,0.2,0.3l0,0C281.3,196.3,281.3,196.2,281.2,196.1"/>
								<path class="st12" d="M281.4,196.5L281.4,196.5c0,0.1,0,0.1,0.1,0.2l0,0C281.5,196.6,281.4,196.5,281.4,196.5"/>
								<path class="st13" d="M281.5,196.7L281.5,196.7c0,0.1,0,0.1,0,0.2l0,0C281.5,196.8,281.5,196.7,281.5,196.7"/>
								<path class="st14" d="M281.5,196.9L281.5,196.9L281.5,196.9L281.5,196.9L281.5,196.9"/>
							</g>
						</g>
					</g>
				</g>
			</g>
			<ellipse class="st15" cx="280.4" cy="196.9" rx="1" ry="1.1"/>
			<g>
				<g>
					<g>
						<defs>
							<path id="SVGID_5_" d="M281.5,196.9L281.5,196.9c0,0.6-0.4,1-0.9,1h-0.1l0,0c0.6,0,1-0.4,1-0.9
								C281.5,196.9,281.5,196.9,281.5,196.9z"/>
						</defs>
						<clipPath id="SVGID_6_">
							<use xlink:href="#SVGID_5_"  style="overflow:visible;"/>
						</clipPath>
						<g class="st16">
							<g>
								<path class="st14" d="M281.5,196.9L281.5,196.9v0.1l0,0V196.9"/>
								<path class="st17" d="M281.5,197L281.5,197c0,0.1,0,0.1,0,0.2l0,0C281.5,197.1,281.5,197.1,281.5,197"/>
								<path class="st18" d="M281.4,197.2L281.4,197.2c0,0.1,0,0.1-0.1,0.2l0,0C281.4,197.3,281.4,197.2,281.4,197.2"/>
								<path class="st9" d="M281.4,197.4L281.4,197.4c-0.2,0.4-0.5,0.6-0.9,0.6l0,0C280.8,197.9,281.2,197.7,281.4,197.4"/>
							</g>
						</g>
					</g>
				</g>
			</g>
		</g>
		<g>
			<g>
				<g>
					<g>
						<defs>
							<path id="SVGID_7_" d="M619,219.6L619,219.6c0.2,0.2,0.5,0.3,0.7,0.3l0,0C619.5,219.9,619.2,219.8,619,219.6z"/>
						</defs>
						<clipPath id="SVGID_8_">
							<use xlink:href="#SVGID_7_"  style="overflow:visible;"/>
						</clipPath>
						<g class="st19">
							<g>
								<path class="st9" d="M619.7,219.8L619.7,219.8c-0.3,0-0.5-0.1-0.7-0.3l0,0C619.1,219.7,619.4,219.8,619.7,219.8"/>
							</g>
						</g>
					</g>
				</g>
			</g>
			<g>
				<g>
					<g>
						<defs>
							<path id="SVGID_9_" d="M620.5,218L620.5,218c0.2,0.2,0.3,0.5,0.3,0.7l0,0C620.8,218.5,620.7,218.2,620.5,218z"/>
						</defs>
						<clipPath id="SVGID_10_">
							<use xlink:href="#SVGID_9_"  style="overflow:visible;"/>
						</clipPath>
						<g class="st20">
							<g>
								<path class="st11" d="M620.5,218L620.5,218c0.1,0.1,0.2,0.2,0.2,0.3l0,0C620.6,218.2,620.6,218.1,620.5,218"/>
								<path class="st12" d="M620.7,218.4L620.7,218.4c0,0.1,0,0.1,0.1,0.2l0,0C620.7,218.5,620.7,218.4,620.7,218.4"/>
								<path class="st13" d="M620.8,218.6L620.8,218.6c0,0.1,0,0.1,0,0.2l0,0C620.8,218.7,620.8,218.6,620.8,218.6"/>
								<path class="st14" d="M620.8,218.7L620.8,218.7L620.8,218.7L620.8,218.7L620.8,218.7"/>
							</g>
						</g>
					</g>
				</g>
			</g>
			<path class="st15" d="M619.7,217.7c0.6,0,1,0.5,1,1c0,0.6-0.5,1-1,1c-0.6,0-1.1-0.5-1.1-1l0,0
				C618.6,218.2,619.1,217.7,619.7,217.7z"/>
			<g>
				<g>
					<g>
						<defs>
							<path id="SVGID_11_" d="M620.8,218.8L620.8,218.8c0,0.6-0.5,1-1.1,1l0,0C620.3,219.8,620.8,219.3,620.8,218.8z"/>
						</defs>
						<clipPath id="SVGID_12_">
							<use xlink:href="#SVGID_11_"  style="overflow:visible;"/>
						</clipPath>
						<g class="st21">
							<g>
								<path class="st14" d="M620.8,218.8L620.8,218.8v0.1l0,0C620.8,218.9,620.8,218.8,620.8,218.8"/>
								<path class="st17" d="M620.8,218.9L620.8,218.9c0,0.1,0,0.1,0,0.2l0,0C620.8,219,620.8,219,620.8,218.9"/>
								<path class="st18" d="M620.7,219.1L620.7,219.1c0,0.1,0,0.1-0.1,0.2l0,0C620.7,219.2,620.7,219.1,620.7,219.1"/>
								<path class="st9" d="M620.7,219.2L620.7,219.2c-0.2,0.4-0.5,0.6-1,0.6l0,0C620.1,219.8,620.5,219.6,620.7,219.2"/>
							</g>
						</g>
					</g>
				</g>
			</g>
		</g>
		<g>
			<g>
				<g>
					<g>
						<defs>
							<path id="SVGID_13_" d="M623.5,184.2L623.5,184.2c0.2,0.2,0.5,0.3,0.7,0.3l0,0C624,184.5,623.7,184.4,623.5,184.2z"/>
						</defs>
						<clipPath id="SVGID_14_">
							<use xlink:href="#SVGID_13_"  style="overflow:visible;"/>
						</clipPath>
						<g class="st22">
							<g>
								<path class="st9" d="M624.2,184.5L624.2,184.5c-0.3,0-0.5-0.1-0.7-0.3l0,0C623.7,184.4,623.9,184.5,624.2,184.5"/>
							</g>
						</g>
					</g>
				</g>
			</g>
			<g>
				<g>
					<g>
						<defs>
							<path id="SVGID_15_" d="M625,182.7L625,182.7c0.2,0.2,0.3,0.5,0.3,0.7l0,0C625.3,183.2,625.2,182.9,625,182.7z"/>
						</defs>
						<clipPath id="SVGID_16_">
							<use xlink:href="#SVGID_15_"  style="overflow:visible;"/>
						</clipPath>
						<g class="st23">
							<g>
								<path class="st11" d="M625,182.7L625,182.7c0.1,0.1,0.2,0.2,0.2,0.3l0,0C625.1,182.9,625.1,182.8,625,182.7"/>
								<path class="st12" d="M625.2,183L625.2,183c0,0.1,0,0.1,0.1,0.2l0,0C625.2,183.2,625.2,183.1,625.2,183"/>
								<path class="st13" d="M625.2,183.2L625.2,183.2c0,0.1,0,0.1,0,0.2l0,0C625.3,183.4,625.3,183.3,625.2,183.2"/>
								<path class="st14" d="M625.3,183.4L625.3,183.4L625.3,183.4L625.3,183.4L625.3,183.4"/>
							</g>
						</g>
					</g>
				</g>
			</g>
			<path class="st15" d="M624.2,182.4c0.6,0,1.1,0.5,1.1,1s-0.5,1.1-1,1.1c-0.6,0-1.1-0.5-1.1-1l0,0
				C623.2,182.9,623.6,182.4,624.2,182.4z"/>
			<g>
				<g>
					<g>
						<defs>
							<path id="SVGID_17_" d="M625.3,183.4L625.3,183.4c0,0.6-0.5,1.1-1.1,1.1l0,0C624.8,184.5,625.3,184,625.3,183.4z"/>
						</defs>
						<clipPath id="SVGID_18_">
							<use xlink:href="#SVGID_17_"  style="overflow:visible;"/>
						</clipPath>
						<g class="st24">
							<g>
								<path class="st14" d="M625.3,183.4L625.3,183.4v0.1l0,0C625.3,183.5,625.3,183.5,625.3,183.4"/>
								<path class="st17" d="M625.3,183.6L625.3,183.6c0,0.1,0,0.1,0,0.2l0,0C625.3,183.7,625.3,183.6,625.3,183.6"/>
								<path class="st18" d="M625.2,183.7L625.2,183.7c0,0.1,0,0.1-0.1,0.2l0,0C625.2,183.9,625.2,183.8,625.2,183.7"/>
								<path class="st9" d="M625.2,183.9L625.2,183.9c-0.2,0.4-0.5,0.6-1,0.6l0,0C624.6,184.5,625,184.3,625.2,183.9"/>
							</g>
						</g>
					</g>
				</g>
			</g>
		</g>
		<g>
			<g>
				<g>
					<g>
						<defs>
							<path id="SVGID_19_" d="M626.7,149.1L626.7,149.1c0.2,0.2,0.5,0.3,0.8,0.3l0,0C627.1,149.4,626.9,149.3,626.7,149.1z"/>
						</defs>
						<clipPath id="SVGID_20_">
							<use xlink:href="#SVGID_19_"  style="overflow:visible;"/>
						</clipPath>
						<g class="st25">
							<g>
								<path class="st9" d="M627.3,149.3L627.3,149.3c-0.3,0-0.6-0.1-0.8-0.3l0,0C626.8,149.2,627,149.3,627.3,149.3"/>
							</g>
						</g>
					</g>
				</g>
			</g>
			<g>
				<g>
					<g>
						<defs>
							<path id="SVGID_21_" d="M628.1,147.5L628.1,147.5c0.2,0.2,0.3,0.5,0.3,0.8l0,0C628.4,148,628.3,147.7,628.1,147.5z"/>
						</defs>
						<clipPath id="SVGID_22_">
							<use xlink:href="#SVGID_21_"  style="overflow:visible;"/>
						</clipPath>
						<g class="st26">
							<g>
								<path class="st11" d="M628.1,147.5L628.1,147.5c0.1,0.1,0.2,0.2,0.2,0.3l0,0C628.2,147.7,628.2,147.6,628.1,147.5"/>
								<path class="st12" d="M628.3,147.9L628.3,147.9c0,0.1,0,0.1,0.1,0.2l0,0C628.3,148,628.3,147.9,628.3,147.9"/>
								<path class="st13" d="M628.3,148.1L628.3,148.1c0,0.1,0,0.1,0,0.2l0,0C628.4,148.2,628.4,148.1,628.3,148.1"/>
								<path class="st14" d="M628.4,148.2L628.4,148.2L628.4,148.2L628.4,148.2L628.4,148.2"/>
							</g>
						</g>
					</g>
				</g>
			</g>
			<ellipse class="st15" cx="627.3" cy="148.3" rx="1" ry="1.1"/>
			<g>
				<g>
					<g>
						<defs>
							<path id="SVGID_23_" d="M628.4,148.3L628.4,148.3c0,0.6-0.4,1-0.9,1h-0.1l0,0c0.6,0,1-0.4,1-0.9
								C628.4,148.3,628.4,148.3,628.4,148.3z"/>
						</defs>
						<clipPath id="SVGID_24_">
							<use xlink:href="#SVGID_23_"  style="overflow:visible;"/>
						</clipPath>
						<g class="st27">
							<g>
								<path class="st14" d="M628.4,148.3L628.4,148.3v0.1l0,0C628.4,148.4,628.4,148.3,628.4,148.3"/>
								<path class="st17" d="M628.4,148.4L628.4,148.4c0,0.1,0,0.1,0,0.2l0,0C628.4,148.5,628.4,148.5,628.4,148.4"/>
								<path class="st18" d="M628.3,148.6L628.3,148.6c0,0.1,0,0.1-0.1,0.2l0,0C628.3,148.7,628.3,148.6,628.3,148.6"/>
								<path class="st9" d="M628.3,148.8L628.3,148.8c-0.2,0.4-0.5,0.6-0.9,0.6l0,0C627.7,149.3,628.1,149.1,628.3,148.8"/>
							</g>
						</g>
					</g>
				</g>
			</g>
		</g>
		<g>
			<g>
				<g>
					<g>
						<defs>
							<path id="SVGID_25_" d="M621.5,109.7L621.5,109.7c0.2,0.2,0.5,0.3,0.7,0.3l0,0C622,110,621.7,109.9,621.5,109.7z"/>
						</defs>
						<clipPath id="SVGID_26_">
							<use xlink:href="#SVGID_25_"  style="overflow:visible;"/>
						</clipPath>
						<g class="st28">
							<g>
								<path class="st9" d="M622.2,110L622.2,110c-0.3,0-0.5-0.1-0.7-0.3l0,0C621.7,109.9,621.9,110,622.2,110"/>
							</g>
						</g>
					</g>
				</g>
			</g>
			<g>
				<g>
					<g>
						<defs>
							<path id="SVGID_27_" d="M623,108.2L623,108.2c0.2,0.2,0.3,0.5,0.3,0.7l0,0C623.3,108.7,623.2,108.4,623,108.2z"/>
						</defs>
						<clipPath id="SVGID_28_">
							<use xlink:href="#SVGID_27_"  style="overflow:visible;"/>
						</clipPath>
						<g class="st29">
							<g>
								<path class="st11" d="M623,108.2L623,108.2c0.1,0.1,0.2,0.2,0.2,0.3l0,0C623.1,108.4,623.1,108.3,623,108.2"/>
								<path class="st12" d="M623.2,108.6L623.2,108.6c0,0.1,0,0.1,0.1,0.2l0,0C623.2,108.7,623.2,108.6,623.2,108.6"/>
								<path class="st13" d="M623.2,108.7L623.2,108.7c0,0.1,0,0.1,0,0.2l0,0C623.3,108.9,623.3,108.8,623.2,108.7"/>
								<path class="st14" d="M623.3,108.9L623.3,108.9L623.3,108.9L623.3,108.9L623.3,108.9"/>
							</g>
						</g>
					</g>
				</g>
			</g>
			<circle class="st15" cx="622.2" cy="108.9" r="1.1"/>
			<g>
				<g>
					<g>
						<defs>
							<path id="SVGID_29_" d="M623.3,108.9L623.3,108.9c0,0.6-0.5,1.1-1.1,1.1l0,0C622.8,110,623.3,109.5,623.3,108.9z"/>
						</defs>
						<clipPath id="SVGID_30_">
							<use xlink:href="#SVGID_29_"  style="overflow:visible;"/>
						</clipPath>
						<g class="st30">
							<g>
								<path class="st14" d="M623.3,108.9L623.3,108.9L623.3,108.9L623.3,108.9C623.3,109,623.3,109,623.3,108.9"/>
								<path class="st17" d="M623.3,109.1L623.3,109.1c0,0.1,0,0.1,0,0.2l0,0C623.3,109.2,623.3,109.1,623.3,109.1"/>
								<path class="st18" d="M623.2,109.2L623.2,109.2c0,0.1,0,0.1-0.1,0.2l0,0C623.2,109.4,623.2,109.3,623.2,109.2"/>
								<path class="st9" d="M623.2,109.4L623.2,109.4c-0.2,0.4-0.5,0.6-1,0.6l0,0C622.6,110,623,109.8,623.2,109.4"/>
							</g>
						</g>
					</g>
				</g>
			</g>
		</g>
		<g>
			<g>
				<g>
					<g>
						<defs>
							<path id="SVGID_31_" d="M707.7,100.2L707.7,100.2c0.2,0.2,0.5,0.3,0.8,0.3l0,0C708.1,100.5,707.9,100.4,707.7,100.2z"/>
						</defs>
						<clipPath id="SVGID_32_">
							<use xlink:href="#SVGID_31_"  style="overflow:visible;"/>
						</clipPath>
						<g class="st31">
							<g>
								<path class="st9" d="M708.4,100.5L708.4,100.5c-0.3,0-0.6-0.1-0.8-0.3l0,0C707.8,100.4,708.1,100.5,708.4,100.5"/>
							</g>
						</g>
					</g>
				</g>
			</g>
			<g>
				<g>
					<g>
						<defs>
							<path id="SVGID_33_" d="M709.1,98.7L709.1,98.7c0.2,0.2,0.3,0.5,0.3,0.8l0,0C709.4,99.1,709.3,98.9,709.1,98.7z"/>
						</defs>
						<clipPath id="SVGID_34_">
							<use xlink:href="#SVGID_33_"  style="overflow:visible;"/>
						</clipPath>
						<g class="st32">
							<g>
								<path class="st11" d="M709.1,98.7L709.1,98.7c0.1,0.1,0.2,0.2,0.2,0.3l0,0C709.3,98.9,709.2,98.8,709.1,98.7"/>
								<path class="st12" d="M709.4,99L709.4,99c0,0.1,0,0.1,0.1,0.2l0,0C709.4,99.2,709.4,99.1,709.4,99"/>
								<path class="st13" d="M709.4,99.2L709.4,99.2c0,0.1,0,0.1,0,0.2l0,0C709.4,99.4,709.4,99.3,709.4,99.2"/>
								<path class="st14" d="M709.4,99.4L709.4,99.4L709.4,99.4L709.4,99.4L709.4,99.4"/>
							</g>
						</g>
					</g>
				</g>
			</g>
			<circle class="st15" cx="708.4" cy="99.4" r="1.1"/>
			<g>
				<g>
					<g>
						<defs>
							<path id="SVGID_35_" d="M709.4,99.4L709.4,99.4c0,0.6-0.5,1-1.1,1l0,0C709,100.5,709.4,100,709.4,99.4z"/>
						</defs>
						<clipPath id="SVGID_36_">
							<use xlink:href="#SVGID_35_"  style="overflow:visible;"/>
						</clipPath>
						<g class="st33">
							<g>
								<path class="st14" d="M709.4,99.4L709.4,99.4L709.4,99.4L709.4,99.4C709.4,99.5,709.4,99.5,709.4,99.4"/>
								<path class="st17" d="M709.4,99.6L709.4,99.6c0,0.1,0,0.1,0,0.2l0,0C709.4,99.7,709.4,99.6,709.4,99.6"/>
								<path class="st18" d="M709.4,99.7L709.4,99.7c0,0.1,0,0.1-0.1,0.2l0,0C709.3,99.9,709.4,99.8,709.4,99.7"/>
								<path class="st9" d="M709.3,99.9L709.3,99.9c-0.2,0.4-0.5,0.6-0.9,0.6l0,0C708.8,100.5,709.1,100.3,709.3,99.9"/>
							</g>
						</g>
					</g>
				</g>
			</g>
		</g>
		<g>
			<g>
				<g>
					<g>
						<defs>
							<path id="SVGID_37_" d="M747.3,97.7L747.3,97.7c0.2,0.2,0.5,0.3,0.8,0.3l0,0C747.8,98,747.5,97.9,747.3,97.7z"/>
						</defs>
						<clipPath id="SVGID_38_">
							<use xlink:href="#SVGID_37_"  style="overflow:visible;"/>
						</clipPath>
						<g class="st34">
							<g>
								<path class="st9" d="M748.1,98L748.1,98c-0.3,0-0.6-0.1-0.8-0.3l0,0C747.5,97.9,747.8,98,748.1,98"/>
							</g>
						</g>
					</g>
				</g>
			</g>
			<g>
				<g>
					<g>
						<defs>
							<path id="SVGID_39_" d="M748.8,96.2L748.8,96.2c0.2,0.2,0.3,0.5,0.3,0.7l0,0C749.1,96.7,749,96.4,748.8,96.2z"/>
						</defs>
						<clipPath id="SVGID_40_">
							<use xlink:href="#SVGID_39_"  style="overflow:visible;"/>
						</clipPath>
						<g class="st35">
							<g>
								<path class="st11" d="M748.8,96.2L748.8,96.2c0.1,0.1,0.2,0.2,0.2,0.3l0,0C749,96.4,748.9,96.3,748.8,96.2"/>
								<path class="st12" d="M749,96.6L749,96.6c0,0.1,0,0.1,0.1,0.2l0,0C749.1,96.7,749,96.6,749,96.6"/>
								<path class="st13" d="M749.1,96.7L749.1,96.7c0,0.1,0,0.1,0,0.2l0,0C749.1,96.9,749.1,96.8,749.1,96.7"/>
								<path class="st14" d="M749.1,96.9L749.1,96.9L749.1,96.9L749.1,96.9L749.1,96.9"/>
							</g>
						</g>
					</g>
				</g>
			</g>
			<path class="st15" d="M748.1,95.9c0.6,0,1,0.5,1,1.1s-0.5,1-1.1,1s-1-0.5-1-1C747,96.4,747.5,95.9,748.1,95.9
				C748,95.9,748,95.9,748.1,95.9z"/>
			<g>
				<g>
					<g>
						<defs>
							<path id="SVGID_41_" d="M749.1,96.9L749.1,96.9c0,0.6-0.5,1-1.1,1l0,0l0,0C748.6,98,749.1,97.5,749.1,96.9L749.1,96.9z"/>
						</defs>
						<clipPath id="SVGID_42_">
							<use xlink:href="#SVGID_41_"  style="overflow:visible;"/>
						</clipPath>
						<g class="st36">
							<g>
								<path class="st14" d="M749.1,96.9L749.1,96.9L749.1,96.9L749.1,96.9C749.1,97,749.1,97,749.1,96.9"/>
								<path class="st17" d="M749.1,97.1L749.1,97.1c0,0.1,0,0.1,0,0.2l0,0C749.1,97.2,749.1,97.1,749.1,97.1"/>
								<path class="st18" d="M749.1,97.2L749.1,97.2c0,0.1,0,0.1-0.1,0.2l0,0C749,97.4,749,97.3,749.1,97.2"/>
								<path class="st9" d="M749,97.4L749,97.4c-0.2,0.4-0.5,0.6-0.9,0.6l0,0C748.4,98,748.8,97.8,749,97.4"/>
							</g>
						</g>
					</g>
				</g>
			</g>
		</g>
		<g>
			<g>
				<g>
					<g>
						<defs>
							<path id="SVGID_43_" d="M787.8,105.1L787.8,105.1c0.2,0.2,0.3,0.5,0.3,0.8l0,0C788.1,105.5,788,105.3,787.8,105.1z"/>
						</defs>
						<clipPath id="SVGID_44_">
							<use xlink:href="#SVGID_43_"  style="overflow:visible;"/>
						</clipPath>
						<g class="st37">
							<g>
								<path class="st11" d="M787.8,105.1L787.8,105.1c0.1,0.1,0.2,0.2,0.2,0.3l0,0C788,105.3,787.9,105.2,787.8,105.1"/>
								<path class="st12" d="M788,105.4L788,105.4c0,0.1,0,0.1,0.1,0.2l0,0C788.1,105.6,788,105.5,788,105.4"/>
								<path class="st13" d="M788.1,105.6L788.1,105.6c0,0.1,0,0.1,0,0.2l0,0C788.1,105.7,788.1,105.7,788.1,105.6"/>
								<path class="st14" d="M788.1,105.8L788.1,105.8L788.1,105.8L788.1,105.8L788.1,105.8"/>
							</g>
						</g>
					</g>
				</g>
			</g>
			<g>
				<g>
					<g>
						<defs>
							<path id="SVGID_45_" d="M786.3,106.6L786.3,106.6c0.2,0.2,0.5,0.3,0.8,0.3l0,0C786.8,106.9,786.5,106.8,786.3,106.6z"/>
						</defs>
						<clipPath id="SVGID_46_">
							<use xlink:href="#SVGID_45_"  style="overflow:visible;"/>
						</clipPath>
						<g class="st38">
							<g>
								<path class="st9" d="M787,106.9L787,106.9c-0.3,0-0.6-0.1-0.8-0.3l0,0C786.5,106.8,786.8,106.9,787,106.9"/>
							</g>
						</g>
					</g>
				</g>
			</g>
			<ellipse class="st15" cx="787" cy="105.8" rx="1" ry="1.1"/>
			<g>
				<g>
					<g>
						<defs>
							<path id="SVGID_47_" d="M788.1,105.8L788.1,105.8c0,0.6-0.4,1-0.9,1h-0.1l0,0C787.7,106.8,788.1,106.4,788.1,105.8
								C788.1,105.9,788.1,105.9,788.1,105.8z"/>
						</defs>
						<clipPath id="SVGID_48_">
							<use xlink:href="#SVGID_47_"  style="overflow:visible;"/>
						</clipPath>
						<g class="st39">
							<g>
								<path class="st14" d="M788.1,105.8L788.1,105.8L788.1,105.8L788.1,105.8C788.1,105.9,788.1,105.9,788.1,105.8"/>
								<path class="st17" d="M788.1,106L788.1,106c0,0.1,0,0.1,0,0.2l0,0C788.1,106.1,788.1,106,788.1,106"/>
								<path class="st18" d="M788.1,106.1L788.1,106.1c0,0.1,0,0.1-0.1,0.2l0,0C788,106.3,788,106.2,788.1,106.1"/>
								<path class="st9" d="M788,106.3L788,106.3c-0.2,0.4-0.5,0.6-0.9,0.6l0,0C787.4,106.9,787.8,106.7,788,106.3"/>
							</g>
						</g>
					</g>
				</g>
			</g>
		</g>
		<g>
			<g>
				<g>
					<g>
						<defs>
							<path id="SVGID_49_" d="M821,123.3L821,123.3c0.2,0.2,0.5,0.3,0.8,0.3l0,0C821.5,123.6,821.2,123.5,821,123.3z"/>
						</defs>
						<clipPath id="SVGID_50_">
							<use xlink:href="#SVGID_49_"  style="overflow:visible;"/>
						</clipPath>
						<g class="st40">
							<g>
								<path class="st9" d="M821.7,123.6L821.7,123.6c-0.3,0-0.6-0.1-0.8-0.3l0,0C821.1,123.5,821.4,123.6,821.7,123.6"/>
							</g>
						</g>
					</g>
				</g>
			</g>
			<g>
				<g>
					<g>
						<defs>
							<path id="SVGID_51_" d="M822.5,121.7L822.5,121.7c0.2,0.2,0.3,0.5,0.3,0.8l0,0C822.8,122.2,822.6,121.9,822.5,121.7z"/>
						</defs>
						<clipPath id="SVGID_52_">
							<use xlink:href="#SVGID_51_"  style="overflow:visible;"/>
						</clipPath>
						<g class="st41">
							<g>
								<path class="st11" d="M822.5,121.7L822.5,121.7c0.1,0.1,0.2,0.2,0.2,0.3l0,0C822.6,122,822.5,121.8,822.5,121.7"/>
								<path class="st12" d="M822.7,122.1L822.7,122.1c0,0.1,0,0.1,0.1,0.2l0,0C822.7,122.2,822.7,122.2,822.7,122.1"/>
								<path class="st13" d="M822.8,122.3L822.8,122.3c0,0.1,0,0.1,0,0.2l0,0C822.8,122.4,822.8,122.4,822.8,122.3"/>
								<path class="st14" d="M822.8,122.5L822.8,122.5L822.8,122.5L822.8,122.5L822.8,122.5"/>
							</g>
						</g>
					</g>
				</g>
			</g>
			<circle class="st15" cx="821.7" cy="122.5" r="1.1"/>
			<g>
				<g>
					<g>
						<defs>
							<path id="SVGID_53_" d="M822.8,122.5L822.8,122.5c0,0.6-0.4,1-0.9,1h-0.1l0,0C822.4,123.5,822.8,123.1,822.8,122.5
								C822.8,122.6,822.8,122.5,822.8,122.5z"/>
						</defs>
						<clipPath id="SVGID_54_">
							<use xlink:href="#SVGID_53_"  style="overflow:visible;"/>
						</clipPath>
						<g class="st42">
							<g>
								<path class="st14" d="M822.8,122.5L822.8,122.5L822.8,122.5L822.8,122.5L822.8,122.5"/>
								<path class="st17" d="M822.8,122.6L822.8,122.6c0,0.1,0,0.1,0,0.2l0,0C822.8,122.7,822.8,122.7,822.8,122.6"/>
								<path class="st18" d="M822.7,122.8L822.7,122.8c0,0.1,0,0.1-0.1,0.2l0,0C822.7,122.9,822.7,122.9,822.7,122.8"/>
								<path class="st9" d="M822.7,123L822.7,123c-0.2,0.4-0.5,0.6-0.9,0.6l0,0C822.1,123.6,822.5,123.3,822.7,123"/>
							</g>
						</g>
					</g>
				</g>
			</g>
		</g>
		<g>
			<g>
				<g>
					<g>
						<defs>
							<path id="SVGID_55_" d="M839.8,139.9L839.8,139.9c0.2,0.2,0.5,0.3,0.7,0.3l0,0C840.3,140.2,840,140.1,839.8,139.9z"/>
						</defs>
						<clipPath id="SVGID_56_">
							<use xlink:href="#SVGID_55_"  style="overflow:visible;"/>
						</clipPath>
						<g class="st43">
							<g>
								<path class="st9" d="M840.5,140.2L840.5,140.2c-0.3,0-0.5-0.1-0.7-0.3l0,0C839.9,140.1,840.2,140.2,840.5,140.2"/>
							</g>
						</g>
					</g>
				</g>
			</g>
			<g>
				<g>
					<g>
						<defs>
							<path id="SVGID_57_" d="M841.2,138.4L841.2,138.4c0.2,0.2,0.3,0.5,0.3,0.7l0,0C841.6,138.8,841.4,138.6,841.2,138.4z"/>
						</defs>
						<clipPath id="SVGID_58_">
							<use xlink:href="#SVGID_57_"  style="overflow:visible;"/>
						</clipPath>
						<g class="st44">
							<g>
								<path class="st11" d="M841.2,138.4L841.2,138.4c0.1,0.1,0.2,0.2,0.2,0.3l0,0C841.4,138.6,841.3,138.5,841.2,138.4"/>
								<path class="st12" d="M841.5,138.7L841.5,138.7c0,0.1,0,0.1,0.1,0.2l0,0C841.5,138.8,841.5,138.8,841.5,138.7"/>
								<path class="st13" d="M841.5,138.9L841.5,138.9c0,0.1,0,0.1,0,0.2l0,0C841.5,139,841.5,139,841.5,138.9"/>
								<path class="st14" d="M841.6,139.1L841.6,139.1L841.6,139.1L841.6,139.1L841.6,139.1"/>
							</g>
						</g>
					</g>
				</g>
			</g>
			<circle class="st15" cx="840.5" cy="139.1" r="1.1"/>
			<g>
				<g>
					<g>
						<defs>
							<path id="SVGID_59_" d="M841.6,139.1L841.6,139.1c0,0.6-0.5,1.1-1.1,1.1l0,0l0,0C841.1,140.2,841.6,139.7,841.6,139.1
								L841.6,139.1z"/>
						</defs>
						<clipPath id="SVGID_60_">
							<use xlink:href="#SVGID_59_"  style="overflow:visible;"/>
						</clipPath>
						<g class="st45">
							<g>
								<path class="st14" d="M841.6,139.1L841.6,139.1v0.1l0,0C841.6,139.2,841.6,139.1,841.6,139.1"/>
								<path class="st17" d="M841.5,139.2L841.5,139.2c0,0.1,0,0.1,0,0.2l0,0C841.5,139.3,841.5,139.3,841.5,139.2"/>
								<path class="st18" d="M841.5,139.4L841.5,139.4c0,0.1,0,0.1-0.1,0.2l0,0C841.5,139.5,841.5,139.5,841.5,139.4"/>
								<path class="st9" d="M841.4,139.6L841.4,139.6c-0.2,0.4-0.5,0.6-0.9,0.6l0,0C840.9,140.2,841.2,139.9,841.4,139.6"/>
							</g>
						</g>
					</g>
				</g>
			</g>
		</g>
		<g>
			<g>
				<g>
					<g>
						<defs>
							<path id="SVGID_61_" d="M867.3,171.6L867.3,171.6c0.2,0.2,0.5,0.3,0.8,0.3l0,0C867.8,171.9,867.5,171.8,867.3,171.6z"/>
						</defs>
						<clipPath id="SVGID_62_">
							<use xlink:href="#SVGID_61_"  style="overflow:visible;"/>
						</clipPath>
						<g class="st46">
							<g>
								<path class="st9" d="M868,171.8L868,171.8c-0.3,0-0.6-0.1-0.8-0.3l0,0C867.5,171.7,867.8,171.8,868,171.8"/>
							</g>
						</g>
					</g>
				</g>
			</g>
			<g>
				<g>
					<g>
						<defs>
							<path id="SVGID_63_" d="M868.8,170L868.8,170c0.2,0.2,0.3,0.5,0.3,0.8l0,0C869.1,170.5,869,170.2,868.8,170z"/>
						</defs>
						<clipPath id="SVGID_64_">
							<use xlink:href="#SVGID_63_"  style="overflow:visible;"/>
						</clipPath>
						<g class="st47">
							<g>
								<path class="st11" d="M868.8,170L868.8,170c0.1,0.1,0.2,0.2,0.2,0.3l0,0C869,170.2,868.9,170.1,868.8,170"/>
								<path class="st12" d="M869,170.4L869,170.4c0,0.1,0,0.1,0.1,0.2l0,0C869.1,170.5,869,170.4,869,170.4"/>
								<path class="st13" d="M869.1,170.6L869.1,170.6c0,0.1,0,0.1,0,0.2l0,0C869.1,170.7,869.1,170.6,869.1,170.6"/>
								<path class="st14" d="M869.1,170.8L869.1,170.8L869.1,170.8L869.1,170.8L869.1,170.8"/>
							</g>
						</g>
					</g>
				</g>
			</g>
			<ellipse class="st15" cx="868" cy="170.8" rx="1" ry="1.1"/>
			<g>
				<g>
					<g>
						<defs>
							<path id="SVGID_65_" d="M869.1,170.8L869.1,170.8c0,0.6-0.4,1-0.9,1h-0.1l0,0c0.6,0,1-0.4,1.1-0.9
								C869.1,170.8,869.1,170.8,869.1,170.8z"/>
						</defs>
						<clipPath id="SVGID_66_">
							<use xlink:href="#SVGID_65_"  style="overflow:visible;"/>
						</clipPath>
						<g class="st48">
							<g>
								<path class="st14" d="M869.1,170.8L869.1,170.8v0.1l0,0C869.1,170.9,869.1,170.8,869.1,170.8"/>
								<path class="st17" d="M869.1,170.9L869.1,170.9c0,0.1,0,0.1,0,0.2l0,0C869.1,171,869.1,171,869.1,170.9"/>
								<path class="st18" d="M869.1,171.1L869.1,171.1c0,0.1,0,0.1-0.1,0.2l0,0C869,171.2,869,171.1,869.1,171.1"/>
								<path class="st9" d="M869,171.2L869,171.2c-0.2,0.4-0.5,0.6-0.9,0.6l0,0C868.4,171.8,868.8,171.6,869,171.2"/>
							</g>
						</g>
					</g>
				</g>
			</g>
		</g>
		<g>
			<g>
				<g>
					<g>
						<defs>
							<path id="SVGID_67_" d="M829.8,172.5L829.8,172.5c0.2,0.2,0.5,0.3,0.7,0.3l0,0C830.3,172.8,830,172.7,829.8,172.5z"/>
						</defs>
						<clipPath id="SVGID_68_">
							<use xlink:href="#SVGID_67_"  style="overflow:visible;"/>
						</clipPath>
						<g class="st49">
							<g>
								<path class="st9" d="M830.5,172.7L830.5,172.7c-0.3,0-0.5-0.1-0.7-0.3l0,0C830,172.6,830.3,172.7,830.5,172.7"/>
							</g>
						</g>
					</g>
				</g>
			</g>
			<g>
				<g>
					<g>
						<defs>
							<path id="SVGID_69_" d="M831.3,170.9L831.3,170.9c0.2,0.2,0.3,0.5,0.3,0.8l0,0C831.6,171.4,831.5,171.1,831.3,170.9z"/>
						</defs>
						<clipPath id="SVGID_70_">
							<use xlink:href="#SVGID_69_"  style="overflow:visible;"/>
						</clipPath>
						<g class="st50">
							<g>
								<path class="st11" d="M831.3,170.9L831.3,170.9c0.1,0.1,0.2,0.2,0.2,0.3l0,0C831.5,171.1,831.4,171,831.3,170.9"/>
								<path class="st12" d="M831.5,171.3L831.5,171.3c0,0.1,0,0.1,0.1,0.2l0,0C831.6,171.4,831.5,171.3,831.5,171.3"/>
								<path class="st13" d="M831.6,171.5L831.6,171.5c0,0.1,0,0.1,0,0.2l0,0C831.6,171.6,831.6,171.5,831.6,171.5"/>
								<path class="st14" d="M831.6,171.6L831.6,171.6L831.6,171.6L831.6,171.6L831.6,171.6"/>
							</g>
						</g>
					</g>
				</g>
			</g>
			<path class="st15" d="M830.5,170.6c0.6,0,1.1,0.5,1.1,1s-0.5,1.1-1.1,1.1s-1.1-0.5-1.1-1.1l0,0C829.5,171,830,170.6,830.5,170.6z
				"/>
			<g>
				<g>
					<g>
						<defs>
							<path id="SVGID_71_" d="M831.6,171.7L831.6,171.7c0,0.6-0.5,1.1-1.1,1l0,0C831.1,172.7,831.6,172.2,831.6,171.7z"/>
						</defs>
						<clipPath id="SVGID_72_">
							<use xlink:href="#SVGID_71_"  style="overflow:visible;"/>
						</clipPath>
						<g class="st51">
							<g>
								<path class="st14" d="M831.6,171.7L831.6,171.7v0.1l0,0V171.7"/>
								<path class="st17" d="M831.6,171.8L831.6,171.8c0,0.1,0,0.1,0,0.2l0,0C831.6,171.9,831.6,171.9,831.6,171.8"/>
								<path class="st18" d="M831.6,172L831.6,172c0,0.1,0,0.1-0.1,0.2l0,0C831.5,172.1,831.5,172,831.6,172"/>
								<path class="st9" d="M831.5,172.1L831.5,172.1c-0.2,0.4-0.5,0.6-0.9,0.6l0,0C830.9,172.7,831.3,172.5,831.5,172.1"/>
							</g>
						</g>
					</g>
				</g>
			</g>
		</g>
		<g>
			<g>
				<g>
					<g>
						<defs>
							<path id="SVGID_73_" d="M844.2,144.6L844.2,144.6c0.2,0.2,0.5,0.3,0.8,0.3l0,0C844.6,144.9,844.4,144.8,844.2,144.6z"/>
						</defs>
						<clipPath id="SVGID_74_">
							<use xlink:href="#SVGID_73_"  style="overflow:visible;"/>
						</clipPath>
						<g class="st52">
							<g>
								<path class="st9" d="M844.9,144.8L844.9,144.8c-0.3,0-0.6-0.1-0.8-0.3l0,0C844.3,144.7,844.6,144.8,844.9,144.8"/>
							</g>
						</g>
					</g>
				</g>
			</g>
			<g>
				<g>
					<g>
						<defs>
							<path id="SVGID_75_" d="M845.7,143L845.7,143c0.2,0.2,0.3,0.5,0.3,0.8l0,0C846,143.5,845.9,143.2,845.7,143z"/>
						</defs>
						<clipPath id="SVGID_76_">
							<use xlink:href="#SVGID_75_"  style="overflow:visible;"/>
						</clipPath>
						<g class="st53">
							<g>
								<path class="st11" d="M845.7,143L845.7,143c0.1,0.1,0.2,0.2,0.2,0.3l0,0C845.8,143.2,845.8,143.1,845.7,143"/>
								<path class="st12" d="M845.8,143.4L845.8,143.4c0,0.1,0,0.1,0.1,0.2l0,0C845.9,143.5,845.9,143.4,845.8,143.4"/>
								<path class="st13" d="M845.9,143.6L845.9,143.6c0,0.1,0,0.1,0,0.2l0,0C845.9,143.7,845.9,143.6,845.9,143.6"/>
								<path class="st14" d="M845.9,143.8L845.9,143.8L845.9,143.8L845.9,143.8L845.9,143.8"/>
							</g>
						</g>
					</g>
				</g>
			</g>
			<circle class="st15" cx="844.9" cy="143.8" r="1.1"/>
			<g>
				<g>
					<g>
						<defs>
							<path id="SVGID_77_" d="M845.9,143.8L845.9,143.8c0,0.6-0.4,1-0.9,1h-0.1l0,0c0.6,0,1-0.4,1.1-0.9
								C845.9,143.8,845.9,143.8,845.9,143.8z"/>
						</defs>
						<clipPath id="SVGID_78_">
							<use xlink:href="#SVGID_77_"  style="overflow:visible;"/>
						</clipPath>
						<g class="st54">
							<g>
								<path class="st14" d="M845.9,143.8L845.9,143.8v0.1l0,0C845.9,143.9,845.9,143.8,845.9,143.8"/>
								<path class="st17" d="M845.9,143.9L845.9,143.9c0,0.1,0,0.1,0,0.2l0,0C845.9,144,845.9,144,845.9,143.9"/>
								<path class="st18" d="M845.9,144.1L845.9,144.1c0,0.1,0,0.1-0.1,0.2l0,0C845.8,144.2,845.9,144.1,845.9,144.1"/>
								<path class="st9" d="M845.8,144.2L845.8,144.2c-0.2,0.4-0.5,0.6-0.9,0.6l0,0C845.3,144.8,845.6,144.6,845.8,144.2"/>
							</g>
						</g>
					</g>
				</g>
			</g>
		</g>
		<g>
			<g>
				<g>
					<g>
						<defs>
							<path id="SVGID_79_" d="M316.5,197.2L316.5,197.2c0.2,0.2,0.3,0.5,0.3,0.7l0,0C316.8,197.7,316.7,197.4,316.5,197.2z"/>
						</defs>
						<clipPath id="SVGID_80_">
							<use xlink:href="#SVGID_79_"  style="overflow:visible;"/>
						</clipPath>
						<g class="st55">
							<g>
								<path class="st11" d="M316.5,197.2L316.5,197.2c0.1,0.1,0.2,0.2,0.2,0.3l0,0C316.6,197.4,316.6,197.3,316.5,197.2"/>
								<path class="st12" d="M316.7,197.6L316.7,197.6c0,0.1,0,0.1,0.1,0.2l0,0C316.7,197.7,316.7,197.6,316.7,197.6"/>
								<path class="st13" d="M316.8,197.7L316.8,197.7c0,0.1,0,0.1,0,0.2l0,0C316.8,197.9,316.8,197.8,316.8,197.7"/>
								<path class="st14" d="M316.8,197.9L316.8,197.9L316.8,197.9L316.8,197.9L316.8,197.9"/>
							</g>
						</g>
					</g>
				</g>
			</g>
			<g>
				<g>
					<g>
						<defs>
							<path id="SVGID_81_" d="M315,198.7L315,198.7c0.2,0.2,0.5,0.3,0.8,0.3l0,0C315.5,199,315.2,198.9,315,198.7z"/>
						</defs>
						<clipPath id="SVGID_82_">
							<use xlink:href="#SVGID_81_"  style="overflow:visible;"/>
						</clipPath>
						<g class="st56">
							<g>
								<path class="st9" d="M315.7,199L315.7,199c-0.3,0-0.6-0.1-0.8-0.3l0,0C315.2,198.9,315.4,199,315.7,199"/>
							</g>
						</g>
					</g>
				</g>
			</g>
			<path class="st15" d="M315.7,196.9c0.6,0,1.1,0.5,1.1,1.1s-0.5,1.1-1.1,1.1s-1.1-0.5-1.1-1.1l0,0
				C314.6,197.4,315.1,196.9,315.7,196.9L315.7,196.9z"/>
			<g>
				<g>
					<g>
						<defs>
							<path id="SVGID_83_" d="M316.8,197.9L316.8,197.9c0,0.6-0.5,1.1-1,1.1l0,0C316.3,199,316.8,198.5,316.8,197.9z"/>
						</defs>
						<clipPath id="SVGID_84_">
							<use xlink:href="#SVGID_83_"  style="overflow:visible;"/>
						</clipPath>
						<g class="st57">
							<g>
								<path class="st14" d="M316.8,197.9L316.8,197.9v0.1l0,0C316.8,198,316.8,198,316.8,197.9"/>
								<path class="st17" d="M316.8,198.1L316.8,198.1c0,0.1,0,0.1,0,0.2l0,0C316.8,198.2,316.8,198.1,316.8,198.1"/>
								<path class="st18" d="M316.7,198.2L316.7,198.2c0,0.1,0,0.1-0.1,0.2l0,0C316.7,198.4,316.7,198.3,316.7,198.2"/>
								<path class="st9" d="M316.7,198.4L316.7,198.4c-0.2,0.4-0.5,0.6-0.9,0.6l0,0C316.1,199,316.5,198.8,316.7,198.4"/>
							</g>
						</g>
					</g>
				</g>
			</g>
		</g>
		<g>
			<g>
				<g>
					<g>
						<defs>
							<path id="SVGID_85_" d="M317.3,145.9L317.3,145.9c0.2,0.2,0.5,0.3,0.8,0.3l0,0C317.7,146.2,317.5,146.1,317.3,145.9z"/>
						</defs>
						<clipPath id="SVGID_86_">
							<use xlink:href="#SVGID_85_"  style="overflow:visible;"/>
						</clipPath>
						<g class="st58">
							<g>
								<path class="st9" d="M318,146.2L318,146.2c-0.3,0-0.6-0.1-0.8-0.3l0,0C317.4,146,317.7,146.2,318,146.2"/>
							</g>
						</g>
					</g>
				</g>
			</g>
			<g>
				<g>
					<g>
						<defs>
							<path id="SVGID_87_" d="M318.7,144.4L318.7,144.4c0.2,0.2,0.3,0.5,0.3,0.8l0,0C319,144.8,318.9,144.5,318.7,144.4z"/>
						</defs>
						<clipPath id="SVGID_88_">
							<use xlink:href="#SVGID_87_"  style="overflow:visible;"/>
						</clipPath>
						<g class="st59">
							<g>
								<path class="st11" d="M318.7,144.4L318.7,144.4c0.1,0.1,0.2,0.2,0.2,0.3l0,0C318.9,144.6,318.8,144.5,318.7,144.4"/>
								<path class="st12" d="M319,144.7L319,144.7c0,0.1,0,0.1,0.1,0.2l0,0C319,144.8,319,144.8,319,144.7"/>
								<path class="st13" d="M319,144.9L319,144.9c0,0.1,0,0.1,0,0.2l0,0C319,145,319,145,319,144.9"/>
								<path class="st14" d="M319,145.1L319,145.1L319,145.1L319,145.1L319,145.1"/>
							</g>
						</g>
					</g>
				</g>
			</g>
			<path class="st15" d="M318,144c0.6,0,1.1,0.5,1.1,1.1s-0.5,1.1-1.1,1.1s-1.1-0.5-1.1-1.1l0,0C316.9,144.5,317.4,144,318,144z"/>
			<g>
				<g>
					<g>
						<defs>
							<path id="SVGID_89_" d="M319,145.1L319,145.1c0,0.6-0.5,1-1,1l0,0C318.6,146.2,319,145.7,319,145.1z"/>
						</defs>
						<clipPath id="SVGID_90_">
							<use xlink:href="#SVGID_89_"  style="overflow:visible;"/>
						</clipPath>
						<g class="st60">
							<g>
								<path class="st14" d="M319,145.1L319,145.1v0.1l0,0C319,145.2,319,145.1,319,145.1"/>
								<path class="st17" d="M319,145.2L319,145.2c0,0.1,0,0.1,0,0.2l0,0C319,145.3,319,145.3,319,145.2"/>
								<path class="st18" d="M319,145.4L319,145.4c0,0.1,0,0.1-0.1,0.2l0,0C319,145.5,319,145.5,319,145.4"/>
								<path class="st9" d="M318.9,145.6L318.9,145.6c-0.2,0.4-0.5,0.6-0.9,0.6l0,0C318.4,146.1,318.8,145.9,318.9,145.6"/>
							</g>
						</g>
					</g>
				</g>
			</g>
		</g>
		<g>
			<g>
				<g>
					<g>
						<defs>
							<path id="SVGID_91_" d="M314.3,111.4L314.3,111.4c0.2,0.2,0.3,0.5,0.3,0.8l0,0C314.6,111.8,314.5,111.5,314.3,111.4z"/>
						</defs>
						<clipPath id="SVGID_92_">
							<use xlink:href="#SVGID_91_"  style="overflow:visible;"/>
						</clipPath>
						<g class="st61">
							<g>
								<path class="st11" d="M314.3,111.4L314.3,111.4c0.1,0.1,0.2,0.2,0.2,0.3l0,0C314.5,111.6,314.4,111.4,314.3,111.4"/>
								<path class="st12" d="M314.5,111.7L314.5,111.7c0,0.1,0,0.1,0.1,0.2l0,0C314.6,111.8,314.5,111.8,314.5,111.7"/>
								<path class="st13" d="M314.6,111.9L314.6,111.9c0,0.1,0,0.1,0,0.2l0,0C314.6,112,314.6,112,314.6,111.9"/>
								<path class="st14" d="M314.6,112.1L314.6,112.1L314.6,112.1L314.6,112.1L314.6,112.1"/>
							</g>
						</g>
					</g>
				</g>
			</g>
			<g>
				<g>
					<g>
						<defs>
							<path id="SVGID_93_" d="M312.8,112.9L312.8,112.9c0.2,0.2,0.5,0.3,0.8,0.3l0,0C313.3,113.2,313,113.1,312.8,112.9z"/>
						</defs>
						<clipPath id="SVGID_94_">
							<use xlink:href="#SVGID_93_"  style="overflow:visible;"/>
						</clipPath>
						<g class="st62">
							<g>
								<path class="st9" d="M313.5,113.2L313.5,113.2c-0.3,0-0.6-0.1-0.8-0.3l0,0C313,113,313.3,113.2,313.5,113.2"/>
							</g>
						</g>
					</g>
				</g>
			</g>
			<circle class="st15" cx="313.5" cy="112.1" r="1.1"/>
			<g>
				<g>
					<g>
						<defs>
							<path id="SVGID_95_" d="M314.6,112.1L314.6,112.1c0,0.6-0.5,1.1-1,1.1l0,0C314.1,113.2,314.6,112.7,314.6,112.1z"/>
						</defs>
						<clipPath id="SVGID_96_">
							<use xlink:href="#SVGID_95_"  style="overflow:visible;"/>
						</clipPath>
						<g class="st63">
							<g>
								<path class="st14" d="M314.6,112.1L314.6,112.1L314.6,112.1L314.6,112.1L314.6,112.1"/>
								<path class="st17" d="M314.6,112.2L314.6,112.2c0,0.1,0,0.1,0,0.2l0,0C314.6,112.3,314.6,112.3,314.6,112.2"/>
								<path class="st18" d="M314.6,112.4L314.6,112.4c0,0.1,0,0.1-0.1,0.2l0,0C314.5,112.5,314.5,112.5,314.6,112.4"/>
								<path class="st9" d="M314.5,112.6L314.5,112.6c-0.2,0.4-0.5,0.6-0.9,0.6l0,0C313.9,113.2,314.3,112.9,314.5,112.6"/>
							</g>
						</g>
					</g>
				</g>
			</g>
		</g>
		<g>
			<g>
				<g>
					<g>
						<defs>
							<path id="SVGID_97_" d="M281.2,104L281.2,104c0.2,0.2,0.5,0.3,0.7,0.3l0,0C281.6,104.3,281.4,104.2,281.2,104z"/>
						</defs>
						<clipPath id="SVGID_98_">
							<use xlink:href="#SVGID_97_"  style="overflow:visible;"/>
						</clipPath>
						<g class="st64">
							<g>
								<path class="st9" d="M281.9,104.3L281.9,104.3c-0.3,0-0.5-0.1-0.7-0.3l0,0C281.3,104.2,281.6,104.3,281.9,104.3"/>
							</g>
						</g>
					</g>
				</g>
			</g>
			<g>
				<g>
					<g>
						<defs>
							<path id="SVGID_99_" d="M282.7,102.5L282.7,102.5c0.2,0.2,0.3,0.5,0.3,0.7l0,0C283,102.9,282.9,102.7,282.7,102.5z"/>
						</defs>
						<clipPath id="SVGID_100_">
							<use xlink:href="#SVGID_99_"  style="overflow:visible;"/>
						</clipPath>
						<g class="st65">
							<g>
								<path class="st11" d="M282.7,102.5L282.7,102.5c0.1,0.1,0.2,0.2,0.2,0.3l0,0C282.8,102.7,282.8,102.6,282.7,102.5"/>
								<path class="st12" d="M282.9,102.8L282.9,102.8c0,0.1,0,0.1,0.1,0.2l0,0C282.9,102.9,282.9,102.9,282.9,102.8"/>
								<path class="st13" d="M282.9,103L282.9,103c0,0.1,0,0.1,0,0.2l0,0C282.9,103.1,282.9,103.1,282.9,103"/>
								<path class="st14" d="M282.9,103.2L282.9,103.2L282.9,103.2L282.9,103.2L282.9,103.2"/>
							</g>
						</g>
					</g>
				</g>
			</g>
			<path class="st15" d="M281.9,102.2c0.6,0,1.1,0.5,1.1,1c0,0.6-0.5,1.1-1,1.1c-0.6,0-1.1-0.5-1.1-1l0,0
				C280.8,102.6,281.3,102.2,281.9,102.2z"/>
			<g>
				<g>
					<g>
						<defs>
							<path id="SVGID_101_" d="M282.9,103.2L282.9,103.2c0,0.6-0.5,1.1-1.1,1.1l0,0C282.5,104.3,282.9,103.8,282.9,103.2z"/>
						</defs>
						<clipPath id="SVGID_102_">
							<use xlink:href="#SVGID_101_"  style="overflow:visible;"/>
						</clipPath>
						<g class="st66">
							<g>
								<path class="st14" d="M282.9,103.2L282.9,103.2L282.9,103.2L282.9,103.2C282.9,103.3,282.9,103.2,282.9,103.2"/>
								<path class="st17" d="M282.9,103.4L282.9,103.4c0,0.1,0,0.1,0,0.2l0,0C282.9,103.5,282.9,103.4,282.9,103.4"/>
								<path class="st18" d="M282.9,103.5L282.9,103.5c0,0.1,0,0.1-0.1,0.2l0,0C282.8,103.6,282.9,103.6,282.9,103.5"/>
								<path class="st9" d="M282.8,103.7L282.8,103.7c-0.2,0.4-0.5,0.6-1,0.6l0,0C282.3,104.3,282.6,104,282.8,103.7"/>
							</g>
						</g>
					</g>
				</g>
			</g>
		</g>
		<g>
			<g>
				<g>
					<g>
						<defs>
							<path id="SVGID_103_" d="M246.8,93L246.8,93c0.2,0.2,0.3,0.5,0.3,0.8l0,0C247.1,93.5,247,93.2,246.8,93z"/>
						</defs>
						<clipPath id="SVGID_104_">
							<use xlink:href="#SVGID_103_"  style="overflow:visible;"/>
						</clipPath>
						<g class="st67">
							<g>
								<path class="st11" d="M246.8,93L246.8,93c0.1,0.1,0.2,0.2,0.2,0.3l0,0C247,93.2,246.9,93.1,246.8,93"/>
								<path class="st12" d="M247,93.4L247,93.4c0,0.1,0,0.1,0.1,0.2l0,0C247.1,93.5,247,93.4,247,93.4"/>
								<path class="st13" d="M247.1,93.6L247.1,93.6c0,0.1,0,0.1,0,0.2l0,0C247.1,93.7,247.1,93.6,247.1,93.6"/>
								<path class="st14" d="M247.1,93.7L247.1,93.7L247.1,93.7L247.1,93.7L247.1,93.7"/>
							</g>
						</g>
					</g>
				</g>
			</g>
			<g>
				<g>
					<g>
						<defs>
							<path id="SVGID_105_" d="M245.3,94.6L245.3,94.6c0.2,0.2,0.5,0.3,0.8,0.3l0,0C245.8,94.9,245.5,94.8,245.3,94.6z"/>
						</defs>
						<clipPath id="SVGID_106_">
							<use xlink:href="#SVGID_105_"  style="overflow:visible;"/>
						</clipPath>
						<g class="st68">
							<g>
								<path class="st9" d="M246,94.8L246,94.8c-0.3,0-0.6-0.1-0.8-0.3l0,0C245.5,94.7,245.8,94.8,246,94.8"/>
							</g>
						</g>
					</g>
				</g>
			</g>
			<circle class="st15" cx="246" cy="93.8" r="1.1"/>
			<g>
				<g>
					<g>
						<defs>
							<path id="SVGID_107_" d="M247.1,93.8L247.1,93.8c0,0.6-0.5,1.1-1,1.1l0,0C246.6,94.8,247.1,94.3,247.1,93.8z"/>
						</defs>
						<clipPath id="SVGID_108_">
							<use xlink:href="#SVGID_107_"  style="overflow:visible;"/>
						</clipPath>
						<g class="st69">
							<g>
								<path class="st14" d="M247.1,93.8L247.1,93.8L247.1,93.8L247.1,93.8L247.1,93.8"/>
								<path class="st17" d="M247.1,93.9L247.1,93.9c0,0.1,0,0.1,0,0.2l0,0C247.1,94,247.1,94,247.1,93.9"/>
								<path class="st18" d="M247.1,94.1L247.1,94.1c0,0.1,0,0.1-0.1,0.2l0,0C247,94.2,247,94.1,247.1,94.1"/>
								<path class="st9" d="M247,94.2L247,94.2c-0.2,0.4-0.5,0.6-0.9,0.6l0,0C246.4,94.8,246.8,94.6,247,94.2"/>
							</g>
						</g>
					</g>
				</g>
			</g>
		</g>
		<g>
			<g>
				<g>
					<g>
						<defs>
							<path id="SVGID_109_" d="M212,83.7L212,83.7c0.2,0.2,0.3,0.5,0.3,0.7l0,0C212.3,84.2,212.2,83.9,212,83.7z"/>
						</defs>
						<clipPath id="SVGID_110_">
							<use xlink:href="#SVGID_109_"  style="overflow:visible;"/>
						</clipPath>
						<g class="st70">
							<g>
								<path class="st11" d="M212,83.7L212,83.7c0.1,0.1,0.2,0.2,0.2,0.3l0,0C212.1,83.9,212.1,83.8,212,83.7"/>
								<path class="st12" d="M212.2,84L212.2,84c0,0.1,0,0.1,0.1,0.2l0,0C212.2,84.2,212.2,84.1,212.2,84"/>
								<path class="st13" d="M212.2,84.2L212.2,84.2c0,0.1,0,0.1,0,0.2l0,0C212.3,84.4,212.3,84.3,212.2,84.2"/>
								<path class="st14" d="M212.3,84.4L212.3,84.4L212.3,84.4L212.3,84.4L212.3,84.4"/>
							</g>
						</g>
					</g>
				</g>
			</g>
			<g>
				<g>
					<g>
						<defs>
							<path id="SVGID_111_" d="M210.5,85.2L210.5,85.2c0.2,0.2,0.5,0.3,0.8,0.3l0,0C211,85.5,210.7,85.4,210.5,85.2z"/>
						</defs>
						<clipPath id="SVGID_112_">
							<use xlink:href="#SVGID_111_"  style="overflow:visible;"/>
						</clipPath>
						<g class="st71">
							<g>
								<path class="st9" d="M211.2,85.5L211.2,85.5c-0.3,0-0.6-0.1-0.8-0.3l0,0C210.7,85.4,210.9,85.5,211.2,85.5"/>
							</g>
						</g>
					</g>
				</g>
			</g>
			<path class="st15" d="M211.2,83.4c0.6,0,1.1,0.5,1.1,1.1s-0.5,1.1-1.1,1.1s-1.1-0.5-1.1-1.1l0,0
				C210.1,83.9,210.6,83.4,211.2,83.4L211.2,83.4z"/>
			<g>
				<g>
					<g>
						<defs>
							<path id="SVGID_113_" d="M212.3,84.4L212.3,84.4c0,0.6-0.4,1.1-1,1.1l0,0l0,0C211.8,85.5,212.3,85,212.3,84.4
								C212.3,84.5,212.3,84.4,212.3,84.4z"/>
						</defs>
						<clipPath id="SVGID_114_">
							<use xlink:href="#SVGID_113_"  style="overflow:visible;"/>
						</clipPath>
						<g class="st72">
							<g>
								<path class="st14" d="M212.3,84.4L212.3,84.4L212.3,84.4L212.3,84.4C212.3,84.5,212.3,84.5,212.3,84.4"/>
								<path class="st17" d="M212.3,84.6L212.3,84.6c0,0.1,0,0.1,0,0.2l0,0C212.3,84.7,212.3,84.6,212.3,84.6"/>
								<path class="st18" d="M212.2,84.7L212.2,84.7c0,0.1,0,0.1-0.1,0.2l0,0C212.2,84.9,212.2,84.8,212.2,84.7"/>
								<path class="st9" d="M212.1,84.9L212.1,84.9c-0.2,0.4-0.5,0.6-0.9,0.6l0,0C211.6,85.5,212,85.3,212.1,84.9"/>
							</g>
						</g>
					</g>
				</g>
			</g>
		</g>
		<g>
			<g>
				<g>
					<g>
						<defs>
							<path id="SVGID_115_" d="M176.3,80.9L176.3,80.9c0.2,0.2,0.3,0.5,0.3,0.7l0,0C176.6,81.3,176.5,81,176.3,80.9z"/>
						</defs>
						<clipPath id="SVGID_116_">
							<use xlink:href="#SVGID_115_"  style="overflow:visible;"/>
						</clipPath>
						<g class="st73">
							<g>
								<path class="st11" d="M176.3,80.9L176.3,80.9c0.1,0.1,0.2,0.2,0.2,0.3l0,0C176.5,81.1,176.4,81,176.3,80.9"/>
								<path class="st12" d="M176.5,81.2L176.5,81.2c0,0.1,0,0.1,0.1,0.2l0,0C176.6,81.3,176.5,81.3,176.5,81.2"/>
								<path class="st13" d="M176.6,81.4L176.6,81.4c0,0.1,0,0.1,0,0.2l0,0C176.6,81.5,176.6,81.5,176.6,81.4"/>
								<path class="st14" d="M176.6,81.6L176.6,81.6L176.6,81.6L176.6,81.6L176.6,81.6"/>
							</g>
						</g>
					</g>
				</g>
			</g>
			<g>
				<g>
					<g>
						<defs>
							<path id="SVGID_117_" d="M174.8,82.4L174.8,82.4c0.2,0.2,0.5,0.3,0.8,0.3l0,0C175.3,82.7,175,82.6,174.8,82.4z"/>
						</defs>
						<clipPath id="SVGID_118_">
							<use xlink:href="#SVGID_117_"  style="overflow:visible;"/>
						</clipPath>
						<g class="st74">
							<g>
								<path class="st9" d="M175.6,82.7L175.6,82.7c-0.3,0-0.6-0.1-0.8-0.3l0,0C175,82.5,175.3,82.7,175.6,82.7"/>
							</g>
						</g>
					</g>
				</g>
			</g>
			<path class="st15" d="M175.6,80.6c0.6,0,1.1,0.5,1.1,1.1s-0.5,1.1-1.1,1.1s-1.1-0.5-1.1-1.1l0,0C174.5,81,175,80.6,175.6,80.6
				C175.5,80.6,175.5,80.6,175.6,80.6z"/>
			<g>
				<g>
					<g>
						<defs>
							<path id="SVGID_119_" d="M176.6,81.6L176.6,81.6c0,0.6-0.5,1.1-1,1.1l0,0C176.1,82.6,176.6,82.2,176.6,81.6z"/>
						</defs>
						<clipPath id="SVGID_120_">
							<use xlink:href="#SVGID_119_"  style="overflow:visible;"/>
						</clipPath>
						<g class="st75">
							<g>
								<path class="st14" d="M176.6,81.6L176.6,81.6L176.6,81.6L176.6,81.6L176.6,81.6"/>
								<path class="st17" d="M176.6,81.7L176.6,81.7c0,0.1,0,0.1,0,0.2l0,0C176.6,81.8,176.6,81.8,176.6,81.7"/>
								<path class="st18" d="M176.6,81.9L176.6,81.9c0,0.1,0,0.1-0.1,0.2l0,0C176.5,82,176.5,82,176.6,81.9"/>
								<path class="st9" d="M176.5,82.1L176.5,82.1c-0.2,0.4-0.5,0.6-0.9,0.6l0,0C175.9,82.7,176.3,82.4,176.5,82.1"/>
							</g>
						</g>
					</g>
				</g>
			</g>
		</g>
		<g>
			<g>
				<g>
					<g>
						<defs>
							<path id="SVGID_121_" d="M139.8,84.7L139.8,84.7c0.2,0.2,0.5,0.3,0.8,0.3l0,0C140.3,85,140,84.9,139.8,84.7z"/>
						</defs>
						<clipPath id="SVGID_122_">
							<use xlink:href="#SVGID_121_"  style="overflow:visible;"/>
						</clipPath>
						<g class="st76">
							<g>
								<path class="st9" d="M140.6,85L140.6,85c-0.3,0-0.6-0.1-0.8-0.3l0,0C140,84.9,140.3,85,140.6,85"/>
							</g>
						</g>
					</g>
				</g>
			</g>
			<g>
				<g>
					<g>
						<defs>
							<path id="SVGID_123_" d="M141.3,83.2L141.3,83.2c0.2,0.2,0.3,0.5,0.3,0.8l0,0C141.6,83.6,141.5,83.4,141.3,83.2z"/>
						</defs>
						<clipPath id="SVGID_124_">
							<use xlink:href="#SVGID_123_"  style="overflow:visible;"/>
						</clipPath>
						<g class="st77">
							<g>
								<path class="st11" d="M141.3,83.2L141.3,83.2c0.1,0.1,0.2,0.2,0.2,0.3l0,0C141.5,83.4,141.4,83.3,141.3,83.2"/>
								<path class="st12" d="M141.5,83.6L141.5,83.6c0,0.1,0,0.1,0.1,0.2l0,0C141.6,83.7,141.5,83.6,141.5,83.6"/>
								<path class="st13" d="M141.6,83.7L141.6,83.7c0,0.1,0,0.1,0,0.2l0,0C141.6,83.9,141.6,83.8,141.6,83.7"/>
								<path class="st14" d="M141.6,83.9L141.6,83.9L141.6,83.9L141.6,83.9L141.6,83.9"/>
							</g>
						</g>
					</g>
				</g>
			</g>
			<path class="st15" d="M140.6,82.9c0.6,0,1.1,0.5,1.1,1.1s-0.5,1.1-1.1,1.1s-1.1-0.5-1.1-1.1l0,0C139.5,83.3,140,82.9,140.6,82.9z
				"/>
			<g>
				<g>
					<g>
						<defs>
							<path id="SVGID_125_" d="M141.6,83.9L141.6,83.9c0,0.6-0.5,1-1,1l0,0C141.1,85,141.6,84.5,141.6,83.9z"/>
						</defs>
						<clipPath id="SVGID_126_">
							<use xlink:href="#SVGID_125_"  style="overflow:visible;"/>
						</clipPath>
						<g class="st78">
							<g>
								<path class="st14" d="M141.6,83.9L141.6,83.9L141.6,83.9L141.6,83.9C141.6,84,141.6,84,141.6,83.9"/>
								<path class="st17" d="M141.6,84.1L141.6,84.1c0,0.1,0,0.1,0,0.2l0,0C141.6,84.2,141.6,84.1,141.6,84.1"/>
								<path class="st18" d="M141.6,84.2L141.6,84.2c0,0.1,0,0.1-0.1,0.2l0,0C141.5,84.4,141.5,84.3,141.6,84.2"/>
								<path class="st9" d="M141.5,84.4L141.5,84.4c-0.2,0.4-0.5,0.6-0.9,0.6l0,0C140.9,85,141.3,84.8,141.5,84.4"/>
							</g>
						</g>
					</g>
				</g>
			</g>
		</g>
		<g>
			<g>
				<g>
					<g>
						<defs>
							<path id="SVGID_127_" d="M101.7,87L101.7,87c0.2,0.2,0.5,0.3,0.8,0.3l0,0C102.1,87.4,101.9,87.2,101.7,87z"/>
						</defs>
						<clipPath id="SVGID_128_">
							<use xlink:href="#SVGID_127_"  style="overflow:visible;"/>
						</clipPath>
						<g class="st79">
							<g>
								<path class="st9" d="M102.4,87.3L102.4,87.3c-0.3,0-0.6-0.1-0.8-0.3l0,0C101.8,87.2,102.1,87.3,102.4,87.3"/>
							</g>
						</g>
					</g>
				</g>
			</g>
			<g>
				<g>
					<g>
						<defs>
							<path id="SVGID_129_" d="M103.1,85.5L103.1,85.5c0.2,0.2,0.3,0.5,0.3,0.8l0,0C103.4,86,103.3,85.7,103.1,85.5z"/>
						</defs>
						<clipPath id="SVGID_130_">
							<use xlink:href="#SVGID_129_"  style="overflow:visible;"/>
						</clipPath>
						<g class="st80">
							<g>
								<path class="st11" d="M103.1,85.5L103.1,85.5c0.1,0.1,0.2,0.2,0.2,0.3l0,0C103.3,85.7,103.2,85.6,103.1,85.5"/>
								<path class="st12" d="M103.4,85.9L103.4,85.9c0,0.1,0,0.1,0.1,0.2l0,0C103.4,86,103.4,85.9,103.4,85.9"/>
								<path class="st13" d="M103.4,86.1L103.4,86.1c0,0.1,0,0.1,0,0.2l0,0C103.4,86.2,103.4,86.1,103.4,86.1"/>
								<path class="st14" d="M103.4,86.2L103.4,86.2L103.4,86.2L103.4,86.2L103.4,86.2"/>
							</g>
						</g>
					</g>
				</g>
			</g>
			<circle class="st15" cx="102.4" cy="86.3" r="1.1"/>
			<g>
				<g>
					<g>
						<defs>
							<path id="SVGID_131_" d="M103.4,86.3L103.4,86.3c0,0.6-0.4,1-0.9,1h-0.1l0,0C103,87.3,103.4,86.9,103.4,86.3
								C103.4,86.3,103.4,86.3,103.4,86.3z"/>
						</defs>
						<clipPath id="SVGID_132_">
							<use xlink:href="#SVGID_131_"  style="overflow:visible;"/>
						</clipPath>
						<g class="st81">
							<g>
								<path class="st14" d="M103.4,86.3L103.4,86.3L103.4,86.3L103.4,86.3L103.4,86.3"/>
								<path class="st17" d="M103.4,86.4L103.4,86.4c0,0.1,0,0.1,0,0.2l0,0C103.4,86.5,103.4,86.5,103.4,86.4"/>
								<path class="st18" d="M103.4,86.6L103.4,86.6c0,0.1,0,0.1-0.1,0.2l0,0C103.3,86.7,103.4,86.6,103.4,86.6"/>
								<path class="st9" d="M103.3,86.8L103.3,86.8c-0.2,0.4-0.5,0.6-0.9,0.6l0,0C102.8,87.3,103.1,87.1,103.3,86.8"/>
							</g>
						</g>
					</g>
				</g>
			</g>
		</g>
		<g>
			<g>
				<g>
					<g>
						<defs>
							<path id="SVGID_133_" d="M90,108.2L90,108.2c0.2,0.2,0.3,0.5,0.3,0.8l0,0C90.3,108.6,90.2,108.4,90,108.2z"/>
						</defs>
						<clipPath id="SVGID_134_">
							<use xlink:href="#SVGID_133_"  style="overflow:visible;"/>
						</clipPath>
						<g class="st82">
							<g>
								<path class="st11" d="M90,108.2L90,108.2c0.1,0.1,0.2,0.2,0.2,0.3l0,0C90.1,108.4,90.1,108.3,90,108.2"/>
								<path class="st12" d="M90.2,108.6L90.2,108.6c0,0.1,0,0.1,0.1,0.2l0,0C90.2,108.7,90.2,108.6,90.2,108.6"/>
								<path class="st13" d="M90.2,108.7L90.2,108.7c0,0.1,0,0.1,0,0.2l0,0C90.2,108.8,90.2,108.8,90.2,108.7"/>
								<path class="st14" d="M90.3,108.9L90.3,108.9L90.3,108.9L90.3,108.9L90.3,108.9"/>
							</g>
						</g>
					</g>
				</g>
			</g>
			<g>
				<g>
					<g>
						<defs>
							<path id="SVGID_135_" d="M88.5,109.7L88.5,109.7c0.2,0.2,0.5,0.3,0.7,0.3l0,0C89,110,88.7,109.9,88.5,109.7z"/>
						</defs>
						<clipPath id="SVGID_136_">
							<use xlink:href="#SVGID_135_"  style="overflow:visible;"/>
						</clipPath>
						<g class="st83">
							<g>
								<path class="st9" d="M89.2,110L89.2,110c-0.3,0-0.5-0.1-0.7-0.3l0,0C88.7,109.9,88.9,110,89.2,110"/>
							</g>
						</g>
					</g>
				</g>
			</g>
			<ellipse class="st15" cx="89.2" cy="108.9" rx="1.1" ry="1.1"/>
			<g>
				<g>
					<g>
						<defs>
							<path id="SVGID_137_" d="M90.3,108.9L90.3,108.9c0,0.6-0.5,1.1-1,1.1l0,0C89.8,110,90.3,109.5,90.3,108.9z"/>
						</defs>
						<clipPath id="SVGID_138_">
							<use xlink:href="#SVGID_137_"  style="overflow:visible;"/>
						</clipPath>
						<g class="st84">
							<g>
								<path class="st14" d="M90.3,108.9L90.3,108.9L90.3,108.9L90.3,108.9C90.3,109,90.3,109,90.3,108.9"/>
								<path class="st17" d="M90.2,109.1L90.2,109.1c0,0.1,0,0.1,0,0.2l0,0C90.3,109.2,90.3,109.1,90.2,109.1"/>
								<path class="st18" d="M90.2,109.2L90.2,109.2c0,0.1,0,0.1-0.1,0.2l0,0C90.2,109.4,90.2,109.3,90.2,109.2"/>
								<path class="st9" d="M90.1,109.4L90.1,109.4c-0.2,0.4-0.5,0.6-0.9,0.6l0,0C89.6,110,90,109.8,90.1,109.4"/>
							</g>
						</g>
					</g>
				</g>
			</g>
		</g>
		<g>
			<g>
				<g>
					<g>
						<defs>
							<path id="SVGID_139_" d="M128.7,137.1L128.7,137.1c0.2,0.2,0.5,0.3,0.8,0.3l0,0C129.1,137.4,128.9,137.3,128.7,137.1z"/>
						</defs>
						<clipPath id="SVGID_140_">
							<use xlink:href="#SVGID_139_"  style="overflow:visible;"/>
						</clipPath>
						<g class="st85">
							<g>
								<path class="st9" d="M129.4,137.4L129.4,137.4c-0.3,0-0.6-0.1-0.8-0.3l0,0C128.8,137.2,129.1,137.4,129.4,137.4"/>
							</g>
						</g>
					</g>
				</g>
			</g>
			<g>
				<g>
					<g>
						<defs>
							<path id="SVGID_141_" d="M130.1,135.6L130.1,135.6c0.2,0.2,0.3,0.5,0.3,0.8l0,0C130.4,136,130.3,135.8,130.1,135.6z"/>
						</defs>
						<clipPath id="SVGID_142_">
							<use xlink:href="#SVGID_141_"  style="overflow:visible;"/>
						</clipPath>
						<g class="st86">
							<g>
								<path class="st11" d="M130.1,135.6L130.1,135.6c0.1,0.1,0.2,0.2,0.2,0.3l0,0C130.3,135.8,130.2,135.7,130.1,135.6"/>
								<path class="st12" d="M130.4,135.9L130.4,135.9c0,0.1,0,0.1,0.1,0.2l0,0C130.4,136,130.4,136,130.4,135.9"/>
								<path class="st13" d="M130.4,136.1L130.4,136.1c0,0.1,0,0.1,0,0.2l0,0C130.4,136.2,130.4,136.2,130.4,136.1"/>
								<path class="st14" d="M130.4,136.3L130.4,136.3L130.4,136.3L130.4,136.3L130.4,136.3"/>
							</g>
						</g>
					</g>
				</g>
			</g>
			<ellipse class="st15" cx="129.4" cy="136.3" rx="1.1" ry="1.1"/>
			<g>
				<g>
					<g>
						<defs>
							<path id="SVGID_143_" d="M130.4,136.3L130.4,136.3c0,0.6-0.4,1-0.9,1h-0.1l0,0c0.6,0,1-0.4,1-0.9
								C130.4,136.4,130.4,136.3,130.4,136.3z"/>
						</defs>
						<clipPath id="SVGID_144_">
							<use xlink:href="#SVGID_143_"  style="overflow:visible;"/>
						</clipPath>
						<g class="st87">
							<g>
								<path class="st14" d="M130.4,136.3L130.4,136.3v0.1l0,0C130.4,136.4,130.4,136.4,130.4,136.3"/>
								<path class="st17" d="M130.4,136.5L130.4,136.5c0,0.1,0,0.1,0,0.2l0,0C130.4,136.6,130.4,136.5,130.4,136.5"/>
								<path class="st18" d="M130.4,136.6L130.4,136.6c0,0.1,0,0.1-0.1,0.2l0,0C130.3,136.7,130.4,136.6,130.4,136.6"/>
								<path class="st9" d="M130.3,136.8L130.3,136.8c-0.2,0.4-0.5,0.6-0.9,0.6l0,0C129.8,137.4,130.1,137.2,130.3,136.8"/>
							</g>
						</g>
					</g>
				</g>
			</g>
		</g>
		<g>
			<g>
				<g>
					<g>
						<defs>
							<path id="SVGID_145_" d="M95.3,157.3L95.3,157.3c0.2,0.2,0.5,0.3,0.8,0.3l0,0C95.7,157.6,95.5,157.5,95.3,157.3z"/>
						</defs>
						<clipPath id="SVGID_146_">
							<use xlink:href="#SVGID_145_"  style="overflow:visible;"/>
						</clipPath>
						<g class="st88">
							<g>
								<path class="st9" d="M96,157.6L96,157.6c-0.3,0-0.6-0.1-0.8-0.3l0,0C95.4,157.5,95.7,157.6,96,157.6"/>
							</g>
						</g>
					</g>
				</g>
			</g>
			<g>
				<g>
					<g>
						<defs>
							<path id="SVGID_147_" d="M96.7,155.8L96.7,155.8c0.2,0.2,0.3,0.5,0.3,0.8l0,0C97,156.3,96.9,156,96.7,155.8z"/>
						</defs>
						<clipPath id="SVGID_148_">
							<use xlink:href="#SVGID_147_"  style="overflow:visible;"/>
						</clipPath>
						<g class="st89">
							<g>
								<path class="st11" d="M96.7,155.8L96.7,155.8c0.1,0.1,0.2,0.2,0.2,0.3l0,0C96.9,156,96.8,155.9,96.7,155.8"/>
								<path class="st12" d="M97,156.1L97,156.1c0,0.1,0,0.1,0.1,0.2l0,0C97,156.3,97,156.2,97,156.1"/>
								<path class="st13" d="M97,156.4L97,156.4c0,0.1,0,0.1,0,0.2l0,0C97,156.5,97,156.4,97,156.4"/>
								<path class="st14" d="M97,156.6L97,156.6L97,156.6L97,156.6L97,156.6"/>
							</g>
						</g>
					</g>
				</g>
			</g>
			<circle class="st15" cx="96" cy="156.6" r="1.1"/>
			<g>
				<g>
					<g>
						<defs>
							<path id="SVGID_149_" d="M97,156.6L97,156.6c0,0.6-0.4,1-0.9,1H96l0,0c0.6,0,1-0.4,1-0.9C97,156.6,97,156.6,97,156.6z"/>
						</defs>
						<clipPath id="SVGID_150_">
							<use xlink:href="#SVGID_149_"  style="overflow:visible;"/>
						</clipPath>
						<g class="st90">
							<g>
								<path class="st14" d="M97,156.6L97,156.6v0.1l0,0C97,156.7,97,156.6,97,156.6"/>
								<path class="st17" d="M97,156.7L97,156.7c0,0.1,0,0.1,0,0.2l0,0C97,156.8,97,156.7,97,156.7"/>
								<path class="st18" d="M97,156.9L97,156.9c0,0.1,0,0.1-0.1,0.2l0,0C96.9,157,97,156.9,97,156.9"/>
								<path class="st9" d="M96.9,157L96.9,157c-0.2,0.4-0.5,0.6-0.9,0.6l0,0C96.4,157.6,96.7,157.4,96.9,157"/>
							</g>
						</g>
					</g>
				</g>
			</g>
		</g>
		<g>
			<g>
				<g>
					<g>
						<defs>
							<path id="SVGID_151_" d="M78.2,141L78.2,141c0.2,0.2,0.5,0.3,0.8,0.3l0,0C78.6,141.4,78.4,141.2,78.2,141z"/>
						</defs>
						<clipPath id="SVGID_152_">
							<use xlink:href="#SVGID_151_"  style="overflow:visible;"/>
						</clipPath>
						<g class="st91">
							<g>
								<path class="st9" d="M78.9,141.3L78.9,141.3c-0.3,0-0.6-0.1-0.8-0.3l0,0C78.3,141.2,78.6,141.3,78.9,141.3"/>
							</g>
						</g>
					</g>
				</g>
			</g>
			<g>
				<g>
					<g>
						<defs>
							<path id="SVGID_153_" d="M79.7,139.5L79.7,139.5c0.2,0.2,0.3,0.5,0.3,0.8l0,0C80,140,79.9,139.7,79.7,139.5z"/>
						</defs>
						<clipPath id="SVGID_154_">
							<use xlink:href="#SVGID_153_"  style="overflow:visible;"/>
						</clipPath>
						<g class="st92">
							<g>
								<path class="st11" d="M79.7,139.5L79.7,139.5c0.1,0.1,0.2,0.2,0.2,0.3l0,0C79.8,139.7,79.8,139.6,79.7,139.5"/>
								<path class="st12" d="M79.9,139.9L79.9,139.9c0,0.1,0,0.1,0.1,0.2l0,0C79.9,140,79.9,139.9,79.9,139.9"/>
								<path class="st13" d="M79.9,140.1L79.9,140.1c0,0.1,0,0.1,0,0.2l0,0C79.9,140.2,79.9,140.1,79.9,140.1"/>
								<path class="st14" d="M79.9,140.2L79.9,140.2L79.9,140.2L79.9,140.2L79.9,140.2"/>
							</g>
						</g>
					</g>
				</g>
			</g>
			<circle class="st15" cx="78.9" cy="140.3" r="1.1"/>
			<g>
				<g>
					<g>
						<defs>
							<path id="SVGID_155_" d="M79.9,140.3L79.9,140.3c0,0.6-0.4,1-0.9,1h-0.1l0,0c0.6,0,1-0.4,1-0.9
								C79.9,140.3,79.9,140.3,79.9,140.3z"/>
						</defs>
						<clipPath id="SVGID_156_">
							<use xlink:href="#SVGID_155_"  style="overflow:visible;"/>
						</clipPath>
						<g class="st93">
							<g>
								<path class="st14" d="M79.9,140.3L79.9,140.3v0.1l0,0C79.9,140.4,79.9,140.3,79.9,140.3"/>
								<path class="st17" d="M79.9,140.4L79.9,140.4c0,0.1,0,0.1,0,0.2l0,0C79.9,140.5,79.9,140.5,79.9,140.4"/>
								<path class="st18" d="M79.9,140.6L79.9,140.6c0,0.1,0,0.1-0.1,0.2l0,0C79.8,140.7,79.9,140.6,79.9,140.6"/>
								<path class="st9" d="M79.8,140.8L79.8,140.8c-0.2,0.4-0.5,0.6-0.9,0.6l0,0C79.3,141.3,79.6,141.1,79.8,140.8"/>
							</g>
						</g>
					</g>
				</g>
			</g>
		</g>
		<g>
			<g>
				<g>
					<g>
						<defs>
							<path id="SVGID_157_" d="M86,116.6L86,116.6c0.2,0.2,0.5,0.3,0.7,0.3l0,0C86.5,116.9,86.2,116.8,86,116.6z"/>
						</defs>
						<clipPath id="SVGID_158_">
							<use xlink:href="#SVGID_157_"  style="overflow:visible;"/>
						</clipPath>
						<g class="st94">
							<g>
								<path class="st9" d="M86.7,116.8L86.7,116.8c-0.3,0-0.5-0.1-0.7-0.3l0,0C86.1,116.7,86.4,116.8,86.7,116.8"/>
							</g>
						</g>
					</g>
				</g>
			</g>
			<g>
				<g>
					<g>
						<defs>
							<path id="SVGID_159_" d="M87.5,115L87.5,115c0.2,0.2,0.3,0.5,0.3,0.8l0,0C87.8,115.5,87.7,115.2,87.5,115z"/>
						</defs>
						<clipPath id="SVGID_160_">
							<use xlink:href="#SVGID_159_"  style="overflow:visible;"/>
						</clipPath>
						<g class="st95">
							<g>
								<path class="st11" d="M87.5,115L87.5,115c0.1,0.1,0.2,0.2,0.2,0.3l0,0C87.6,115.2,87.6,115.1,87.5,115"/>
								<path class="st12" d="M87.7,115.4L87.7,115.4c0,0.1,0,0.1,0.1,0.2l0,0C87.7,115.5,87.7,115.4,87.7,115.4"/>
								<path class="st13" d="M87.8,115.6L87.8,115.6c0,0.1,0,0.1,0,0.2l0,0C87.8,115.7,87.8,115.6,87.8,115.6"/>
								<path class="st14" d="M87.8,115.8L87.8,115.8L87.8,115.8L87.8,115.8L87.8,115.8"/>
							</g>
						</g>
					</g>
				</g>
			</g>
			<path class="st15" d="M86.7,114.7c0.6,0,1.1,0.4,1.1,1s-0.4,1.1-1,1.1s-1.1-0.4-1.1-1c0,0,0,0,0-0.1
				C85.7,115.2,86.1,114.7,86.7,114.7z"/>
			<g>
				<g>
					<g>
						<defs>
							<path id="SVGID_161_" d="M87.8,115.8L87.8,115.8c0,0.6-0.5,1-1.1,1l0,0C87.3,116.8,87.8,116.4,87.8,115.8z"/>
						</defs>
						<clipPath id="SVGID_162_">
							<use xlink:href="#SVGID_161_"  style="overflow:visible;"/>
						</clipPath>
						<g class="st96">
							<g>
								<path class="st14" d="M87.8,115.8L87.8,115.8L87.8,115.8L87.8,115.8L87.8,115.8"/>
								<path class="st17" d="M87.8,115.9L87.8,115.9c0,0.1,0,0.1,0,0.2l0,0C87.8,116,87.8,116,87.8,115.9"/>
								<path class="st18" d="M87.7,116.1L87.7,116.1c0,0.1,0,0.1-0.1,0.2l0,0C87.7,116.2,87.7,116.1,87.7,116.1"/>
								<path class="st9" d="M87.7,116.2L87.7,116.2c-0.2,0.4-0.5,0.6-1,0.6l0,0C87.1,116.8,87.5,116.6,87.7,116.2"/>
							</g>
						</g>
					</g>
				</g>
			</g>
		</g>
		<g>
			<g>
				<g>
					<g>
						<defs>
							<path id="SVGID_163_" d="M109.5,166.4L109.5,166.4c0.2,0.2,0.3,0.5,0.3,0.7l0,0C109.8,166.8,109.7,166.5,109.5,166.4z"/>
						</defs>
						<clipPath id="SVGID_164_">
							<use xlink:href="#SVGID_163_"  style="overflow:visible;"/>
						</clipPath>
						<g class="st97">
							<g>
								<path class="st11" d="M109.5,166.4L109.5,166.4c0.1,0.1,0.2,0.2,0.2,0.3l0,0C109.6,166.6,109.6,166.5,109.5,166.4"/>
								<path class="st12" d="M109.7,166.7L109.7,166.7c0,0.1,0,0.1,0.1,0.2l0,0C109.7,166.8,109.7,166.8,109.7,166.7"/>
								<path class="st13" d="M109.8,166.9L109.8,166.9c0,0.1,0,0.1,0,0.2l0,0C109.8,167,109.8,167,109.8,166.9"/>
								<path class="st14" d="M109.8,167.1L109.8,167.1L109.8,167.1L109.8,167.1L109.8,167.1"/>
							</g>
						</g>
					</g>
				</g>
			</g>
			<g>
				<g>
					<g>
						<defs>
							<path id="SVGID_165_" d="M108,167.9L108,167.9c0.2,0.2,0.5,0.3,0.8,0.3l0,0C108.5,168.2,108.2,168.1,108,167.9z"/>
						</defs>
						<clipPath id="SVGID_166_">
							<use xlink:href="#SVGID_165_"  style="overflow:visible;"/>
						</clipPath>
						<g class="st98">
							<g>
								<path class="st9" d="M108.7,168.2L108.7,168.2c-0.3,0-0.6-0.1-0.8-0.3l0,0C108.2,168,108.4,168.2,108.7,168.2"/>
							</g>
						</g>
					</g>
				</g>
			</g>
			<path class="st15" d="M108.7,166c0.6,0,1.1,0.5,1.1,1.1s-0.5,1.1-1.1,1.1s-1.1-0.5-1.1-1.1l0,0C107.6,166.5,108.1,166,108.7,166
				L108.7,166z"/>
			<g>
				<g>
					<g>
						<defs>
							<path id="SVGID_167_" d="M109.8,167.1L109.8,167.1c0,0.6-0.5,1.1-1,1.1l0,0C109.3,168.2,109.8,167.7,109.8,167.1z"/>
						</defs>
						<clipPath id="SVGID_168_">
							<use xlink:href="#SVGID_167_"  style="overflow:visible;"/>
						</clipPath>
						<g class="st99">
							<g>
								<path class="st14" d="M109.8,167.1L109.8,167.1v0.1l0,0C109.8,167.2,109.8,167.1,109.8,167.1"/>
								<path class="st17" d="M109.8,167.2L109.8,167.2c0,0.1,0,0.1,0,0.2l0,0C109.8,167.3,109.8,167.3,109.8,167.2"/>
								<path class="st18" d="M109.7,167.4L109.7,167.4c0,0.1,0,0.1-0.1,0.2l0,0C109.7,167.5,109.7,167.5,109.7,167.4"/>
								<path class="st9" d="M109.7,167.6L109.7,167.6c-0.2,0.4-0.5,0.6-0.9,0.6l0,0C109.1,168.1,109.5,167.9,109.7,167.6"/>
							</g>
						</g>
					</g>
				</g>
			</g>
		</g>
		<g>
			<g>
				<g>
					<g>
						<defs>
							<path id="SVGID_169_" d="M345.7,197.5L345.7,197.5c0.2,0.2,0.3,0.5,0.3,0.7l0,0C346,198,345.9,197.7,345.7,197.5z"/>
						</defs>
						<clipPath id="SVGID_170_">
							<use xlink:href="#SVGID_169_"  style="overflow:visible;"/>
						</clipPath>
						<g class="st100">
							<g>
								<path class="st11" d="M345.7,197.5L345.7,197.5c0.1,0.1,0.2,0.2,0.2,0.3l0,0C345.9,197.7,345.8,197.6,345.7,197.5"/>
								<path class="st12" d="M346,197.9L346,197.9c0,0.1,0,0.1,0.1,0.2l0,0C346,198,346,197.9,346,197.9"/>
								<path class="st13" d="M346,198.1L346,198.1c0,0.1,0,0.1,0,0.2l0,0C346,198.2,346,198.1,346,198.1"/>
								<path class="st14" d="M346,198.2L346,198.2L346,198.2L346,198.2L346,198.2"/>
							</g>
						</g>
					</g>
				</g>
			</g>
			<g>
				<g>
					<g>
						<defs>
							<path id="SVGID_171_" d="M344.3,199.1L344.3,199.1c0.2,0.2,0.5,0.3,0.8,0.3l0,0C344.7,199.4,344.5,199.3,344.3,199.1z"/>
						</defs>
						<clipPath id="SVGID_172_">
							<use xlink:href="#SVGID_171_"  style="overflow:visible;"/>
						</clipPath>
						<g class="st101">
							<g>
								<path class="st9" d="M345,199.3L345,199.3c-0.3,0-0.6-0.1-0.8-0.3l0,0C344.4,199.2,344.7,199.3,345,199.3"/>
							</g>
						</g>
					</g>
				</g>
			</g>
			<path class="st15" d="M345,197.2c0.6,0,1.1,0.5,1.1,1.1s-0.5,1.1-1.1,1.1s-1.1-0.5-1.1-1.1l0,0
				C343.9,197.7,344.4,197.2,345,197.2L345,197.2z"/>
			<g>
				<g>
					<g>
						<defs>
							<path id="SVGID_173_" d="M346,198.3L346,198.3c0,0.6-0.5,1.1-1,1.1l0,0C345.6,199.3,346,198.8,346,198.3z"/>
						</defs>
						<clipPath id="SVGID_174_">
							<use xlink:href="#SVGID_173_"  style="overflow:visible;"/>
						</clipPath>
						<g class="st102">
							<g>
								<path class="st14" d="M346,198.3L346,198.3v0.1l0,0C346,198.4,346,198.3,346,198.3"/>
								<path class="st17" d="M346,198.4L346,198.4c0,0.1,0,0.1,0,0.2l0,0C346,198.5,346,198.5,346,198.4"/>
								<path class="st18" d="M346,198.6L346,198.6c0,0.1,0,0.1-0.1,0.2l0,0C346,198.7,346,198.6,346,198.6"/>
								<path class="st9" d="M345.9,198.7L345.9,198.7c-0.2,0.4-0.5,0.6-0.9,0.6l0,0C345.4,199.3,345.8,199.1,345.9,198.7"/>
							</g>
						</g>
					</g>
				</g>
			</g>
		</g>
		<g>
			<g>
				<g>
					<g>
						<defs>
							<path id="SVGID_175_" d="M330.3,176.1L330.3,176.1c0.2,0.2,0.5,0.3,0.8,0.3l0,0C330.8,176.4,330.5,176.3,330.3,176.1z"/>
						</defs>
						<clipPath id="SVGID_176_">
							<use xlink:href="#SVGID_175_"  style="overflow:visible;"/>
						</clipPath>
						<g class="st103">
							<g>
								<path class="st9" d="M331,176.3L331,176.3c-0.3,0-0.6-0.1-0.8-0.3l0,0C330.5,176.2,330.8,176.3,331,176.3"/>
							</g>
						</g>
					</g>
				</g>
			</g>
			<g>
				<g>
					<g>
						<defs>
							<path id="SVGID_177_" d="M331.8,174.5L331.8,174.5c0.2,0.2,0.3,0.5,0.3,0.8l0,0C332.1,175,332,174.7,331.8,174.5z"/>
						</defs>
						<clipPath id="SVGID_178_">
							<use xlink:href="#SVGID_177_"  style="overflow:visible;"/>
						</clipPath>
						<g class="st104">
							<g>
								<path class="st11" d="M331.8,174.5L331.8,174.5c0.1,0.1,0.2,0.2,0.2,0.3l0,0C332,174.7,331.9,174.6,331.8,174.5"/>
								<path class="st12" d="M332,174.9L332,174.9c0,0.1,0,0.1,0.1,0.2l0,0C332.1,175,332,174.9,332,174.9"/>
								<path class="st13" d="M332.1,175.1L332.1,175.1c0,0.1,0,0.1,0,0.2l0,0C332.1,175.2,332.1,175.1,332.1,175.1"/>
								<path class="st14" d="M332.1,175.2L332.1,175.2L332.1,175.2L332.1,175.2L332.1,175.2"/>
							</g>
						</g>
					</g>
				</g>
			</g>
			<circle class="st15" cx="331" cy="175.3" r="1.1"/>
			<g>
				<g>
					<g>
						<defs>
							<path id="SVGID_179_" d="M332.1,175.3L332.1,175.3c0,0.6-0.5,1-1.1,1l0,0C331.6,176.3,332.1,175.9,332.1,175.3z"/>
						</defs>
						<clipPath id="SVGID_180_">
							<use xlink:href="#SVGID_179_"  style="overflow:visible;"/>
						</clipPath>
						<g class="st105">
							<g>
								<path class="st14" d="M332.1,175.3L332.1,175.3v0.1l0,0C332.1,175.4,332.1,175.3,332.1,175.3"/>
								<path class="st17" d="M332.1,175.4L332.1,175.4c0,0.1,0,0.1,0,0.2l0,0C332.1,175.5,332.1,175.5,332.1,175.4"/>
								<path class="st18" d="M332.1,175.6L332.1,175.6c0,0.1,0,0.1-0.1,0.2l0,0C332,175.7,332,175.6,332.1,175.6"/>
								<path class="st9" d="M332,175.7L332,175.7c-0.2,0.4-0.5,0.6-1,0.6l0,0C331.4,176.3,331.8,176.1,332,175.7"/>
							</g>
						</g>
					</g>
				</g>
			</g>
		</g>
	</g>
	<g id="tail_lights">
		<path class="st106" d="M91,84.8c-0.4-0.4-0.9-0.6-1.4-0.6c-12.8-1.5-25.6-1.8-38.5-1c-1.3-0.2-2.6,0.7-2.8,2.1c0,0.2,0,0.3,0,0.5
			l-3.5,19.6l1.1,0.5c1.9-1.3,4.6,0.5,5.5,2.6s1.1,4.6,2.4,6.5c1.6,2.2,4.6,3.2,7.3,2.9c2.7-0.4,5.3-1.4,7.6-3
			c7.7-4.8,14.2-11.4,18.8-19.2c1.9-2.9,3.1-6.2,3.7-9.6C91.3,85.7,91.2,85.2,91,84.8z"/>
		<ellipse class="st107" cx="127.3" cy="101" rx="17.9" ry="14.5"/>
		<path class="st108" d="M80.1,101.7c-1.3,0-3.2-0.1-4.4-0.9c-1.9-1.3-0.6-2.6,0.8-3.7c2.6-2,6-3.2,8.9-0.9V94
			c-1.1,0.9-2.2,1.8-3.1,2.9c-0.8,0.9-1.5,2.8-2.4,3.4s-1.7,0.1-2.7-0.5c-0.5-0.3-1.2,0.1,0.4-0.2s3.6-1.5,5.2-2.2
			c0.8-0.2,1.3-1.1,1-1.9c-0.1-0.2-0.2-0.4-0.4-0.6c-0.9-1-2.3-1.3-3.5-0.7c-1.5,0.7-3.8,3.4-3.9,5c-0.2,1.3,0.7,2.4,2,2.6l0,0
			c0.6,0.1,1.3,0,1.8-0.3c0.2-0.1,1.8-2.1,2-2l-0.9-2.2c-1.3,1.9-3,4.5-1.3,6.5c0.4,0.4,0.9,0.5,1.5,0.4c2.3-0.5,5.3-4.8,5.5-7.1
			c0.3-4-4.7-4.7-7.7-5.2c-3.2-0.5-7.6,0-9.2,3.4c-1.5,3.2,1.1,5.7,3.9,6.9c1.3,0.6,2.9-0.6,2-2c-1-1.8-0.3-4.2-2.3-5.4
			c-1.8-1-3.9-0.1-4.9,1.5c-3.7,5.7,3.5,7.5,7.3,9.1c1.8,0.8,2.5-2.2,0.8-2.9c-1.1-0.5-2.4-0.9-3.4-1.5l-1.1-0.5
			c-1.8-1.4-2-2-0.6-1.8c0.5-0.3,0.8-0.2,0.8,0.2s0,0.7,0.1,1c0.3,0.5,0.4,1.2,0.7,1.8l2-2c-2.1-0.9-3.8-3.4-0.7-4.5
			c1.8-0.7,3.9-0.2,5.7,0.2c2,0.5,4.1,1.5,2.4,3.6c-0.4,0.5-1.6,2.4-2.2,2.5l1.5,0.4c0-0.1,1.6-2.7,1.8-2.9c0.4-0.7,0.2-1.6-0.6-2.1
			c-0.1-0.1-0.2-0.1-0.3-0.1c-0.8-0.3-1.7-0.2-2.5,0.2c-0.3,0.2-0.6,0.4-0.9,0.7c-0.8,2,2.5,0.2,2-0.3l0.7-2.5
			c-2,0.9-6.5,1.8-7.9,3.7s0.4,3.2,1.9,4.3s3.5,2.4,5.3,1c1-0.7,1.4-2.2,2.1-3.2c1.2-1.6,2.6-3.1,4.2-4.3c0.6-0.6,0.6-1.5,0-2.1
			c-4.9-4-11-1.7-15,2.5c-4.8,5.2,3.2,8,7.5,8.1c1.9,0,1.9-3,0-3L80.1,101.7z"/>
		<path class="st109" d="M76.1,105h3.3c0.8,0,1.5-0.7,1.5-1.5s-0.7-1.5-1.5-1.5h-3.3c-0.8,0-1.5,0.7-1.5,1.5S75.2,105,76.1,105z"/>
	</g>
	<g id="headlights">
		<path d="M828.7,230.1l-0.6,14.3l37.2,0.4c0,0,0.6-4.1,13.9-2.4s28.9,0.8,28.9,0.8l17.7-2c0,0,18.7-4.8,2.7-7.7
			c-4.7-0.8-0.5-0.8-14-1.7C882,229.6,828.7,230.1,828.7,230.1z"/>
	</g>
	<g id="side_skirts">
		<path class="st110" d="M659.3,239c-65.7,0.4-129-1.7-194.7-1.3c-15.2,0.1-33.2,0-48.3-1.3c-17.5-1.6-33.9-4.3-51.3-6.3
			c-34-4-69.5-3.1-103.7-1.5c-0.7,5.5-2.5,12.7-3.2,18.2c21.8-0.3,44.8,1.1,66.5,0.8c3.4,0,12.8-0.1,16-1.2c2.4-0.9,3.9-4.8,6.5-5.2
			c17.2-3.2,25.2,0.8,44,2c14.1,0.9,28.1,2.1,42.2,2.2c15,0.2,32.5,0.6,47.5,0.8c63.1,0.7,123.7-0.1,186.8,0.5
			c3.9,0,10.9,1.1,10.7-2.8c0-1.6,1.1-3.3-0.8-4.2C673.5,237.6,663.3,238.9,659.3,239z"/>
		<path d="M659.3,238.2c-53,0.3-106.1-1-159.1-1.3c-25.2-0.1-50.5,0.8-75.6-0.7s-49.8-6.5-74.9-8.4c-29.5-2.3-59-1.4-88.5,0
			c-0.3,0-0.6,0.2-0.7,0.5c-0.9,6.1-2.4,12.1-3.2,18.2c-0.1,0.4,0.1,0.8,0.5,0.9c0.1,0,0.1,0,0.2,0c17.2-0.2,34.3,0.5,51.4,0.7
			c6.7,0.1,13.3,0.1,20-0.1c3.8-0.1,9.2,0.3,12.5-1.9c1.1-0.7,1.8-1.9,2.7-2.8c2.2-2,4.5-2.2,7.4-2.6c3.4-0.4,6.9-0.5,10.3-0.4
			c6.4,0.3,12.7,1.5,19,2.2c16.6,1.9,33.3,3,50,3.2c68.5,1.2,137,0.8,205.5,1.1c9.9,0,19.8,0,29.7,0.2c3,0,9.8,1.5,11.9-1.6
			c2-2.9,1-6.3-2.1-7.3C671.1,236.6,664.6,238.1,659.3,238.2c-0.4,0-0.7,0.4-0.7,0.8s0.3,0.8,0.8,0.8l0,0c4.5-0.1,9.1-0.8,13.6-0.4
			c2.4,0.2,5.8,1.1,4.5,4.4c-1.3,3.3-5.8,2.2-8.4,2.1c-14.7-0.5-29.3-0.3-44-0.3c-30.3-0.1-60.7,0-91,0c-29,0-58-0.3-87-0.8
			c-14.2-0.2-28.5-0.6-42.7-1.5c-12.8-0.9-25.3-2.6-38-3.8c-5.3-0.5-10.7-0.4-16,0.3c-1.6,0.2-3.4,0.3-4.9,1.1
			c-2.7,1.5-3.6,4.2-6.9,5.2c-4.1,1.2-9.2,0.8-13.5,0.8c-7.2,0.1-14.4,0-21.5-0.1c-7-0.1-14-0.3-21.1-0.5c-3.5-0.1-7-0.1-10.5-0.2
			h-4.7c-1.4,0-6.5,0.8-7.5,0c-1.4-1-0.8-1.6-0.4-3.4c0.2-1.3,0.5-2.6,0.8-3.9c0.4-2,0.4-7,1.6-8.5c1.7-2.2,8.4-1.3,10.9-1.4
			c3.8-0.2,7.7-0.3,11.5-0.4c29.6-0.9,59.1-0.4,88.4,3.3c14.5,1.9,29,4.1,43.7,5.4c13.3,1.2,26.6,1.4,40,1.4
			c67.7,0,135.4,1.7,203.1,1.3c0.4,0,0.8-0.4,0.8-0.8C660.1,238.5,659.7,238.2,659.3,238.2z"/>
		<path class="st110" d="M259.9,245.8v-0.1h-2.3L259.9,245.8z"/>
		<path d="M260.7,246v-0.1c0.1-0.4-0.1-0.8-0.5-0.9c-0.1,0-0.1,0-0.2,0h-2.3c-0.4,0-0.8,0.3-0.8,0.8s0.3,0.8,0.8,0.8l2.3,0.1
			c1,0,1-1.5,0-1.5l-2.3-0.1v1.5h2.3l-0.7-1v0.1c-0.1,0.4,0.1,0.8,0.5,0.9C260.1,246.6,260.5,246.4,260.7,246z"/>
	</g>
	<g id="fender_garnish">
		<path class="st111" d="M592,87.7h3.4l-0.1-0.1L592,87.7z"/>
		<path class="st112" d="M592,88.4h3.4c0.4,0,0.7-0.4,0.7-0.8c0-0.2-0.1-0.4-0.2-0.5c-0.5-0.5-1.4-0.3-2-0.3H592
			c-0.4,0-0.8,0.3-0.8,0.8S591.6,88.4,592,88.4l3.4-0.1l-0.5-0.2l0.1,0.1l0.5-1.3H592c-0.4,0.1-0.7,0.4-0.6,0.9
			C591.4,88.1,591.7,88.4,592,88.4z"/>
		<path class="st111" d="M595.4,87.7C603.2,95,611,102,621,105.5c5,1.7,10.3,2,15.5,2.6c11.1,1.4,26,3.7,37,2.2
			c4.1-1.1,8.1-2.5,11.9-4.1c5.7-2.5,10.8-7.3,14.6-12.2C665.8,89.4,630,88,595.4,87.7z"/>
		<path class="st112" d="M675.1,104.7c-1.5-0.3-2.7,0.5-2.5,2.2c0,0.4,0.4,0.8,0.8,0.7c0.1,0,0.1,0,0.2,0c5-1.4,10-3,15-4.6
			c0.3-0.1,0.5-0.4,0.6-0.7c-0.3-2.2-2.4-2.2-4.2-1.8c-4.5,1-9,2.5-13.2,4.4c-0.7,0.3-0.3,1.5,0.4,1.4c5.8-0.5,11.6-1.8,17-4
			c0.9-0.3,0.5-1.8-0.4-1.5c-5.3,2.2-10.9,3.5-16.6,4l0.4,1.4c1.3-0.5,13.5-5.6,14.2-4.3c0.1,0.2-11.9,3.9-13.5,4.3l1,0.7l0.6-0.7
			C675.6,106.4,676,105,675.1,104.7L675.1,104.7z"/>
		<polygon class="st113" points="644,96.3 633.3,95.9 633.3,93.5 628.2,93.5 628.2,95.6 620,95.2 619.8,100.1 628.2,100.5 
			628.2,102 633.3,102 633.3,100.8 643.8,101.2 		"/>
	</g>
	<g id="headlights-2">
		<path class="st114" d="M886.2,138.8c-1.8-2.4-6.4-3.7-9-5.2c-3.9-2.2-6.2-2.8-10.5-4c-2.5-0.7-5-2.7-7.4-3.7
			c-2.3-0.9-6.8-2-8.9-3.2c-6.5-3.5-9.4-4.2-16.7-5.5c-1.3-0.2-5.1-0.9-6.3-0.7s-1.3,2.1-0.8,3c0.8,1.3,1.6,2.5,2.6,3.7
			c5.4,6.8,13,11.5,18.7,17.9c1.4,1.8,3,3.5,4.8,5c1.3,1,2.8,1.8,4,2.9c0.8,0.9,1.7,1.6,2.7,2.2c0.9,0.4,2,0.7,3,0.8
			c1.2,0.1,2.5,0.3,3.7,0.4c2.1,0.2,4.7,0,5.5-1.9c0.5-1.1,0.2-2.4,0.7-3.4c0.6-0.9,1.5-1.5,2.6-1.5s2.1,0.1,3.1,0.4
			c2.7,0.7,5.4,1.2,8.1,1.7c0.4,0.1,0.8,0.1,1.2-0.1c0.2-0.2,0.4-0.4,0.5-0.7C889,144.5,888.1,141.2,886.2,138.8z"/>
		<path class="st115" d="M886.8,138.3c-3.2-3.4-8.9-5.5-13.2-7.3c-3.4-1.4-6.9-2.1-10.1-3.8c-2.5-1.3-5-2.4-7.7-3.2
			c-5.5-1.8-10.4-4.9-16.1-6.3c-2.7-0.7-9.8-3.1-12.6-1.7c-7,3.4,13.4,19.1,15.8,21.3c5.2,4.7,9.4,10.1,15.1,14.2
			c2.9,2,9.7,3.2,12.8,1.3c0.6-0.4,1.1-0.9,1.5-1.5c2.3-2.6-3.2,0.3,3-2.8c3.1-1.6,4.3-0.9,7.4-0.2c1.1,0.2,3.4,1.1,4.6,0.6
			c3.8-1.5,1.1-8-0.4-10.2c-0.5-0.8-1.8,0-1.3,0.8c1.2,1.5,1.9,3.3,2,5.2l-2.9,2.6c-1,0.2-3.8-0.8-4.9-1c-1.9-0.4-4.2-1.4-6.2-0.6
			c-1.1,0.5-1.4,1-2.1,1.8c-1.4,1.5,0.5,0.6-2.2,3c-2.3,2.1-3.6,2-6.7,1.3c-6.8-1.6-11.7-8.4-16.4-13.1s-10-8.3-14.4-13.1
			c-1.2-1.3-3.3-3-3.8-4.8c-0.9-3.5,0.9-3.2,3.6-2.8c2.3,0.3,4.7,0.8,7,1.3c5,1.2,9.2,3.7,13.9,5.5c5.7,2.2,11.1,4.9,16.9,6.7
			c5,1.5,12.6,4.3,16.3,8.2C886.4,140,887.4,139,886.8,138.3z"/>
	</g>
</g>
</svg>
