<svg xmlns="http://www.w3.org/2000/svg" xmlns:xlink="http://www.w3.org/1999/xlink" viewBox="0 0 941.7 262.5" enable-background="new 0 0 941.7 262.5"><style>.st0{fill:#1E1E1D;} .st1{fill:#710D0F;} .st2{fill:#841212;} .st3{fill:#171722;} .st4{fill:#A9C2B5;} .st5{fill:#AB171B;} .st6{fill:#191919;} .st7{fill:#020001;} .st8{clip-path:url(#SVGID_2_);} .st9{fill:#535353;} .st10{clip-path:url(#SVGID_4_);} .st11{fill:#666666;} .st12{fill:#636363;} .st13{fill:#606060;} .st14{fill:#5D5D5D;} .st15{fill:#8B8B8B;} .st16{clip-path:url(#SVGID_6_);} .st17{fill:#5A5A5A;} .st18{fill:#565656;} .st19{clip-path:url(#SVGID_8_);} .st20{clip-path:url(#SVGID_10_);} .st21{clip-path:url(#SVGID_12_);} .st22{clip-path:url(#SVGID_14_);} .st23{clip-path:url(#SVGID_16_);} .st24{clip-path:url(#SVGID_18_);} .st25{clip-path:url(#SVGID_20_);} .st26{clip-path:url(#SVGID_22_);} .st27{clip-path:url(#SVGID_24_);} .st28{clip-path:url(#SVGID_26_);} .st29{clip-path:url(#SVGID_28_);} .st30{clip-path:url(#SVGID_30_);} .st31{clip-path:url(#SVGID_32_);} .st32{clip-path:url(#SVGID_34_);} .st33{clip-path:url(#SVGID_36_);} .st34{clip-path:url(#SVGID_38_);} .st35{clip-path:url(#SVGID_40_);} .st36{clip-path:url(#SVGID_42_);} .st37{clip-path:url(#SVGID_44_);} .st38{clip-path:url(#SVGID_46_);} .st39{clip-path:url(#SVGID_48_);} .st40{clip-path:url(#SVGID_50_);} .st41{clip-path:url(#SVGID_52_);} .st42{clip-path:url(#SVGID_54_);} .st43{clip-path:url(#SVGID_56_);} .st44{clip-path:url(#SVGID_58_);} .st45{clip-path:url(#SVGID_60_);} .st46{clip-path:url(#SVGID_62_);} .st47{clip-path:url(#SVGID_64_);} .st48{clip-path:url(#SVGID_66_);} .st49{clip-path:url(#SVGID_68_);} .st50{clip-path:url(#SVGID_70_);} .st51{clip-path:url(#SVGID_72_);} .st52{clip-path:url(#SVGID_74_);} .st53{clip-path:url(#SVGID_76_);} .st54{clip-path:url(#SVGID_78_);} .st55{clip-path:url(#SVGID_80_);} .st56{clip-path:url(#SVGID_82_);} .st57{clip-path:url(#SVGID_84_);} .st58{clip-path:url(#SVGID_86_);} .st59{clip-path:url(#SVGID_88_);} .st60{clip-path:url(#SVGID_90_);} .st61{clip-path:url(#SVGID_92_);} .st62{clip-path:url(#SVGID_94_);} .st63{clip-path:url(#SVGID_96_);} .st64{clip-path:url(#SVGID_98_);} .st65{clip-path:url(#SVGID_100_);} .st66{clip-path:url(#SVGID_102_);} .st67{clip-path:url(#SVGID_104_);} .st68{clip-path:url(#SVGID_106_);} .st69{clip-path:url(#SVGID_108_);} .st70{clip-path:url(#SVGID_110_);} .st71{clip-path:url(#SVGID_112_);} .st72{clip-path:url(#SVGID_114_);} .st73{clip-path:url(#SVGID_116_);} .st74{clip-path:url(#SVGID_118_);} .st75{clip-path:url(#SVGID_120_);} .st76{clip-path:url(#SVGID_122_);} .st77{clip-path:url(#SVGID_124_);} .st78{clip-path:url(#SVGID_126_);} .st79{clip-path:url(#SVGID_128_);} .st80{clip-path:url(#SVGID_130_);} .st81{clip-path:url(#SVGID_132_);} .st82{clip-path:url(#SVGID_134_);} .st83{clip-path:url(#SVGID_136_);} .st84{clip-path:url(#SVGID_138_);} .st85{clip-path:url(#SVGID_140_);} .st86{clip-path:url(#SVGID_142_);} .st87{clip-path:url(#SVGID_144_);} .st88{clip-path:url(#SVGID_146_);} .st89{clip-path:url(#SVGID_148_);} .st90{clip-path:url(#SVGID_150_);} .st91{clip-path:url(#SVGID_152_);} .st92{clip-path:url(#SVGID_154_);} .st93{clip-path:url(#SVGID_156_);} .st94{clip-path:url(#SVGID_158_);} .st95{clip-path:url(#SVGID_160_);} .st96{clip-path:url(#SVGID_162_);} .st97{clip-path:url(#SVGID_164_);} .st98{clip-path:url(#SVGID_166_);} .st99{clip-path:url(#SVGID_168_);} .st100{clip-path:url(#SVGID_170_);} .st101{clip-path:url(#SVGID_172_);} .st102{clip-path:url(#SVGID_174_);} .st103{clip-path:url(#SVGID_176_);} .st104{clip-path:url(#SVGID_178_);} .st105{clip-path:url(#SVGID_180_);} .st106{fill:#F6FFFF;} .st107{fill:#751614;stroke:#000000;stroke-miterlimit:10;} .st108{fill:#E80F29;} .st109{fill:#F20F0F;} .st110{fill:#6C1512;} .st111{fill:#AD2D2D;} .st112{fill:#020000;} .st113{fill:#E2F6FA;} .st114{fill:#D8EAEE;} .st115{fill:#030202;}</style><g id="shadow"><path class="st0" d="M128.8 236.4s-139.9-5-127.9 1.4 132.9 17.7 132.9 17.7 599.8-.8 601-2.7 206.8 0 206.8 0 6-9.4-39.4-12.2-707.4-10.9-707.4-10.9l-66 6.7z" id="shaddow"/></g><g id="Layer_1"><title>frs-body-frame</title><path class="st1" d="M908.7 216.1c-6-7.3-10.7-20-4-39.3 6.7-27.3-.7-30.7-.7-30.7-19.3-20.7-108-52.7-156.7-56.7S696 86.7 696 86.7c-16-2-74-6-74-6s-36-31.3-112.7-65.3C429.3-5.3 400.6.1 347.3 2.1S228 25.4 156 50.1C94 68.1 47.3 63.4 47.3 63.4c-3.7 2.7-1 3.7-.7 7.3s-.2 27.2-2.5 34.5S23 136.1 23 136.1v40.7l20.7 42.3 13.7 3.3 5-9.7 42 13.3s-1.7-1.3-1.7-9.7c0-11.7 2-24.3 6.5-38.5 3.7-11.6 9-22.6 15.5-32.8 4.9-7.5 9.1-9.5 14.7-13.3 10.8-7.3 18.5-9 26.3-10.3 7.9-1.3 18.1-1.2 22-1 5 .2 16.3 1.6 31.3 10 8.2 4.6 17.3 10.7 25.3 22.3 22.7 33 17.7 76.7 17.7 76.7s62 6 83.3 3.3 63.3 5.3 63.3 5.3l269.2 3.3 1.2-15.2c-.2-1.5-.2-3.1-.2-4.6.1-1.9.6-3.8-.2-5.7-.7-1.7-3.5-2-4.8-3.2.2-2.6-2.8-17.8.2-32.8 2.1-10.4 4.7-24.6 11.8-29.2 3.4-2.3 9.6-2.4 13.5-2 31.3-30.7 94.2-28.8 119.5 9.2S834 234 834 234s6-.7 41.3 0 43.7 3 47.7 2.3-4.3-12.2-14.3-20.2z" id="body"/><g id="shiny"><path class="st2" d="M259.4 180.5s21 3 26 0 9-11 14-11 5-17 5-17l13-16 321.8 8.5 6.8-6.5s38.5 0 46.5 8c0 0 4.5 2.5 8.5.2s25.8-24 59.2-20.8 48 20.5 48 20.5l14.2 17.8 13.5-1s-27.2-40-63.2-44-47 3.2-47 3.2l-32.8-20s-53 5.5-73 3.8-40.2-2-40.2-2L329.1 87.7 229 136.8l15 14.7 15.4 29zM378.9 214s-12.5-1-19.5-8.5c-25.5-2-44-3-44-3s16 16 66 18 287 10 287 10l1-6.5-290.5-10zM262.7 228.7l-3.2 11.8s-3 6.2 4.8 5.2h71.8s9.2-11.5 13.5-12.2 26-.5 26-.5l5-1.2-117.9-3.1z"/></g><path d="M617.3 120.7c-3-10.3-10.2-19.4-18.6-25.9-7.8-6.1-16.7-8.3-26.3-9.6-27-3.6-54.1-6.8-81.2-9.9-24.9-2.8-49.7-6.5-74.7-7.2-12.6-.4-25.2.1-37.7 1.4-5.7.6-11.7 2.2-17.5 2.3-4 .1-8.2-1.1-12.1-1.8-4.4-.8-11.8-3-15.6.4-3.1 2.8-5.3 8.2-7.1 11.9-2 4.2-3.5 8.6-4.7 13.1-4.9 18.7-2.9 38.8 3 57.1 5.8 18 15.7 34.3 29 47.7 3.6 3.6 7.2 7.4 11.5 10.2 4.7 3.1 10.1 4.4 15.6 5.1 12.5 1.6 25.4 1.5 38.1 2 63.3 2.6 126.6 4 190 4.2.3 0 .6-.2.7-.5 4.3-16.6 7.2-33.6 8.8-50.7 1.7-16.5 2.8-33.7-1.2-49.8-.2-.4-.6-.6-1-.5s-.6.5-.5.9c3.6 14.2 2.8 29.1 1.8 43.6-1.1 14.5-3.1 28.8-6.2 43-.6 3-.9 6.5-2.1 9.3-1.2 2.8-1.2 2.8-4.2 3.1-1.3.1-2.7.1-4 0-7.9 0-15.8-.1-23.8-.2-14.5-.1-29-.3-43.5-.6-29-.5-58.1-1.3-87.1-2.3-15.2-.5-30.3-1.2-45.5-1.8-14.2-.6-28.8 0-40-10-31-27.8-50.7-75.6-35.6-116.6 1.8-4.9 4.2-9.6 7-14 1.2-1.9 2.1-3.5 4.3-4.1 2.5-.7 6 0 8.5.4 3.8.6 7.5 1.4 11.3 2 4.3.6 7.7 0 12-.6 26-3.7 52.2-3.1 78.2-.5 31.6 3.2 63.2 7.1 94.8 11l23.7 3c6.9.9 14.1 1.5 20.7 3.8 13.6 4.7 25.6 17.7 29.6 31.5.2.4.6.5 1 .4.5-.3.7-.5.6-.8z" id="Layer_12"/><g id="window"><path class="st3" d="M334 20c-31.4 6.2-63.3 12.7-91.8 28.1l2.4 2.9s30 19.4 47.1 23.6 34.6 5.4 52.1 6.6L334 20z"/><path class="st4" d="M330.5 25.6c-27.3 5.2-55 10.5-79.7 23.1.7.8.9 1.3 1.6 2.1 0 0 26.7 16.3 41.5 19.7s30.1 4.4 45.3 5.4l-8.7-50.3z"/><path class="st3" d="M489.1 25.2c-5.4-2.6-11-4.6-16.8-6.1-8.1-2.3-17.8-3.5-26.2-4.3C408.7 11.3 371 13.1 334 20c.1.5-2.6 1.8-2.5 2.2 1.2 5.1 8 43.3 9.8 56.8.1.6 2.6 1.6 2.6 2.2 80.9 5 170.9 8.2 251.9 10.3-29.9-22.8-72.6-50.5-106.7-66.3z"/><path class="st4" d="M489.5 29.9c-6.4-3.1-13-5.7-19.8-7.8-8-2.1-16.1-3.5-24.3-4.1-36.8-3.4-73.8-1.8-110.1 4.9 5.3 18.4 8.3 35.1 10.5 54.1 79 4.9 158.5 7.5 237.6 9.6-29.2-22.3-60.6-41.3-93.9-56.7z"/></g><g id="side_mirror"><path class="st3" d="M556.7 90c-.8-1.5-2-2.9-2.7-4.5-2.5-5.6.7-12.4-1.3-18.1-.9-2.3-2.4-4.4-4.3-6-7.5-6.7-18.8-8.9-27.8-5-1.3.4-2.4 1.2-3.2 2.3-.8 1.2-2.2 2.6-2.1 4.4.3 4.3.2 6 .4 10.4.2 3.6.8 7.7 3.8 9.5 4.5 2.6 11.1-1.7 15.1 1.6 1.7 1.4 1.8 3.4 1.8 5.7-.1 2.2-1 3.8-1.2 6.1-.2 1.6-1.3 4.2.2 4.8.8.3 20.5 1 21.9.1 1-.7 1.3-4 1.4-5.2.5-2.9-.7-3.6-2-6.1z"/><path class="st5" d="M552.2 66.3c-1.4-3.1-4.7-5.7-7.6-7.5-6.2-3.8-12.8-5.4-19.9-3.8-2 .5-3.9 1.1-5.7 2.1-.5.3-.9.6-1.2 1-.2.3-.5.6-.8.9-.6.5-1 1.2-1.3 1.9-.3.5-.5 1-.5 1.6-.1 1.5.2 3.5.2 3.5l14.4 6.3 1.9 1c2.1 1.5 3.9 2.3 6 3.6 4 2.5 9.5 3.9 14.2 4.4.3 0 .7-.1 1-.2 0 0 .1 0 .1-.1.1-.5 0-2.1.1-2.5.3-4.3.9-8.3-.9-12.2z"/><path d="M892.4 207.9l-11.7-16.3c-2.6-3.6-5.2-7.3-8.6-10.2s-7.6-5-12.1-5c-.6 0-1.4.1-1.6.7v.1L872 209c1.4 3.3 3 6.9 6.2 8.6 2.2 1.2 4.8 1.2 7.3 1.2s5.1-.2 7.7-.4c.7 0 1.3-.2 1.9-.6.4-.5.6-1.1.6-1.7.3-3-1.5-5.7-3.3-8.2z"/></g><path d="M105.3 231.8l-2.5-13.1h-.9l-1.4.1c-10.6-.4-21.1-2.5-31-6.3-2.4-.9-4.8-2-7.4-1.8s-5.2 1.9-5.4 4.5c-.1 1.4.5 3-.2 4.3-.5.8-1.3 1.3-2.2 1.3l-1.4.1c-6.4-.2-10.5-7-13.1-12.9-3.3-7.8-6.3-15.7-8.9-23.8-1.4-4.3-2.7-8.7-5.4-12.2s-7.5-5.9-11.8-4.6c-1.2.3-2.2 1-2.9 2-.9 1.5-.3 3.4.2 5.1L23.5 214l1.3 4.2c.3 1.1.8 2.1 1.5 3.1.2.3.5.6.9.6l23.8-1-23.5 1c2.4.7 4.9 1 7.5.9 6.7.4 13.3 1.2 19.9 2.5 6.5 1.1 13 2.2 19.5 3.6 10.7 2.5 21.3 5.5 31.8 9.1-.2-2.1-.4-4.2-.9-6.2z" id="diffuser"/><path class="st6" d="M25.4 175.3l9.7 28.2 8.3 13.7 12 4.7-1 2.5-27.5-5.2-15-46.5c0-.1 8-6.7 13.5 2.6z" id="flare_glare"/><g id="flares"><path class="st7" d="M85.2 110.8c14.1 10.6 28.7 20.5 43.8 29.6.4.2.8.1 1-.3.2-.4.1-.8-.3-1-15.1-9.1-29.7-19-43.8-29.6-.7-.6-1.4.7-.7 1.3zM99.4 84.7c20.8-1.7 41.6-2.7 62.3-4.3 11.1-.9 22.2-1.7 33.3-.4s21.8 4.3 32.5 7.1l65.8 17 15.5 4c2.2.6 6 .7 7.2 2.9.8 1.4.2 5.6.3 7.3.7 9 2.4 17.9 5 26.5 6.1 20.4 15.8 39.6 28.6 56.5.6.8 1.9 0 1.3-.8-19.5-26.1-33.6-58.2-33.7-91.2 0-.3-.2-.6-.5-.7l-56.2-14.5c-18.2-4.7-36.3-10-54.7-13.8-17.9-3.6-35.4-2.1-53.4-.8-17.8 1.3-35.6 2.2-53.3 3.6-1 .2-1 1.7 0 1.6z"/><path d="M262.9 200.7c29.2 1.1 58.5-.1 87.8 1 1 0 1-1.5 0-1.5-29.2-1.1-58.5.1-87.8-1-1 0-1 1.5 0 1.5z"/><path class="st7" d="M98.8 83.6c-5 8.8-9.8 17.8-14 27-1.8 4-3.6 8-5.3 12-2 4.6-4.7 9.7-5.5 14.7-1.3 7.1 7.3 11.9 11.9 15.8 8 6.6 16.2 12.8 24.4 19.2.8.6 1.8-.5 1.1-1.1-6.7-5.3-13.4-10.4-20.1-15.7-3.3-2.6-6.6-5.3-9.8-8.1-1.7-1.3-3.2-2.7-4.5-4.3-2.4-3.4-1.1-7.1.3-10.6 6.4-16.6 14.1-32.6 23-48 .2-.4.1-.8-.3-1-.5-.3-1-.2-1.2.1z"/><path d="M111.4 171.8c4.4-12.5 10.7-24.2 20.7-33 11.3-10.1 26.2-16.1 41.2-17.7 29.1-3.2 56.4 11.6 72.5 35.5 8.7 12.9 14.9 27.9 16.4 43.4.1 1 1.6 1 1.5 0-2.6-27.7-19.3-55.4-43.2-69.8-26.3-15.9-60.8-14.3-85.5 4.3-12.3 9.3-20 22.6-25.1 37-.3.9 1.2 1.2 1.5.3z"/><path class="st7" d="M617.8 106.4c11.2 1.5 22.4 3.2 33.6 4.7 10.2 1.3 19.7 2.1 29.4-2s18.4-9.9 28.8-12.7c10.7-2.6 21.8-3.5 32.7-2.5 22.4 1.7 44.4 7.6 64.7 17.3 19.4 9.4 36.1 25 50.9 40.4 4.3 4.2 8 9 10.9 14.3.8 1.5 3.7 6 2.5 7.5-.6.7-6.7-.2-8-.2-5.7-.1-11.4 0-17 0-3.7 0-18.9 1.6-19.4-3.6-.1-1-1.6-1-1.5 0 .7 6.8 11 5 15.9 5 10.5.1 21.1-.3 31.6.3.4 0 .8-.4.7-.8v-.2c-4.4-16.8-19.4-28.7-31.8-39.9-14.2-12.9-29.3-23.3-47.4-29.9-17.6-6.3-36.5-11.1-55.4-11.9-8.9-.5-17.7.2-26.4 2-9 2-17 5.7-25.1 10-5.3 2.8-10.7 5.4-16.8 6.3s-12.3.1-18.4-.7c-11.5-1.5-23-3.3-34.5-4.8-.9-.2-.9 1.2 0 1.4z"/><path class="st7" d="M617.3 221.5c2.3-20.3 5.1-40.6 6.9-60.9 1.6-18.6 1.6-37.6-5.6-55.1-.4-.9-1.8-.5-1.5.4 7.4 18 7.2 37.5 5.4 56.5-1.8 19.7-4.4 39.4-6.7 59.1-.1 1 1.4.9 1.5 0z"/><path class="st7" d="M616.6 222.2c20.8.8 41.5 2.4 62.3 3.2 1 0 1-1.5 0-1.5-20.8-.8-41.5-2.4-62.3-3.2-1 0-1 1.5 0 1.5z"/><path class="st7" d="M679.7 224.5c-.6-2.6 1.8-6.6.6-8.9-.8-1.4-2.4-1.2-3.6-1.9-3.7-2.2-3-10.2-3.2-13.8-.2-4.4-.2-8.7 0-13.1.5-9.3 2.3-18.8 6.7-27.2 2.1-4 4.8-8.7 9.4-9.7 3.3-.7 6.8.2 10-.8 4.9-1.7 8-7.1 12.5-9.7 6.6-3.6 13.5-6.4 20.7-8.5 17.3-5.1 35.9-4.3 52.7 2.4 17.4 7 31.6 20.1 40 36.8.4.9 1.7.1 1.3-.8-16.1-31.4-50.8-47.8-85.4-42-9.1 1.5-18 4.9-26.3 8.9-1.7.8-3.3 1.6-4.9 2.5-3.6 2.2-5.8 5.7-9.2 8s-7.8 1-11.7 1.7c-2.9.5-4.8 2.1-6.6 4.5-5.4 6.8-8.3 15.6-9.7 24-1.7 10.2-1.5 20.8-.4 31.1.3 2.8-.2 5.6 2.6 6.9.4.2 1.1.2 1.5.5 2.3 1.7 1.4 3.1 1.4 5.1 0 1.7-.3 2.7.1 4.5.2.8 1.7.4 1.5-.5z"/></g><g id="rivets"><defs><path id="SVGID_1_" d="M279.7 197.7c.2.2.5.3.8.3-.3 0-.6-.1-.8-.3z"/></defs><clipPath id="SVGID_2_"><use xlink:href="#SVGID_1_" overflow="visible"/></clipPath><path class="st8 st9" d="M280.4 197.9c-.3 0-.6-.1-.8-.3.3.2.5.3.8.3"/><defs><path id="SVGID_3_" d="M281.2 196.1c.2.2.3.5.3.8 0-.3-.1-.6-.3-.8z"/></defs><clipPath id="SVGID_4_"><use xlink:href="#SVGID_3_" overflow="visible"/></clipPath><g class="st10"><path class="st11" d="M281.2 196.1c.1.1.2.2.2.3-.1-.1-.1-.2-.2-.3"/><path class="st12" d="M281.4 196.5c0 .1 0 .1.1.2 0-.1-.1-.2-.1-.2"/><path class="st13" d="M281.5 196.7v0"/><path class="st14" d="M281.5 196.9"/></g><ellipse class="st15" cx="280.4" cy="196.9" rx="1" ry="1.1"/><defs><path id="SVGID_5_" d="M281.5 196.9c0 .6-.4 1-.9 1h-.1c.6 0 1-.4 1-.9v-.1z"/></defs><clipPath id="SVGID_6_"><use xlink:href="#SVGID_5_" overflow="visible"/></clipPath><g class="st16"><path class="st14" d="M281.5 196.9v.1-.1"/><path class="st17" d="M281.5 197v0"/><path class="st18" d="M281.4 197.2c0 .1 0 .1-.1.2.1-.1.1-.2.1-.2"/><path class="st9" d="M281.4 197.4c-.2.4-.5.6-.9.6.3-.1.7-.3.9-.6"/></g><defs><path id="SVGID_7_" d="M619 219.6c.2.2.5.3.7.3-.2 0-.5-.1-.7-.3z"/></defs><clipPath id="SVGID_8_"><use xlink:href="#SVGID_7_" overflow="visible"/></clipPath><path class="st19 st9" d="M619.7 219.8c-.3 0-.5-.1-.7-.3.1.2.4.3.7.3"/><defs><path id="SVGID_9_" d="M620.5 218c.2.2.3.5.3.7 0-.2-.1-.5-.3-.7z"/></defs><clipPath id="SVGID_10_"><use xlink:href="#SVGID_9_" overflow="visible"/></clipPath><g class="st20"><path class="st11" d="M620.5 218c.1.1.2.2.2.3-.1-.1-.1-.2-.2-.3"/><path class="st12" d="M620.7 218.4c0 .1 0 .1.1.2-.1-.1-.1-.2-.1-.2"/><path class="st13" d="M620.8 218.6v0"/><path class="st14" d="M620.8 218.7"/></g><path class="st15" d="M619.7 217.7c.6 0 1 .5 1 1 0 .6-.5 1-1 1-.6 0-1.1-.5-1.1-1s.5-1 1.1-1z"/><defs><path id="SVGID_11_" d="M620.8 218.8c0 .6-.5 1-1.1 1 .6 0 1.1-.5 1.1-1z"/></defs><clipPath id="SVGID_12_"><use xlink:href="#SVGID_11_" overflow="visible"/></clipPath><g class="st21"><path class="st14" d="M620.8 218.8v0"/><path class="st17" d="M620.8 218.9v0"/><path class="st18" d="M620.7 219.1c0 .1 0 .1-.1.2.1-.1.1-.2.1-.2"/><path class="st9" d="M620.7 219.2c-.2.4-.5.6-1 .6.4 0 .8-.2 1-.6"/></g><defs><path id="SVGID_13_" d="M623.5 184.2c.2.2.5.3.7.3-.2 0-.5-.1-.7-.3z"/></defs><clipPath id="SVGID_14_"><use xlink:href="#SVGID_13_" overflow="visible"/></clipPath><path class="st22 st9" d="M624.2 184.5c-.3 0-.5-.1-.7-.3.2.2.4.3.7.3"/><defs><path id="SVGID_15_" d="M625 182.7c.2.2.3.5.3.7 0-.2-.1-.5-.3-.7z"/></defs><clipPath id="SVGID_16_"><use xlink:href="#SVGID_15_" overflow="visible"/></clipPath><g class="st23"><path class="st11" d="M625 182.7c.1.1.2.2.2.3-.1-.1-.1-.2-.2-.3"/><path class="st12" d="M625.2 183c0 .1 0 .1.1.2-.1 0-.1-.1-.1-.2"/><path class="st13" d="M625.2 183.2v.2c.1 0 .1-.1 0-.2"/><path class="st14" d="M625.3 183.4"/></g><path class="st15" d="M624.2 182.4c.6 0 1.1.5 1.1 1s-.5 1.1-1 1.1c-.6 0-1.1-.5-1.1-1 0-.6.4-1.1 1-1.1z"/><defs><path id="SVGID_17_" d="M625.3 183.4c0 .6-.5 1.1-1.1 1.1.6 0 1.1-.5 1.1-1.1z"/></defs><clipPath id="SVGID_18_"><use xlink:href="#SVGID_17_" overflow="visible"/></clipPath><g class="st24"><path class="st14" d="M625.3 183.4v0"/><path class="st17" d="M625.3 183.6v0"/><path class="st18" d="M625.2 183.7c0 .1 0 .1-.1.2.1 0 .1-.1.1-.2"/><path class="st9" d="M625.2 183.9c-.2.4-.5.6-1 .6.4 0 .8-.2 1-.6"/></g><g><defs><path id="SVGID_19_" d="M626.7 149.1c.2.2.5.3.8.3-.4 0-.6-.1-.8-.3z"/></defs><clipPath id="SVGID_20_"><use xlink:href="#SVGID_19_" overflow="visible"/></clipPath><path class="st25 st9" d="M627.3 149.3c-.3 0-.6-.1-.8-.3.3.2.5.3.8.3"/><defs><path id="SVGID_21_" d="M628.1 147.5c.2.2.3.5.3.8 0-.3-.1-.6-.3-.8z"/></defs><clipPath id="SVGID_22_"><use xlink:href="#SVGID_21_" overflow="visible"/></clipPath><g class="st26"><path class="st11" d="M628.1 147.5c.1.1.2.2.2.3-.1-.1-.1-.2-.2-.3"/><path class="st12" d="M628.3 147.9c0 .1 0 .1.1.2-.1-.1-.1-.2-.1-.2"/><path class="st13" d="M628.3 148.1v.2c.1-.1.1-.2 0-.2"/><path class="st14" d="M628.4 148.2"/></g><ellipse class="st15" cx="627.3" cy="148.3" rx="1" ry="1.1"/><g><defs><path id="SVGID_23_" d="M628.4 148.3c0 .6-.4 1-.9 1h-.1c.6 0 1-.4 1-.9v-.1z"/></defs><clipPath id="SVGID_24_"><use xlink:href="#SVGID_23_" overflow="visible"/></clipPath><g class="st27"><path class="st14" d="M628.4 148.3v0"/><path class="st17" d="M628.4 148.4v0"/><path class="st18" d="M628.3 148.6c0 .1 0 .1-.1.2.1-.1.1-.2.1-.2"/><path class="st9" d="M628.3 148.8c-.2.4-.5.6-.9.6.3-.1.7-.3.9-.6"/></g></g></g><g><defs><path id="SVGID_25_" d="M621.5 109.7c.2.2.5.3.7.3-.2 0-.5-.1-.7-.3z"/></defs><clipPath id="SVGID_26_"><use xlink:href="#SVGID_25_" overflow="visible"/></clipPath><path class="st28 st9" d="M622.2 110c-.3 0-.5-.1-.7-.3.2.2.4.3.7.3"/><defs><path id="SVGID_27_" d="M623 108.2c.2.2.3.5.3.7 0-.2-.1-.5-.3-.7z"/></defs><clipPath id="SVGID_28_"><use xlink:href="#SVGID_27_" overflow="visible"/></clipPath><g class="st29"><path class="st11" d="M623 108.2c.1.1.2.2.2.3-.1-.1-.1-.2-.2-.3"/><path class="st12" d="M623.2 108.6c0 .1 0 .1.1.2-.1-.1-.1-.2-.1-.2"/><path class="st13" d="M623.2 108.7v.2c.1 0 .1-.1 0-.2"/><path class="st14" d="M623.3 108.9"/></g><circle class="st15" cx="622.2" cy="108.9" r="1.1"/><g><defs><path id="SVGID_29_" d="M623.3 108.9c0 .6-.5 1.1-1.1 1.1.6 0 1.1-.5 1.1-1.1z"/></defs><clipPath id="SVGID_30_"><use xlink:href="#SVGID_29_" overflow="visible"/></clipPath><g class="st30"><path class="st14" d="M623.3 108.9c0 .1 0 .1 0 0"/><path class="st17" d="M623.3 109.1v0"/><path class="st18" d="M623.2 109.2c0 .1 0 .1-.1.2.1 0 .1-.1.1-.2"/><path class="st9" d="M623.2 109.4c-.2.4-.5.6-1 .6.4 0 .8-.2 1-.6"/></g></g></g><g><defs><path id="SVGID_31_" d="M707.7 100.2c.2.2.5.3.8.3-.4 0-.6-.1-.8-.3z"/></defs><clipPath id="SVGID_32_"><use xlink:href="#SVGID_31_" overflow="visible"/></clipPath><path class="st31 st9" d="M708.4 100.5c-.3 0-.6-.1-.8-.3.2.2.5.3.8.3"/><defs><path id="SVGID_33_" d="M709.1 98.7c.2.2.3.5.3.8 0-.4-.1-.6-.3-.8z"/></defs><clipPath id="SVGID_34_"><use xlink:href="#SVGID_33_" overflow="visible"/></clipPath><g class="st32"><path class="st11" d="M709.1 98.7c.1.1.2.2.2.3 0-.1-.1-.2-.2-.3"/><path class="st12" d="M709.4 99c0 .1 0 .1.1.2-.1 0-.1-.1-.1-.2"/><path class="st13" d="M709.4 99.2v0"/><path class="st14" d="M709.4 99.4"/></g><circle class="st15" cx="708.4" cy="99.4" r="1.1"/><g><defs><path id="SVGID_35_" d="M709.4 99.4c0 .6-.5 1-1.1 1 .7.1 1.1-.4 1.1-1z"/></defs><clipPath id="SVGID_36_"><use xlink:href="#SVGID_35_" overflow="visible"/></clipPath><g class="st33"><path class="st14" d="M709.4 99.4c0 .1 0 .1 0 0"/><path class="st17" d="M709.4 99.6v0"/><path class="st18" d="M709.4 99.7c0 .1 0 .1-.1.2 0 0 .1-.1.1-.2"/><path class="st9" d="M709.3 99.9c-.2.4-.5.6-.9.6.4 0 .7-.2.9-.6"/></g></g></g><g><defs><path id="SVGID_37_" d="M747.3 97.7c.2.2.5.3.8.3-.3 0-.6-.1-.8-.3z"/></defs><clipPath id="SVGID_38_"><use xlink:href="#SVGID_37_" overflow="visible"/></clipPath><path class="st34 st9" d="M748.1 98c-.3 0-.6-.1-.8-.3.2.2.5.3.8.3"/><defs><path id="SVGID_39_" d="M748.8 96.2c.2.2.3.5.3.7 0-.2-.1-.5-.3-.7z"/></defs><clipPath id="SVGID_40_"><use xlink:href="#SVGID_39_" overflow="visible"/></clipPath><g class="st35"><path class="st11" d="M748.8 96.2c.1.1.2.2.2.3 0-.1-.1-.2-.2-.3"/><path class="st12" d="M749 96.6c0 .1 0 .1.1.2 0-.1-.1-.2-.1-.2"/><path class="st13" d="M749.1 96.7v0"/><path class="st14" d="M749.1 96.9"/></g><path class="st15" d="M748.1 95.9c.6 0 1 .5 1 1.1s-.5 1-1.1 1-1-.5-1-1c0-.6.5-1.1 1.1-1.1-.1 0-.1 0 0 0z"/><g><defs><path id="SVGID_41_" d="M749.1 96.9c0 .6-.5 1-1.1 1 .6.1 1.1-.4 1.1-1z"/></defs><clipPath id="SVGID_42_"><use xlink:href="#SVGID_41_" overflow="visible"/></clipPath><g class="st36"><path class="st14" d="M749.1 96.9c0 .1 0 .1 0 0"/><path class="st17" d="M749.1 97.1v0"/><path class="st18" d="M749.1 97.2c0 .1 0 .1-.1.2 0 0 0-.1.1-.2"/><path class="st9" d="M749 97.4c-.2.4-.5.6-.9.6.3 0 .7-.2.9-.6"/></g></g></g><g><defs><path id="SVGID_43_" d="M787.8 105.1c.2.2.3.5.3.8 0-.4-.1-.6-.3-.8z"/></defs><clipPath id="SVGID_44_"><use xlink:href="#SVGID_43_" overflow="visible"/></clipPath><g class="st37"><path class="st11" d="M787.8 105.1c.1.1.2.2.2.3 0-.1-.1-.2-.2-.3"/><path class="st12" d="M788 105.4c0 .1 0 .1.1.2 0 0-.1-.1-.1-.2"/><path class="st13" d="M788.1 105.6v0"/><path class="st14" d="M788.1 105.8"/></g><defs><path id="SVGID_45_" d="M786.3 106.6c.2.2.5.3.8.3-.3 0-.6-.1-.8-.3z"/></defs><clipPath id="SVGID_46_"><use xlink:href="#SVGID_45_" overflow="visible"/></clipPath><path class="st38 st9" d="M787 106.9c-.3 0-.6-.1-.8-.3.3.2.6.3.8.3"/><ellipse class="st15" cx="787" cy="105.8" rx="1" ry="1.1"/><g><defs><path id="SVGID_47_" d="M788.1 105.8c0 .6-.4 1-.9 1h-.1c.6 0 1-.4 1-1 0 .1 0 .1 0 0z"/></defs><clipPath id="SVGID_48_"><use xlink:href="#SVGID_47_" overflow="visible"/></clipPath><g class="st39"><path class="st14" d="M788.1 105.8c0 .1 0 .1 0 0"/><path class="st17" d="M788.1 106v0"/><path class="st18" d="M788.1 106.1c0 .1 0 .1-.1.2 0 0 0-.1.1-.2"/><path class="st9" d="M788 106.3c-.2.4-.5.6-.9.6.3 0 .7-.2.9-.6"/></g></g></g><g><defs><path id="SVGID_49_" d="M821 123.3c.2.2.5.3.8.3-.3 0-.6-.1-.8-.3z"/></defs><clipPath id="SVGID_50_"><use xlink:href="#SVGID_49_" overflow="visible"/></clipPath><path class="st40 st9" d="M821.7 123.6c-.3 0-.6-.1-.8-.3.2.2.5.3.8.3"/><defs><path id="SVGID_51_" d="M822.5 121.7c.2.2.3.5.3.8 0-.3-.2-.6-.3-.8z"/></defs><clipPath id="SVGID_52_"><use xlink:href="#SVGID_51_" overflow="visible"/></clipPath><g class="st41"><path class="st11" d="M822.5 121.7c.1.1.2.2.2.3-.1 0-.2-.2-.2-.3"/><path class="st12" d="M822.7 122.1c0 .1 0 .1.1.2-.1-.1-.1-.1-.1-.2"/><path class="st13" d="M822.8 122.3v0"/><path class="st14" d="M822.8 122.5"/></g><circle class="st15" cx="821.7" cy="122.5" r="1.1"/><g><defs><path id="SVGID_53_" d="M822.8 122.5c0 .6-.4 1-.9 1h-.1c.6 0 1-.4 1-1 0 .1 0 0 0 0z"/></defs><clipPath id="SVGID_54_"><use xlink:href="#SVGID_53_" overflow="visible"/></clipPath><g class="st42"><path class="st14" d="M822.8 122.5"/><path class="st17" d="M822.8 122.6v0"/><path class="st18" d="M822.7 122.8c0 .1 0 .1-.1.2.1-.1.1-.1.1-.2"/><path class="st9" d="M822.7 123c-.2.4-.5.6-.9.6.3 0 .7-.3.9-.6"/></g></g></g><g><defs><path id="SVGID_55_" d="M839.8 139.9c.2.2.5.3.7.3-.2 0-.5-.1-.7-.3z"/></defs><clipPath id="SVGID_56_"><use xlink:href="#SVGID_55_" overflow="visible"/></clipPath><path class="st43 st9" d="M840.5 140.2c-.3 0-.5-.1-.7-.3.1.2.4.3.7.3"/><defs><path id="SVGID_57_" d="M841.2 138.4c.2.2.3.5.3.7.1-.3-.1-.5-.3-.7z"/></defs><clipPath id="SVGID_58_"><use xlink:href="#SVGID_57_" overflow="visible"/></clipPath><g class="st44"><path class="st11" d="M841.2 138.4c.1.1.2.2.2.3 0-.1-.1-.2-.2-.3"/><path class="st12" d="M841.5 138.7c0 .1 0 .1.1.2-.1-.1-.1-.1-.1-.2"/><path class="st13" d="M841.5 138.9v0"/><path class="st14" d="M841.6 139.1"/></g><circle class="st15" cx="840.5" cy="139.1" r="1.1"/><g><defs><path id="SVGID_59_" d="M841.6 139.1c0 .6-.5 1.1-1.1 1.1.6 0 1.1-.5 1.1-1.1z"/></defs><clipPath id="SVGID_60_"><use xlink:href="#SVGID_59_" overflow="visible"/></clipPath><g class="st45"><path class="st14" d="M841.6 139.1v0"/><path class="st17" d="M841.5 139.2v0"/><path class="st18" d="M841.5 139.4c0 .1 0 .1-.1.2.1-.1.1-.1.1-.2"/><path class="st9" d="M841.4 139.6c-.2.4-.5.6-.9.6.4 0 .7-.3.9-.6"/></g></g></g><g><defs><path id="SVGID_61_" d="M867.3 171.6c.2.2.5.3.8.3-.3 0-.6-.1-.8-.3z"/></defs><clipPath id="SVGID_62_"><use xlink:href="#SVGID_61_" overflow="visible"/></clipPath><path class="st46 st9" d="M868 171.8c-.3 0-.6-.1-.8-.3.3.2.6.3.8.3"/><defs><path id="SVGID_63_" d="M868.8 170c.2.2.3.5.3.8 0-.3-.1-.6-.3-.8z"/></defs><clipPath id="SVGID_64_"><use xlink:href="#SVGID_63_" overflow="visible"/></clipPath><g class="st47"><path class="st11" d="M868.8 170c.1.1.2.2.2.3 0-.1-.1-.2-.2-.3"/><path class="st12" d="M869 170.4c0 .1 0 .1.1.2 0-.1-.1-.2-.1-.2"/><path class="st13" d="M869.1 170.6v0"/><path class="st14" d="M869.1 170.8"/></g><ellipse class="st15" cx="868" cy="170.8" rx="1" ry="1.1"/><g><defs><path id="SVGID_65_" d="M869.1 170.8c0 .6-.4 1-.9 1h-.1c.6 0 1-.4 1.1-.9l-.1-.1z"/></defs><clipPath id="SVGID_66_"><use xlink:href="#SVGID_65_" overflow="visible"/></clipPath><g class="st48"><path class="st14" d="M869.1 170.8v0"/><path class="st17" d="M869.1 170.9v0"/><path class="st18" d="M869.1 171.1c0 .1 0 .1-.1.2 0-.1 0-.2.1-.2"/><path class="st9" d="M869 171.2c-.2.4-.5.6-.9.6.3 0 .7-.2.9-.6"/></g></g></g><g><defs><path id="SVGID_67_" d="M829.8 172.5c.2.2.5.3.7.3-.2 0-.5-.1-.7-.3z"/></defs><clipPath id="SVGID_68_"><use xlink:href="#SVGID_67_" overflow="visible"/></clipPath><path class="st49 st9" d="M830.5 172.7c-.3 0-.5-.1-.7-.3.2.2.5.3.7.3"/><defs><path id="SVGID_69_" d="M831.3 170.9c.2.2.3.5.3.8 0-.3-.1-.6-.3-.8z"/></defs><clipPath id="SVGID_70_"><use xlink:href="#SVGID_69_" overflow="visible"/></clipPath><g class="st50"><path class="st11" d="M831.3 170.9c.1.1.2.2.2.3 0-.1-.1-.2-.2-.3"/><path class="st12" d="M831.5 171.3c0 .1 0 .1.1.2 0-.1-.1-.2-.1-.2"/><path class="st13" d="M831.6 171.5v0"/><path class="st14" d="M831.6 171.6"/></g><path class="st15" d="M830.5 170.6c.6 0 1.1.5 1.1 1s-.5 1.1-1.1 1.1-1.1-.5-1.1-1.1c.1-.6.6-1 1.1-1z"/><g><defs><path id="SVGID_71_" d="M831.6 171.7c0 .6-.5 1.1-1.1 1 .6 0 1.1-.5 1.1-1z"/></defs><clipPath id="SVGID_72_"><use xlink:href="#SVGID_71_" overflow="visible"/></clipPath><g class="st51"><path class="st14" d="M831.6 171.7v.1-.1"/><path class="st17" d="M831.6 171.8v0"/><path class="st18" d="M831.6 172c0 .1 0 .1-.1.2 0-.1 0-.2.1-.2"/><path class="st9" d="M831.5 172.1c-.2.4-.5.6-.9.6.3 0 .7-.2.9-.6"/></g></g></g><g><defs><path id="SVGID_73_" d="M844.2 144.6c.2.2.5.3.8.3-.4 0-.6-.1-.8-.3z"/></defs><clipPath id="SVGID_74_"><use xlink:href="#SVGID_73_" overflow="visible"/></clipPath><path class="st52 st9" d="M844.9 144.8c-.3 0-.6-.1-.8-.3.2.2.5.3.8.3"/><defs><path id="SVGID_75_" d="M845.7 143c.2.2.3.5.3.8 0-.3-.1-.6-.3-.8z"/></defs><clipPath id="SVGID_76_"><use xlink:href="#SVGID_75_" overflow="visible"/></clipPath><g class="st53"><path class="st11" d="M845.7 143c.1.1.2.2.2.3-.1-.1-.1-.2-.2-.3"/><path class="st12" d="M845.8 143.4c0 .1 0 .1.1.2 0-.1 0-.2-.1-.2"/><path class="st13" d="M845.9 143.6v0"/><path class="st14" d="M845.9 143.8"/></g><circle class="st15" cx="844.9" cy="143.8" r="1.1"/><g><defs><path id="SVGID_77_" d="M845.9 143.8c0 .6-.4 1-.9 1h-.1c.6 0 1-.4 1.1-.9l-.1-.1z"/></defs><clipPath id="SVGID_78_"><use xlink:href="#SVGID_77_" overflow="visible"/></clipPath><g class="st54"><path class="st14" d="M845.9 143.8v0"/><path class="st17" d="M845.9 143.9v0"/><path class="st18" d="M845.9 144.1c0 .1 0 .1-.1.2 0-.1.1-.2.1-.2"/><path class="st9" d="M845.8 144.2c-.2.4-.5.6-.9.6.4 0 .7-.2.9-.6"/></g></g></g><g><defs><path id="SVGID_79_" d="M316.5 197.2c.2.2.3.5.3.7 0-.2-.1-.5-.3-.7z"/></defs><clipPath id="SVGID_80_"><use xlink:href="#SVGID_79_" overflow="visible"/></clipPath><g class="st55"><path class="st11" d="M316.5 197.2c.1.1.2.2.2.3-.1-.1-.1-.2-.2-.3"/><path class="st12" d="M316.7 197.6c0 .1 0 .1.1.2-.1-.1-.1-.2-.1-.2"/><path class="st13" d="M316.8 197.7v0"/><path class="st14" d="M316.8 197.9"/></g><defs><path id="SVGID_81_" d="M315 198.7c.2.2.5.3.8.3-.3 0-.6-.1-.8-.3z"/></defs><clipPath id="SVGID_82_"><use xlink:href="#SVGID_81_" overflow="visible"/></clipPath><path class="st56 st9" d="M315.7 199c-.3 0-.6-.1-.8-.3.3.2.5.3.8.3"/><path class="st15" d="M315.7 196.9c.6 0 1.1.5 1.1 1.1s-.5 1.1-1.1 1.1-1.1-.5-1.1-1.1c0-.6.5-1.1 1.1-1.1z"/><g><defs><path id="SVGID_83_" d="M316.8 197.9c0 .6-.5 1.1-1 1.1.5 0 1-.5 1-1.1z"/></defs><clipPath id="SVGID_84_"><use xlink:href="#SVGID_83_" overflow="visible"/></clipPath><g class="st57"><path class="st14" d="M316.8 197.9v0"/><path class="st17" d="M316.8 198.1v0"/><path class="st18" d="M316.7 198.2c0 .1 0 .1-.1.2.1 0 .1-.1.1-.2"/><path class="st9" d="M316.7 198.4c-.2.4-.5.6-.9.6.3 0 .7-.2.9-.6"/></g></g></g><g><defs><path id="SVGID_85_" d="M317.3 145.9c.2.2.5.3.8.3-.4 0-.6-.1-.8-.3z"/></defs><clipPath id="SVGID_86_"><use xlink:href="#SVGID_85_" overflow="visible"/></clipPath><path class="st58 st9" d="M318 146.2c-.3 0-.6-.1-.8-.3.2.1.5.3.8.3"/><defs><path id="SVGID_87_" d="M318.7 144.4c.2.2.3.5.3.8 0-.4-.1-.7-.3-.8z"/></defs><clipPath id="SVGID_88_"><use xlink:href="#SVGID_87_" overflow="visible"/></clipPath><g class="st59"><path class="st11" d="M318.7 144.4c.1.1.2.2.2.3 0-.1-.1-.2-.2-.3"/><path class="st12" d="M319 144.7c0 .1 0 .1.1.2-.1-.1-.1-.1-.1-.2"/><path class="st13" d="M319 144.9v0"/><path class="st14" d="M319 145.1"/></g><path class="st15" d="M318 144c.6 0 1.1.5 1.1 1.1s-.5 1.1-1.1 1.1-1.1-.5-1.1-1.1c0-.6.5-1.1 1.1-1.1z"/><g><defs><path id="SVGID_89_" d="M319 145.1c0 .6-.5 1-1 1 .6.1 1-.4 1-1z"/></defs><clipPath id="SVGID_90_"><use xlink:href="#SVGID_89_" overflow="visible"/></clipPath><g class="st60"><path class="st14" d="M319 145.1v0"/><path class="st17" d="M319 145.2v0"/><path class="st18" d="M319 145.4c0 .1 0 .1-.1.2.1-.1.1-.1.1-.2"/><path class="st9" d="M318.9 145.6c-.2.4-.5.6-.9.6.4-.1.8-.3.9-.6"/></g></g></g><g><defs><path id="SVGID_91_" d="M314.3 111.4c.2.2.3.5.3.8 0-.4-.1-.7-.3-.8z"/></defs><clipPath id="SVGID_92_"><use xlink:href="#SVGID_91_" overflow="visible"/></clipPath><g class="st61"><path class="st11" d="M314.3 111.4c.1.1.2.2.2.3 0-.1-.1-.3-.2-.3"/><path class="st12" d="M314.5 111.7c0 .1 0 .1.1.2 0-.1-.1-.1-.1-.2"/><path class="st13" d="M314.6 111.9v0"/><path class="st14" d="M314.6 112.1"/></g><defs><path id="SVGID_93_" d="M312.8 112.9c.2.2.5.3.8.3-.3 0-.6-.1-.8-.3z"/></defs><clipPath id="SVGID_94_"><use xlink:href="#SVGID_93_" overflow="visible"/></clipPath><path class="st62 st9" d="M313.5 113.2c-.3 0-.6-.1-.8-.3.3.1.6.3.8.3"/><circle class="st15" cx="313.5" cy="112.1" r="1.1"/><g><defs><path id="SVGID_95_" d="M314.6 112.1c0 .6-.5 1.1-1 1.1.5 0 1-.5 1-1.1z"/></defs><clipPath id="SVGID_96_"><use xlink:href="#SVGID_95_" overflow="visible"/></clipPath><g class="st63"><path class="st14" d="M314.6 112.1"/><path class="st17" d="M314.6 112.2v0"/><path class="st18" d="M314.6 112.4c0 .1 0 .1-.1.2 0-.1 0-.1.1-.2"/><path class="st9" d="M314.5 112.6c-.2.4-.5.6-.9.6.3 0 .7-.3.9-.6"/></g></g></g><g><defs><path id="SVGID_97_" d="M281.2 104c.2.2.5.3.7.3-.3 0-.5-.1-.7-.3z"/></defs><clipPath id="SVGID_98_"><use xlink:href="#SVGID_97_" overflow="visible"/></clipPath><path class="st64 st9" d="M281.9 104.3c-.3 0-.5-.1-.7-.3.1.2.4.3.7.3"/><defs><path id="SVGID_99_" d="M282.7 102.5c.2.2.3.5.3.7 0-.3-.1-.5-.3-.7z"/></defs><clipPath id="SVGID_100_"><use xlink:href="#SVGID_99_" overflow="visible"/></clipPath><g class="st65"><path class="st11" d="M282.7 102.5c.1.1.2.2.2.3-.1-.1-.1-.2-.2-.3"/><path class="st12" d="M282.9 102.8c0 .1 0 .1.1.2-.1-.1-.1-.1-.1-.2"/><path class="st13" d="M282.9 103v0"/><path class="st14" d="M282.9 103.2"/></g><path class="st15" d="M281.9 102.2c.6 0 1.1.5 1.1 1 0 .6-.5 1.1-1 1.1-.6 0-1.1-.5-1.1-1-.1-.7.4-1.1 1-1.1z"/><g><defs><path id="SVGID_101_" d="M282.9 103.2c0 .6-.5 1.1-1.1 1.1.7 0 1.1-.5 1.1-1.1z"/></defs><clipPath id="SVGID_102_"><use xlink:href="#SVGID_101_" overflow="visible"/></clipPath><g class="st66"><path class="st14" d="M282.9 103.2c0 .1 0 0 0 0"/><path class="st17" d="M282.9 103.4v0"/><path class="st18" d="M282.9 103.5c0 .1 0 .1-.1.2 0-.1.1-.1.1-.2"/><path class="st9" d="M282.8 103.7c-.2.4-.5.6-1 .6.5 0 .8-.3 1-.6"/></g></g></g><g><defs><path id="SVGID_103_" d="M246.8 93c.2.2.3.5.3.8 0-.3-.1-.6-.3-.8z"/></defs><clipPath id="SVGID_104_"><use xlink:href="#SVGID_103_" overflow="visible"/></clipPath><g class="st67"><path class="st11" d="M246.8 93c.1.1.2.2.2.3 0-.1-.1-.2-.2-.3"/><path class="st12" d="M247 93.4c0 .1 0 .1.1.2 0-.1-.1-.2-.1-.2"/><path class="st13" d="M247.1 93.6v0"/><path class="st14" d="M247.1 93.7"/></g><defs><path id="SVGID_105_" d="M245.3 94.6c.2.2.5.3.8.3-.3 0-.6-.1-.8-.3z"/></defs><clipPath id="SVGID_106_"><use xlink:href="#SVGID_105_" overflow="visible"/></clipPath><path class="st68 st9" d="M246 94.8c-.3 0-.6-.1-.8-.3.3.2.6.3.8.3"/><circle class="st15" cx="246" cy="93.8" r="1.1"/><g><defs><path id="SVGID_107_" d="M247.1 93.8c0 .6-.5 1.1-1 1.1.5-.1 1-.6 1-1.1z"/></defs><clipPath id="SVGID_108_"><use xlink:href="#SVGID_107_" overflow="visible"/></clipPath><g class="st69"><path class="st14" d="M247.1 93.8"/><path class="st17" d="M247.1 93.9v0"/><path class="st18" d="M247.1 94.1c0 .1 0 .1-.1.2 0-.1 0-.2.1-.2"/><path class="st9" d="M247 94.2c-.2.4-.5.6-.9.6.3 0 .7-.2.9-.6"/></g></g></g><g><defs><path id="SVGID_109_" d="M212 83.7c.2.2.3.5.3.7 0-.2-.1-.5-.3-.7z"/></defs><clipPath id="SVGID_110_"><use xlink:href="#SVGID_109_" overflow="visible"/></clipPath><g class="st70"><path class="st11" d="M212 83.7c.1.1.2.2.2.3-.1-.1-.1-.2-.2-.3"/><path class="st12" d="M212.2 84c0 .1 0 .1.1.2-.1 0-.1-.1-.1-.2"/><path class="st13" d="M212.2 84.2v.2c.1 0 .1-.1 0-.2"/><path class="st14" d="M212.3 84.4"/></g><defs><path id="SVGID_111_" d="M210.5 85.2c.2.2.5.3.8.3-.3 0-.6-.1-.8-.3z"/></defs><clipPath id="SVGID_112_"><use xlink:href="#SVGID_111_" overflow="visible"/></clipPath><path class="st71 st9" d="M211.2 85.5c-.3 0-.6-.1-.8-.3.3.2.5.3.8.3"/><path class="st15" d="M211.2 83.4c.6 0 1.1.5 1.1 1.1s-.5 1.1-1.1 1.1-1.1-.5-1.1-1.1c0-.6.5-1.1 1.1-1.1z"/><g><defs><path id="SVGID_113_" d="M212.3 84.4c0 .6-.4 1.1-1 1.1.5 0 1-.5 1-1.1 0 .1 0 0 0 0z"/></defs><clipPath id="SVGID_114_"><use xlink:href="#SVGID_113_" overflow="visible"/></clipPath><g class="st72"><path class="st14" d="M212.3 84.4c0 .1 0 .1 0 0"/><path class="st17" d="M212.3 84.6v0"/><path class="st18" d="M212.2 84.7c0 .1 0 .1-.1.2.1 0 .1-.1.1-.2"/><path class="st9" d="M212.1 84.9c-.2.4-.5.6-.9.6.4 0 .8-.2.9-.6"/></g></g></g><g><defs><path id="SVGID_115_" d="M176.3 80.9c.2.2.3.5.3.7 0-.3-.1-.6-.3-.7z"/></defs><clipPath id="SVGID_116_"><use xlink:href="#SVGID_115_" overflow="visible"/></clipPath><g class="st73"><path class="st11" d="M176.3 80.9c.1.1.2.2.2.3 0-.1-.1-.2-.2-.3"/><path class="st12" d="M176.5 81.2c0 .1 0 .1.1.2 0-.1-.1-.1-.1-.2"/><path class="st13" d="M176.6 81.4v0"/><path class="st14" d="M176.6 81.6"/></g><defs><path id="SVGID_117_" d="M174.8 82.4c.2.2.5.3.8.3-.3 0-.6-.1-.8-.3z"/></defs><clipPath id="SVGID_118_"><use xlink:href="#SVGID_117_" overflow="visible"/></clipPath><path class="st74 st9" d="M175.6 82.7c-.3 0-.6-.1-.8-.3.2.1.5.3.8.3"/><path class="st15" d="M175.6 80.6c.6 0 1.1.5 1.1 1.1s-.5 1.1-1.1 1.1-1.1-.5-1.1-1.1c0-.7.5-1.1 1.1-1.1-.1 0-.1 0 0 0z"/><g><defs><path id="SVGID_119_" d="M176.6 81.6c0 .6-.5 1.1-1 1.1.5-.1 1-.5 1-1.1z"/></defs><clipPath id="SVGID_120_"><use xlink:href="#SVGID_119_" overflow="visible"/></clipPath><g class="st75"><path class="st14" d="M176.6 81.6"/><path class="st17" d="M176.6 81.7v0"/><path class="st18" d="M176.6 81.9c0 .1 0 .1-.1.2 0-.1 0-.1.1-.2"/><path class="st9" d="M176.5 82.1c-.2.4-.5.6-.9.6.3 0 .7-.3.9-.6"/></g></g></g><g><defs><path id="SVGID_121_" d="M139.8 84.7c.2.2.5.3.8.3-.3 0-.6-.1-.8-.3z"/></defs><clipPath id="SVGID_122_"><use xlink:href="#SVGID_121_" overflow="visible"/></clipPath><path class="st76 st9" d="M140.6 85c-.3 0-.6-.1-.8-.3.2.2.5.3.8.3"/><defs><path id="SVGID_123_" d="M141.3 83.2c.2.2.3.5.3.8 0-.4-.1-.6-.3-.8z"/></defs><clipPath id="SVGID_124_"><use xlink:href="#SVGID_123_" overflow="visible"/></clipPath><g class="st77"><path class="st11" d="M141.3 83.2c.1.1.2.2.2.3 0-.1-.1-.2-.2-.3"/><path class="st12" d="M141.5 83.6c0 .1 0 .1.1.2 0-.1-.1-.2-.1-.2"/><path class="st13" d="M141.6 83.7v0"/><path class="st14" d="M141.6 83.9"/></g><path class="st15" d="M140.6 82.9c.6 0 1.1.5 1.1 1.1s-.5 1.1-1.1 1.1-1.1-.5-1.1-1.1c0-.7.5-1.1 1.1-1.1z"/><g><defs><path id="SVGID_125_" d="M141.6 83.9c0 .6-.5 1-1 1 .5.1 1-.4 1-1z"/></defs><clipPath id="SVGID_126_"><use xlink:href="#SVGID_125_" overflow="visible"/></clipPath><g class="st78"><path class="st14" d="M141.6 83.9c0 .1 0 .1 0 0"/><path class="st17" d="M141.6 84.1v0"/><path class="st18" d="M141.6 84.2c0 .1 0 .1-.1.2 0 0 0-.1.1-.2"/><path class="st9" d="M141.5 84.4c-.2.4-.5.6-.9.6.3 0 .7-.2.9-.6"/></g></g></g><g><defs><path id="SVGID_127_" d="M101.7 87c.2.2.5.3.8.3-.4.1-.6-.1-.8-.3z"/></defs><clipPath id="SVGID_128_"><use xlink:href="#SVGID_127_" overflow="visible"/></clipPath><path class="st79 st9" d="M102.4 87.3c-.3 0-.6-.1-.8-.3.2.2.5.3.8.3"/><defs><path id="SVGID_129_" d="M103.1 85.5c.2.2.3.5.3.8 0-.3-.1-.6-.3-.8z"/></defs><clipPath id="SVGID_130_"><use xlink:href="#SVGID_129_" overflow="visible"/></clipPath><g class="st80"><path class="st11" d="M103.1 85.5c.1.1.2.2.2.3 0-.1-.1-.2-.2-.3"/><path class="st12" d="M103.4 85.9c0 .1 0 .1.1.2-.1-.1-.1-.2-.1-.2"/><path class="st13" d="M103.4 86.1v0"/><path class="st14" d="M103.4 86.2"/></g><circle class="st15" cx="102.4" cy="86.3" r="1.1"/><g><defs><path id="SVGID_131_" d="M103.4 86.3c0 .6-.4 1-.9 1h-.1c.6 0 1-.4 1-1z"/></defs><clipPath id="SVGID_132_"><use xlink:href="#SVGID_131_" overflow="visible"/></clipPath><g class="st81"><path class="st14" d="M103.4 86.3"/><path class="st17" d="M103.4 86.4v0"/><path class="st18" d="M103.4 86.6c0 .1 0 .1-.1.2 0-.1.1-.2.1-.2"/><path class="st9" d="M103.3 86.8c-.2.4-.5.6-.9.6.4-.1.7-.3.9-.6"/></g></g></g><g><defs><path id="SVGID_133_" d="M90 108.2c.2.2.3.5.3.8 0-.4-.1-.6-.3-.8z"/></defs><clipPath id="SVGID_134_"><use xlink:href="#SVGID_133_" overflow="visible"/></clipPath><g class="st82"><path class="st11" d="M90 108.2c.1.1.2.2.2.3-.1-.1-.1-.2-.2-.3"/><path class="st12" d="M90.2 108.6c0 .1 0 .1.1.2-.1-.1-.1-.2-.1-.2"/><path class="st13" d="M90.2 108.7v0"/><path class="st14" d="M90.3 108.9"/></g><defs><path id="SVGID_135_" d="M88.5 109.7c.2.2.5.3.7.3-.2 0-.5-.1-.7-.3z"/></defs><clipPath id="SVGID_136_"><use xlink:href="#SVGID_135_" overflow="visible"/></clipPath><path class="st83 st9" d="M89.2 110c-.3 0-.5-.1-.7-.3.2.2.4.3.7.3"/><ellipse class="st15" cx="89.2" cy="108.9" rx="1.1" ry="1.1"/><g><defs><path id="SVGID_137_" d="M90.3 108.9c0 .6-.5 1.1-1 1.1.5 0 1-.5 1-1.1z"/></defs><clipPath id="SVGID_138_"><use xlink:href="#SVGID_137_" overflow="visible"/></clipPath><g class="st84"><path class="st14" d="M90.3 108.9c0 .1 0 .1 0 0"/><path class="st17" d="M90.2 109.1v.2c.1-.1.1-.2 0-.2"/><path class="st18" d="M90.2 109.2c0 .1 0 .1-.1.2.1 0 .1-.1.1-.2"/><path class="st9" d="M90.1 109.4c-.2.4-.5.6-.9.6.4 0 .8-.2.9-.6"/></g></g></g><g><defs><path id="SVGID_139_" d="M128.7 137.1c.2.2.5.3.8.3-.4 0-.6-.1-.8-.3z"/></defs><clipPath id="SVGID_140_"><use xlink:href="#SVGID_139_" overflow="visible"/></clipPath><path class="st85 st9" d="M129.4 137.4c-.3 0-.6-.1-.8-.3.2.1.5.3.8.3"/><defs><path id="SVGID_141_" d="M130.1 135.6c.2.2.3.5.3.8 0-.4-.1-.6-.3-.8z"/></defs><clipPath id="SVGID_142_"><use xlink:href="#SVGID_141_" overflow="visible"/></clipPath><g class="st86"><path class="st11" d="M130.1 135.6c.1.1.2.2.2.3 0-.1-.1-.2-.2-.3"/><path class="st12" d="M130.4 135.9c0 .1 0 .1.1.2-.1-.1-.1-.1-.1-.2"/><path class="st13" d="M130.4 136.1v0"/><path class="st14" d="M130.4 136.3"/></g><ellipse class="st15" cx="129.4" cy="136.3" rx="1.1" ry="1.1"/><g><defs><path id="SVGID_143_" d="M130.4 136.3c0 .6-.4 1-.9 1h-.1c.6 0 1-.4 1-.9v-.1z"/></defs><clipPath id="SVGID_144_"><use xlink:href="#SVGID_143_" overflow="visible"/></clipPath><g class="st87"><path class="st14" d="M130.4 136.3v0"/><path class="st17" d="M130.4 136.5v0"/><path class="st18" d="M130.4 136.6c0 .1 0 .1-.1.2 0-.1.1-.2.1-.2"/><path class="st9" d="M130.3 136.8c-.2.4-.5.6-.9.6.4 0 .7-.2.9-.6"/></g></g></g><g><defs><path id="SVGID_145_" d="M95.3 157.3c.2.2.5.3.8.3-.4 0-.6-.1-.8-.3z"/></defs><clipPath id="SVGID_146_"><use xlink:href="#SVGID_145_" overflow="visible"/></clipPath><path class="st88 st9" d="M96 157.6c-.3 0-.6-.1-.8-.3.2.2.5.3.8.3"/><defs><path id="SVGID_147_" d="M96.7 155.8c.2.2.3.5.3.8 0-.3-.1-.6-.3-.8z"/></defs><clipPath id="SVGID_148_"><use xlink:href="#SVGID_147_" overflow="visible"/></clipPath><g class="st89"><path class="st11" d="M96.7 155.8c.1.1.2.2.2.3 0-.1-.1-.2-.2-.3"/><path class="st12" d="M97 156.1c0 .1 0 .1.1.2-.1 0-.1-.1-.1-.2"/><path class="st13" d="M97 156.4v0"/><path class="st14" d="M97 156.6"/></g><circle class="st15" cx="96" cy="156.6" r="1.1"/><g><defs><path id="SVGID_149_" d="M97 156.6c0 .6-.4 1-.9 1H96c.6 0 1-.4 1-.9v-.1z"/></defs><clipPath id="SVGID_150_"><use xlink:href="#SVGID_149_" overflow="visible"/></clipPath><g class="st90"><path class="st14" d="M97 156.6v0"/><path class="st17" d="M97 156.7v0"/><path class="st18" d="M97 156.9c0 .1 0 .1-.1.2 0-.1.1-.2.1-.2"/><path class="st9" d="M96.9 157c-.2.4-.5.6-.9.6.4 0 .7-.2.9-.6"/></g></g></g><g><defs><path id="SVGID_151_" d="M78.2 141c.2.2.5.3.8.3-.4.1-.6-.1-.8-.3z"/></defs><clipPath id="SVGID_152_"><use xlink:href="#SVGID_151_" overflow="visible"/></clipPath><path class="st91 st9" d="M78.9 141.3c-.3 0-.6-.1-.8-.3.2.2.5.3.8.3"/><defs><path id="SVGID_153_" d="M79.7 139.5c.2.2.3.5.3.8 0-.3-.1-.6-.3-.8z"/></defs><clipPath id="SVGID_154_"><use xlink:href="#SVGID_153_" overflow="visible"/></clipPath><g class="st92"><path class="st11" d="M79.7 139.5c.1.1.2.2.2.3-.1-.1-.1-.2-.2-.3"/><path class="st12" d="M79.9 139.9c0 .1 0 .1.1.2-.1-.1-.1-.2-.1-.2"/><path class="st13" d="M79.9 140.1v0"/><path class="st14" d="M79.9 140.2"/></g><circle class="st15" cx="78.9" cy="140.3" r="1.1"/><g><defs><path id="SVGID_155_" d="M79.9 140.3c0 .6-.4 1-.9 1h-.1c.6 0 1-.4 1-.9v-.1z"/></defs><clipPath id="SVGID_156_"><use xlink:href="#SVGID_155_" overflow="visible"/></clipPath><g class="st93"><path class="st14" d="M79.9 140.3v0"/><path class="st17" d="M79.9 140.4v0"/><path class="st18" d="M79.9 140.6c0 .1 0 .1-.1.2 0-.1.1-.2.1-.2"/><path class="st9" d="M79.8 140.8c-.2.4-.5.6-.9.6.4-.1.7-.3.9-.6"/></g></g></g><g><defs><path id="SVGID_157_" d="M86 116.6c.2.2.5.3.7.3-.2 0-.5-.1-.7-.3z"/></defs><clipPath id="SVGID_158_"><use xlink:href="#SVGID_157_" overflow="visible"/></clipPath><path class="st94 st9" d="M86.7 116.8c-.3 0-.5-.1-.7-.3.1.2.4.3.7.3"/><defs><path id="SVGID_159_" d="M87.5 115c.2.2.3.5.3.8 0-.3-.1-.6-.3-.8z"/></defs><clipPath id="SVGID_160_"><use xlink:href="#SVGID_159_" overflow="visible"/></clipPath><g class="st95"><path class="st11" d="M87.5 115c.1.1.2.2.2.3-.1-.1-.1-.2-.2-.3"/><path class="st12" d="M87.7 115.4c0 .1 0 .1.1.2-.1-.1-.1-.2-.1-.2"/><path class="st13" d="M87.8 115.6v0"/><path class="st14" d="M87.8 115.8"/></g><path class="st15" d="M86.7 114.7c.6 0 1.1.4 1.1 1s-.4 1.1-1 1.1-1.1-.4-1.1-1v-.1c0-.5.4-1 1-1z"/><g><defs><path id="SVGID_161_" d="M87.8 115.8c0 .6-.5 1-1.1 1 .6 0 1.1-.4 1.1-1z"/></defs><clipPath id="SVGID_162_"><use xlink:href="#SVGID_161_" overflow="visible"/></clipPath><g class="st96"><path class="st14" d="M87.8 115.8"/><path class="st17" d="M87.8 115.9v0"/><path class="st18" d="M87.7 116.1c0 .1 0 .1-.1.2.1-.1.1-.2.1-.2"/><path class="st9" d="M87.7 116.2c-.2.4-.5.6-1 .6.4 0 .8-.2 1-.6"/></g></g></g><g><defs><path id="SVGID_163_" d="M109.5 166.4c.2.2.3.5.3.7 0-.3-.1-.6-.3-.7z"/></defs><clipPath id="SVGID_164_"><use xlink:href="#SVGID_163_" overflow="visible"/></clipPath><g class="st97"><path class="st11" d="M109.5 166.4c.1.1.2.2.2.3-.1-.1-.1-.2-.2-.3"/><path class="st12" d="M109.7 166.7c0 .1 0 .1.1.2-.1-.1-.1-.1-.1-.2"/><path class="st13" d="M109.8 166.9v0"/><path class="st14" d="M109.8 167.1"/></g><defs><path id="SVGID_165_" d="M108 167.9c.2.2.5.3.8.3-.3 0-.6-.1-.8-.3z"/></defs><clipPath id="SVGID_166_"><use xlink:href="#SVGID_165_" overflow="visible"/></clipPath><path class="st98 st9" d="M108.7 168.2c-.3 0-.6-.1-.8-.3.3.1.5.3.8.3"/><path class="st15" d="M108.7 166c.6 0 1.1.5 1.1 1.1s-.5 1.1-1.1 1.1-1.1-.5-1.1-1.1c0-.6.5-1.1 1.1-1.1z"/><g><defs><path id="SVGID_167_" d="M109.8 167.1c0 .6-.5 1.1-1 1.1.5 0 1-.5 1-1.1z"/></defs><clipPath id="SVGID_168_"><use xlink:href="#SVGID_167_" overflow="visible"/></clipPath><g class="st99"><path class="st14" d="M109.8 167.1v0"/><path class="st17" d="M109.8 167.2v0"/><path class="st18" d="M109.7 167.4c0 .1 0 .1-.1.2.1-.1.1-.1.1-.2"/><path class="st9" d="M109.7 167.6c-.2.4-.5.6-.9.6.3-.1.7-.3.9-.6"/></g></g></g><g><defs><path id="SVGID_169_" d="M345.7 197.5c.2.2.3.5.3.7 0-.2-.1-.5-.3-.7z"/></defs><clipPath id="SVGID_170_"><use xlink:href="#SVGID_169_" overflow="visible"/></clipPath><g class="st100"><path class="st11" d="M345.7 197.5c.1.1.2.2.2.3 0-.1-.1-.2-.2-.3"/><path class="st12" d="M346 197.9c0 .1 0 .1.1.2-.1-.1-.1-.2-.1-.2"/><path class="st13" d="M346 198.1v0"/><path class="st14" d="M346 198.2"/></g><defs><path id="SVGID_171_" d="M344.3 199.1c.2.2.5.3.8.3-.4 0-.6-.1-.8-.3z"/></defs><clipPath id="SVGID_172_"><use xlink:href="#SVGID_171_" overflow="visible"/></clipPath><path class="st101 st9" d="M345 199.3c-.3 0-.6-.1-.8-.3.2.2.5.3.8.3"/><path class="st15" d="M345 197.2c.6 0 1.1.5 1.1 1.1s-.5 1.1-1.1 1.1-1.1-.5-1.1-1.1c0-.6.5-1.1 1.1-1.1z"/><g><defs><path id="SVGID_173_" d="M346 198.3c0 .6-.5 1.1-1 1.1.6-.1 1-.6 1-1.1z"/></defs><clipPath id="SVGID_174_"><use xlink:href="#SVGID_173_" overflow="visible"/></clipPath><g class="st102"><path class="st14" d="M346 198.3v0"/><path class="st17" d="M346 198.4v0"/><path class="st18" d="M346 198.6c0 .1 0 .1-.1.2.1-.1.1-.2.1-.2"/><path class="st9" d="M345.9 198.7c-.2.4-.5.6-.9.6.4 0 .8-.2.9-.6"/></g></g></g><g><defs><path id="SVGID_175_" d="M330.3 176.1c.2.2.5.3.8.3-.3 0-.6-.1-.8-.3z"/></defs><clipPath id="SVGID_176_"><use xlink:href="#SVGID_175_" overflow="visible"/></clipPath><path class="st103 st9" d="M331 176.3c-.3 0-.6-.1-.8-.3.3.2.6.3.8.3"/><defs><path id="SVGID_177_" d="M331.8 174.5c.2.2.3.5.3.8 0-.3-.1-.6-.3-.8z"/></defs><clipPath id="SVGID_178_"><use xlink:href="#SVGID_177_" overflow="visible"/></clipPath><g class="st104"><path class="st11" d="M331.8 174.5c.1.1.2.2.2.3 0-.1-.1-.2-.2-.3"/><path class="st12" d="M332 174.9c0 .1 0 .1.1.2 0-.1-.1-.2-.1-.2"/><path class="st13" d="M332.1 175.1v0"/><path class="st14" d="M332.1 175.2"/></g><circle class="st15" cx="331" cy="175.3" r="1.1"/><g><defs><path id="SVGID_179_" d="M332.1 175.3c0 .6-.5 1-1.1 1 .6 0 1.1-.4 1.1-1z"/></defs><clipPath id="SVGID_180_"><use xlink:href="#SVGID_179_" overflow="visible"/></clipPath><g class="st105"><path class="st14" d="M332.1 175.3v0"/><path class="st17" d="M332.1 175.4v0"/><path class="st18" d="M332.1 175.6c0 .1 0 .1-.1.2 0-.1 0-.2.1-.2"/><path class="st9" d="M332 175.7c-.2.4-.5.6-1 .6.4 0 .8-.2 1-.6"/></g></g></g></g><g id="tail_lights"><path class="st106" d="M91 84.8c-.4-.4-.9-.6-1.4-.6-12.8-1.5-25.6-1.8-38.5-1-1.3-.2-2.6.7-2.8 2.1v.5l-3.5 19.6 1.1.5c1.9-1.3 4.6.5 5.5 2.6s1.1 4.6 2.4 6.5c1.6 2.2 4.6 3.2 7.3 2.9 2.7-.4 5.3-1.4 7.6-3 7.7-4.8 14.2-11.4 18.8-19.2 1.9-2.9 3.1-6.2 3.7-9.6.1-.4 0-.9-.2-1.3z"/><ellipse class="st107" cx="127.3" cy="101" rx="17.9" ry="14.5"/><path class="st108" d="M80.1 101.7c-1.3 0-3.2-.1-4.4-.9-1.9-1.3-.6-2.6.8-3.7 2.6-2 6-3.2 8.9-.9V94c-1.1.9-2.2 1.8-3.1 2.9-.8.9-1.5 2.8-2.4 3.4s-1.7.1-2.7-.5c-.5-.3-1.2.1.4-.2s3.6-1.5 5.2-2.2c.8-.2 1.3-1.1 1-1.9-.1-.2-.2-.4-.4-.6-.9-1-2.3-1.3-3.5-.7-1.5.7-3.8 3.4-3.9 5-.2 1.3.7 2.4 2 2.6.6.1 1.3 0 1.8-.3.2-.1 1.8-2.1 2-2l-.9-2.2c-1.3 1.9-3 4.5-1.3 6.5.4.4.9.5 1.5.4 2.3-.5 5.3-4.8 5.5-7.1.3-4-4.7-4.7-7.7-5.2-3.2-.5-7.6 0-9.2 3.4-1.5 3.2 1.1 5.7 3.9 6.9 1.3.6 2.9-.6 2-2-1-1.8-.3-4.2-2.3-5.4-1.8-1-3.9-.1-4.9 1.5-3.7 5.7 3.5 7.5 7.3 9.1 1.8.8 2.5-2.2.8-2.9-1.1-.5-2.4-.9-3.4-1.5l-1.1-.5c-1.8-1.4-2-2-.6-1.8.5-.3.8-.2.8.2s0 .7.1 1c.3.5.4 1.2.7 1.8l2-2c-2.1-.9-3.8-3.4-.7-4.5 1.8-.7 3.9-.2 5.7.2 2 .5 4.1 1.5 2.4 3.6-.4.5-1.6 2.4-2.2 2.5l1.5.4c0-.1 1.6-2.7 1.8-2.9.4-.7.2-1.6-.6-2.1-.1-.1-.2-.1-.3-.1-.8-.3-1.7-.2-2.5.2-.3.2-.6.4-.9.7-.8 2 2.5.2 2-.3l.7-2.5c-2 .9-6.5 1.8-7.9 3.7s.4 3.2 1.9 4.3 3.5 2.4 5.3 1c1-.7 1.4-2.2 2.1-3.2 1.2-1.6 2.6-3.1 4.2-4.3.6-.6.6-1.5 0-2.1-4.9-4-11-1.7-15 2.5-4.8 5.2 3.2 8 7.5 8.1 1.9 0 1.9-3 0-3l.1-.2z"/><path class="st109" d="M76.1 105h3.3c.8 0 1.5-.7 1.5-1.5s-.7-1.5-1.5-1.5h-3.3c-.8 0-1.5.7-1.5 1.5s.6 1.5 1.5 1.5z"/></g><path d="M828.7 230.1l-.6 14.3 37.2.4s.6-4.1 13.9-2.4 28.9.8 28.9.8l17.7-2s18.7-4.8 2.7-7.7c-4.7-.8-.5-.8-14-1.7-32.5-2.2-85.8-1.7-85.8-1.7z" id="headlights"/><g id="side_skirts"><path class="st110" d="M659.3 239c-65.7.4-129-1.7-194.7-1.3-15.2.1-33.2 0-48.3-1.3-17.5-1.6-33.9-4.3-51.3-6.3-34-4-69.5-3.1-103.7-1.5-.7 5.5-2.5 12.7-3.2 18.2 21.8-.3 44.8 1.1 66.5.8 3.4 0 12.8-.1 16-1.2 2.4-.9 3.9-4.8 6.5-5.2 17.2-3.2 25.2.8 44 2 14.1.9 28.1 2.1 42.2 2.2 15 .2 32.5.6 47.5.8 63.1.7 123.7-.1 186.8.5 3.9 0 10.9 1.1 10.7-2.8 0-1.6 1.1-3.3-.8-4.2-4-2.1-14.2-.8-18.2-.7z"/><path d="M659.3 238.2c-53 .3-106.1-1-159.1-1.3-25.2-.1-50.5.8-75.6-.7s-49.8-6.5-74.9-8.4c-29.5-2.3-59-1.4-88.5 0-.3 0-.6.2-.7.5-.9 6.1-2.4 12.1-3.2 18.2-.1.4.1.8.5.9h.2c17.2-.2 34.3.5 51.4.7 6.7.1 13.3.1 20-.1 3.8-.1 9.2.3 12.5-1.9 1.1-.7 1.8-1.9 2.7-2.8 2.2-2 4.5-2.2 7.4-2.6 3.4-.4 6.9-.5 10.3-.4 6.4.3 12.7 1.5 19 2.2 16.6 1.9 33.3 3 50 3.2 68.5 1.2 137 .8 205.5 1.1 9.9 0 19.8 0 29.7.2 3 0 9.8 1.5 11.9-1.6 2-2.9 1-6.3-2.1-7.3-5.2-1.5-11.7 0-17 .1-.4 0-.7.4-.7.8s.3.8.8.8c4.5-.1 9.1-.8 13.6-.4 2.4.2 5.8 1.1 4.5 4.4-1.3 3.3-5.8 2.2-8.4 2.1-14.7-.5-29.3-.3-44-.3-30.3-.1-60.7 0-91 0-29 0-58-.3-87-.8-14.2-.2-28.5-.6-42.7-1.5-12.8-.9-25.3-2.6-38-3.8-5.3-.5-10.7-.4-16 .3-1.6.2-3.4.3-4.9 1.1-2.7 1.5-3.6 4.2-6.9 5.2-4.1 1.2-9.2.8-13.5.8-7.2.1-14.4 0-21.5-.1-7-.1-14-.3-21.1-.5-3.5-.1-7-.1-10.5-.2h-4.7c-1.4 0-6.5.8-7.5 0-1.4-1-.8-1.6-.4-3.4.2-1.3.5-2.6.8-3.9.4-2 .4-7 1.6-8.5 1.7-2.2 8.4-1.3 10.9-1.4 3.8-.2 7.7-.3 11.5-.4 29.6-.9 59.1-.4 88.4 3.3 14.5 1.9 29 4.1 43.7 5.4 13.3 1.2 26.6 1.4 40 1.4 67.7 0 135.4 1.7 203.1 1.3.4 0 .8-.4.8-.8-.1-.6-.5-.9-.9-.9z"/><path class="st110" d="M259.9 245.8v-.1h-2.3l2.3.1z"/><path d="M260.7 246v-.1c.1-.4-.1-.8-.5-.9h-2.5c-.4 0-.8.3-.8.8s.3.8.8.8l2.3.1c1 0 1-1.5 0-1.5l-2.3-.1v1.5h2.3l-.7-1v.1c-.1.4.1.8.5.9.3 0 .7-.2.9-.6z"/></g><g id="fender_garnish"><path class="st111" d="M592 87.7h3.4l-.1-.1-3.3.1z"/><path class="st112" d="M592 88.4h3.4c.4 0 .7-.4.7-.8 0-.2-.1-.4-.2-.5-.5-.5-1.4-.3-2-.3H592c-.4 0-.8.3-.8.8s.4.8.8.8l3.4-.1-.5-.2.1.1.5-1.3H592c-.4.1-.7.4-.6.9 0 .3.3.6.6.6z"/><path class="st111" d="M595.4 87.7C603.2 95 611 102 621 105.5c5 1.7 10.3 2 15.5 2.6 11.1 1.4 26 3.7 37 2.2 4.1-1.1 8.1-2.5 11.9-4.1 5.7-2.5 10.8-7.3 14.6-12.2-34.2-4.6-70-6-104.6-6.3z"/><path class="st112" d="M675.1 104.7c-1.5-.3-2.7.5-2.5 2.2 0 .4.4.8.8.7h.2c5-1.4 10-3 15-4.6.3-.1.5-.4.6-.7-.3-2.2-2.4-2.2-4.2-1.8-4.5 1-9 2.5-13.2 4.4-.7.3-.3 1.5.4 1.4 5.8-.5 11.6-1.8 17-4 .9-.3.5-1.8-.4-1.5-5.3 2.2-10.9 3.5-16.6 4l.4 1.4c1.3-.5 13.5-5.6 14.2-4.3.1.2-11.9 3.9-13.5 4.3l1 .7.6-.7c.7.2 1.1-1.2.2-1.5z"/><path class="st113" d="M644 96.3l-10.7-.4v-2.4h-5.1v2.1l-8.2-.4-.2 4.9 8.4.4v1.5h5.1v-1.2l10.5.4z"/></g><g id="headlights-2"><path class="st114" d="M886.2 138.8c-1.8-2.4-6.4-3.7-9-5.2-3.9-2.2-6.2-2.8-10.5-4-2.5-.7-5-2.7-7.4-3.7-2.3-.9-6.8-2-8.9-3.2-6.5-3.5-9.4-4.2-16.7-5.5-1.3-.2-5.1-.9-6.3-.7s-1.3 2.1-.8 3c.8 1.3 1.6 2.5 2.6 3.7 5.4 6.8 13 11.5 18.7 17.9 1.4 1.8 3 3.5 4.8 5 1.3 1 2.8 1.8 4 2.9.8.9 1.7 1.6 2.7 2.2.9.4 2 .7 3 .8 1.2.1 2.5.3 3.7.4 2.1.2 4.7 0 5.5-1.9.5-1.1.2-2.4.7-3.4.6-.9 1.5-1.5 2.6-1.5s2.1.1 3.1.4c2.7.7 5.4 1.2 8.1 1.7.4.1.8.1 1.2-.1.2-.2.4-.4.5-.7 1.2-2.4.3-5.7-1.6-8.1z"/><path class="st115" d="M886.8 138.3c-3.2-3.4-8.9-5.5-13.2-7.3-3.4-1.4-6.9-2.1-10.1-3.8-2.5-1.3-5-2.4-7.7-3.2-5.5-1.8-10.4-4.9-16.1-6.3-2.7-.7-9.8-3.1-12.6-1.7-7 3.4 13.4 19.1 15.8 21.3 5.2 4.7 9.4 10.1 15.1 14.2 2.9 2 9.7 3.2 12.8 1.3.6-.4 1.1-.9 1.5-1.5 2.3-2.6-3.2.3 3-2.8 3.1-1.6 4.3-.9 7.4-.2 1.1.2 3.4 1.1 4.6.6 3.8-1.5 1.1-8-.4-10.2-.5-.8-1.8 0-1.3.8 1.2 1.5 1.9 3.3 2 5.2l-2.9 2.6c-1 .2-3.8-.8-4.9-1-1.9-.4-4.2-1.4-6.2-.6-1.1.5-1.4 1-2.1 1.8-1.4 1.5.5.6-2.2 3-2.3 2.1-3.6 2-6.7 1.3-6.8-1.6-11.7-8.4-16.4-13.1s-10-8.3-14.4-13.1c-1.2-1.3-3.3-3-3.8-4.8-.9-3.5.9-3.2 3.6-2.8 2.3.3 4.7.8 7 1.3 5 1.2 9.2 3.7 13.9 5.5 5.7 2.2 11.1 4.9 16.9 6.7 5 1.5 12.6 4.3 16.3 8.2.7.3 1.7-.7 1.1-1.4z"/></g></g></svg>