<svg xmlns="http://www.w3.org/2000/svg" xmlns:xlink="http://www.w3.org/1999/xlink" viewBox="0 0 941.72 262.46"><defs><style>.cls-1{fill:none;}.cls-2{fill:#11110f;}.cls-3{isolation:isolate;}.cls-4{fill:#0f0f0d;}.cls-5{clip-path:url(#clip-path);}.cls-6{fill:#090908;}.cls-7{fill:#0a0a08;}.cls-8{fill:#212321;}.cls-9{clip-path:url(#clip-path-2);}.cls-10{fill:#131513;}.cls-11{fill:#050201;}.cls-12{clip-path:url(#clip-path-3);}.cls-13{fill:#4b4b4b;}.cls-14{fill:gray;}.cls-15{fill:#131413;}.cls-16{fill:#141614;}.cls-17{fill:#141514;}.cls-18{fill:#252825;}.cls-19{clip-path:url(#clip-path-4);}.cls-20{clip-path:url(#clip-path-5);}.cls-21{clip-path:url(#clip-path-6);}.cls-22{fill:#710d0f;}.cls-23{fill:#841212;}.cls-24{fill:#171722;}.cls-25{fill:#a9c2b5;}.cls-26{fill:#ab171b;}.cls-27{fill:#191919;}.cls-28{fill:#020001;}.cls-29{clip-path:url(#clip-path-7);}.cls-30{fill:#535353;}.cls-31{clip-path:url(#clip-path-8);}.cls-32{fill:#666;}.cls-33{fill:#636363;}.cls-34{fill:#606060;}.cls-35{fill:#5d5d5d;}.cls-36{fill:#8b8b8b;}.cls-37{clip-path:url(#clip-path-9);}.cls-38{fill:#5a5a5a;}.cls-39{fill:#565656;}.cls-40{clip-path:url(#clip-path-10);}.cls-41{clip-path:url(#clip-path-11);}.cls-42{clip-path:url(#clip-path-12);}.cls-43{clip-path:url(#clip-path-13);}.cls-44{clip-path:url(#clip-path-14);}.cls-45{clip-path:url(#clip-path-15);}.cls-46{clip-path:url(#clip-path-16);}.cls-47{clip-path:url(#clip-path-17);}.cls-48{clip-path:url(#clip-path-18);}.cls-49{clip-path:url(#clip-path-19);}.cls-50{clip-path:url(#clip-path-20);}.cls-51{clip-path:url(#clip-path-21);}.cls-52{clip-path:url(#clip-path-22);}.cls-53{clip-path:url(#clip-path-23);}.cls-54{clip-path:url(#clip-path-24);}.cls-55{clip-path:url(#clip-path-25);}.cls-56{clip-path:url(#clip-path-26);}.cls-57{clip-path:url(#clip-path-27);}.cls-58{clip-path:url(#clip-path-28);}.cls-59{clip-path:url(#clip-path-29);}.cls-60{clip-path:url(#clip-path-30);}.cls-61{clip-path:url(#clip-path-31);}.cls-62{clip-path:url(#clip-path-32);}.cls-63{clip-path:url(#clip-path-33);}.cls-64{clip-path:url(#clip-path-34);}.cls-65{clip-path:url(#clip-path-35);}.cls-66{clip-path:url(#clip-path-36);}.cls-67{clip-path:url(#clip-path-37);}.cls-68{clip-path:url(#clip-path-38);}.cls-69{clip-path:url(#clip-path-39);}.cls-70{clip-path:url(#clip-path-40);}.cls-71{clip-path:url(#clip-path-41);}.cls-72{clip-path:url(#clip-path-42);}.cls-73{clip-path:url(#clip-path-43);}.cls-74{clip-path:url(#clip-path-44);}.cls-75{clip-path:url(#clip-path-45);}.cls-76{clip-path:url(#clip-path-46);}.cls-77{clip-path:url(#clip-path-47);}.cls-78{clip-path:url(#clip-path-48);}.cls-79{clip-path:url(#clip-path-49);}.cls-80{clip-path:url(#clip-path-50);}.cls-81{clip-path:url(#clip-path-51);}.cls-82{clip-path:url(#clip-path-52);}.cls-83{clip-path:url(#clip-path-53);}.cls-84{clip-path:url(#clip-path-54);}.cls-85{clip-path:url(#clip-path-55);}.cls-86{clip-path:url(#clip-path-56);}.cls-87{clip-path:url(#clip-path-57);}.cls-88{clip-path:url(#clip-path-58);}.cls-89{clip-path:url(#clip-path-59);}.cls-90{clip-path:url(#clip-path-60);}.cls-91{clip-path:url(#clip-path-61);}.cls-92{clip-path:url(#clip-path-62);}.cls-93{clip-path:url(#clip-path-63);}.cls-94{clip-path:url(#clip-path-64);}.cls-95{clip-path:url(#clip-path-65);}.cls-96{clip-path:url(#clip-path-66);}.cls-97{clip-path:url(#clip-path-67);}.cls-98{clip-path:url(#clip-path-68);}.cls-99{clip-path:url(#clip-path-69);}.cls-100{clip-path:url(#clip-path-70);}.cls-101{clip-path:url(#clip-path-71);}.cls-102{clip-path:url(#clip-path-72);}.cls-103{clip-path:url(#clip-path-73);}.cls-104{clip-path:url(#clip-path-74);}.cls-105{clip-path:url(#clip-path-75);}.cls-106{clip-path:url(#clip-path-76);}.cls-107{clip-path:url(#clip-path-77);}.cls-108{clip-path:url(#clip-path-78);}.cls-109{clip-path:url(#clip-path-79);}.cls-110{clip-path:url(#clip-path-80);}.cls-111{clip-path:url(#clip-path-81);}.cls-112{clip-path:url(#clip-path-82);}.cls-113{clip-path:url(#clip-path-83);}.cls-114{clip-path:url(#clip-path-84);}.cls-115{clip-path:url(#clip-path-85);}.cls-116{clip-path:url(#clip-path-86);}.cls-117{clip-path:url(#clip-path-87);}.cls-118{clip-path:url(#clip-path-88);}.cls-119{clip-path:url(#clip-path-89);}.cls-120{clip-path:url(#clip-path-90);}.cls-121{clip-path:url(#clip-path-91);}.cls-122{clip-path:url(#clip-path-92);}.cls-123{clip-path:url(#clip-path-93);}.cls-124{clip-path:url(#clip-path-94);}.cls-125{clip-path:url(#clip-path-95);}.cls-126{clip-path:url(#clip-path-96);}.cls-127{fill:#f6ffff;}.cls-128{fill:#751614;stroke:#000;stroke-miterlimit:10;}.cls-129{fill:#e80f29;}.cls-130{fill:#f20f0f;}.cls-131{fill:#6c1512;}.cls-132{fill:#ad2d2d;}.cls-133{fill:#020000;}.cls-134{fill:#e2f6fa;}.cls-135{fill:#d8eaee;}.cls-136{fill:#030202;}</style><clipPath id="clip-path" transform="translate(-282.34 -613.43)"><path class="cls-1" d="M465.7,870.41h-4.36a72.48,72.48,0,0,1,0-145h4.36a72.48,72.48,0,0,0,0,145Z"/></clipPath><clipPath id="clip-path-2" transform="translate(-282.34 -613.43)"><path class="cls-1" d="M489.91,848.36l-1.74.87a57.17,57.17,0,0,1-51.07-102.3l1.74-.87a57.17,57.17,0,0,0,51.07,102.3Z"/></clipPath><clipPath id="clip-path-3" transform="translate(-282.34 -613.43)"><path class="cls-1" d="M491.84,822.48l-1.74,1.74a33.45,33.45,0,0,1-47.32-47.29l1.74-1.74a33.45,33.45,0,0,0,47.32,47.29Z"/></clipPath><clipPath id="clip-path-4" transform="translate(-282.34 -613.43)"><path class="cls-1" d="M1039.7,870.41h-4.36a72.48,72.48,0,0,1,0-145h4.36a72.48,72.48,0,0,0,0,145Z"/></clipPath><clipPath id="clip-path-5" transform="translate(-282.34 -613.43)"><path class="cls-1" d="M1063.91,848.36l-1.74.87a57.17,57.17,0,0,1-51.07-102.3l1.74-.87a57.17,57.17,0,0,0,51.07,102.3Z"/></clipPath><clipPath id="clip-path-6" transform="translate(-282.34 -613.43)"><path class="cls-1" d="M1065.84,822.49l-1.74,1.74a33.45,33.45,0,0,1-47.32-47.3l1.74-1.74a33.45,33.45,0,0,0,47.32,47.3Z"/></clipPath><clipPath id="clip-path-7" transform="translate(-282.34 -613.43)"><path class="cls-1" d="M942.88,811.09l0,0a1.05,1.05,0,0,0,.74.31l0,0A1.05,1.05,0,0,1,942.88,811.09Z"/></clipPath><clipPath id="clip-path-8" transform="translate(-282.34 -613.43)"><path class="cls-1" d="M944.33,809.56l0,0a1.06,1.06,0,0,1,.31.75l0,0A1.06,1.06,0,0,0,944.33,809.56Z"/></clipPath><clipPath id="clip-path-9" transform="translate(-282.34 -613.43)"><path class="cls-1" d="M944.64,810.31l0,0a1.06,1.06,0,0,1-1.06,1.05l0,0A1.06,1.06,0,0,0,944.64,810.31Z"/></clipPath><clipPath id="clip-path-10" transform="translate(-282.34 -613.43)"><path class="cls-1" d="M605.05,831.45l0,0a1,1,0,0,1,.31.75l0,0A1,1,0,0,0,605.05,831.45Z"/></clipPath><clipPath id="clip-path-11" transform="translate(-282.34 -613.43)"><path class="cls-1" d="M603.6,833l0,0a1,1,0,0,0,.75.31l0,0A1,1,0,0,1,603.6,833Z"/></clipPath><clipPath id="clip-path-12" transform="translate(-282.34 -613.43)"><path class="cls-1" d="M605.36,832.19l0,0a1,1,0,0,1-1.05,1.05l0,0A1,1,0,0,0,605.36,832.19Z"/></clipPath><clipPath id="clip-path-13" transform="translate(-282.34 -613.43)"><path class="cls-1" d="M600.55,796.11l0,0a1,1,0,0,1,.31.75l0,0A1,1,0,0,0,600.55,796.11Z"/></clipPath><clipPath id="clip-path-14" transform="translate(-282.34 -613.43)"><path class="cls-1" d="M599.11,797.66l0,0a1,1,0,0,0,.74.31l0,0A1,1,0,0,1,599.11,797.66Z"/></clipPath><clipPath id="clip-path-15" transform="translate(-282.34 -613.43)"><path class="cls-1" d="M600.86,796.86l0,0a1.06,1.06,0,0,1-1.05,1.06l0,0A1.06,1.06,0,0,0,600.86,796.86Z"/></clipPath><clipPath id="clip-path-16" transform="translate(-282.34 -613.43)"><path class="cls-1" d="M596,762.48l0,0a1.05,1.05,0,0,0,.74.31l0,0A1.05,1.05,0,0,1,596,762.48Z"/></clipPath><clipPath id="clip-path-17" transform="translate(-282.34 -613.43)"><path class="cls-1" d="M597.44,760.95l0,0a1.06,1.06,0,0,1,.31.75l0,0A1.06,1.06,0,0,0,597.44,760.95Z"/></clipPath><clipPath id="clip-path-18" transform="translate(-282.34 -613.43)"><path class="cls-1" d="M597.76,761.7l0,0a1.06,1.06,0,0,1-1.06,1.05l0,0A1.06,1.06,0,0,0,597.76,761.7Z"/></clipPath><clipPath id="clip-path-19" transform="translate(-282.34 -613.43)"><path class="cls-1" d="M601.11,723.16l0,0a1,1,0,0,0,.74.31l0,0A1,1,0,0,1,601.11,723.16Z"/></clipPath><clipPath id="clip-path-20" transform="translate(-282.34 -613.43)"><path class="cls-1" d="M602.56,721.62l0,0a1,1,0,0,1,.31.74l0,0A1,1,0,0,0,602.56,721.62Z"/></clipPath><clipPath id="clip-path-21" transform="translate(-282.34 -613.43)"><path class="cls-1" d="M602.87,722.36l0,0a1.06,1.06,0,0,1-1.06,1.06l0,0A1.06,1.06,0,0,0,602.87,722.36Z"/></clipPath><clipPath id="clip-path-22" transform="translate(-282.34 -613.43)"><path class="cls-1" d="M514.94,713.65l0,0a1,1,0,0,0,.75.31l0,0A1,1,0,0,1,514.94,713.65Z"/></clipPath><clipPath id="clip-path-23" transform="translate(-282.34 -613.43)"><path class="cls-1" d="M516.39,712.11l0,0a1.06,1.06,0,0,1,.31.75l0,0A1.06,1.06,0,0,0,516.39,712.11Z"/></clipPath><clipPath id="clip-path-24" transform="translate(-282.34 -613.43)"><path class="cls-1" d="M516.7,712.86l0,0a1.06,1.06,0,0,1-1.06,1.05l0,0A1.06,1.06,0,0,0,516.7,712.86Z"/></clipPath><clipPath id="clip-path-25" transform="translate(-282.34 -613.43)"><path class="cls-1" d="M475.26,711.15l0,0a1.06,1.06,0,0,0,.75.31l0,0A1.06,1.06,0,0,1,475.26,711.15Z"/></clipPath><clipPath id="clip-path-26" transform="translate(-282.34 -613.43)"><path class="cls-1" d="M476.72,709.62l0,0a1,1,0,0,1,.31.75l0,0A1,1,0,0,0,476.72,709.62Z"/></clipPath><clipPath id="clip-path-27" transform="translate(-282.34 -613.43)"><path class="cls-1" d="M477,710.36l0,0a1,1,0,0,1-1.05,1.05l0,0A1,1,0,0,0,477,710.36Z"/></clipPath><clipPath id="clip-path-28" transform="translate(-282.34 -613.43)"><path class="cls-1" d="M436.27,720l0,0a1.05,1.05,0,0,0,.74.31l0,0A1.05,1.05,0,0,1,436.27,720Z"/></clipPath><clipPath id="clip-path-29" transform="translate(-282.34 -613.43)"><path class="cls-1" d="M437.72,718.5l0,0a1.06,1.06,0,0,1,.31.75l0,0A1.06,1.06,0,0,0,437.72,718.5Z"/></clipPath><clipPath id="clip-path-30" transform="translate(-282.34 -613.43)"><path class="cls-1" d="M438,719.25l0,0a1.06,1.06,0,0,1-1.06,1.05l0,0A1.06,1.06,0,0,0,438,719.25Z"/></clipPath><clipPath id="clip-path-31" transform="translate(-282.34 -613.43)"><path class="cls-1" d="M401.6,736.71l0,0a1.06,1.06,0,0,0,.75.31l0,0A1.06,1.06,0,0,1,401.6,736.71Z"/></clipPath><clipPath id="clip-path-32" transform="translate(-282.34 -613.43)"><path class="cls-1" d="M403.05,735.17l0,0a1.06,1.06,0,0,1,.31.75l0,0A1.06,1.06,0,0,0,403.05,735.17Z"/></clipPath><clipPath id="clip-path-33" transform="translate(-282.34 -613.43)"><path class="cls-1" d="M403.36,735.92l0,0a1.06,1.06,0,0,1-1.05,1.05l0,0A1.06,1.06,0,0,0,403.36,735.92Z"/></clipPath><clipPath id="clip-path-34" transform="translate(-282.34 -613.43)"><path class="cls-1" d="M382.83,753.32l0,0a1,1,0,0,0,.74.31l0,0A1,1,0,0,1,382.83,753.32Z"/></clipPath><clipPath id="clip-path-35" transform="translate(-282.34 -613.43)"><path class="cls-1" d="M384.28,751.79l0,0a1,1,0,0,1,.31.74l0,0A1,1,0,0,0,384.28,751.79Z"/></clipPath><clipPath id="clip-path-36" transform="translate(-282.34 -613.43)"><path class="cls-1" d="M384.59,752.53l0,0a1.06,1.06,0,0,1-1.06,1.06l0,0A1.06,1.06,0,0,0,384.59,752.53Z"/></clipPath><clipPath id="clip-path-37" transform="translate(-282.34 -613.43)"><path class="cls-1" d="M355.27,785l0,0a1.05,1.05,0,0,0,.74.31l0,0A1.05,1.05,0,0,1,355.27,785Z"/></clipPath><clipPath id="clip-path-38" transform="translate(-282.34 -613.43)"><path class="cls-1" d="M356.72,783.45l0,0a1.06,1.06,0,0,1,.31.75l0,0A1.06,1.06,0,0,0,356.72,783.45Z"/></clipPath><clipPath id="clip-path-39" transform="translate(-282.34 -613.43)"><path class="cls-1" d="M357,784.2l0,0a1.06,1.06,0,0,1-1.06,1.05l0,0A1.06,1.06,0,0,0,357,784.2Z"/></clipPath><clipPath id="clip-path-40" transform="translate(-282.34 -613.43)"><path class="cls-1" d="M392.77,785.88l0,0a1,1,0,0,0,.74.31l0,0A1,1,0,0,1,392.77,785.88Z"/></clipPath><clipPath id="clip-path-41" transform="translate(-282.34 -613.43)"><path class="cls-1" d="M394.22,784.34l0,0a1.06,1.06,0,0,1,.31.75l0,0A1.06,1.06,0,0,0,394.22,784.34Z"/></clipPath><clipPath id="clip-path-42" transform="translate(-282.34 -613.43)"><path class="cls-1" d="M394.54,785.09l0,0a1.06,1.06,0,0,1-1.06,1.05l0,0A1.06,1.06,0,0,0,394.54,785.09Z"/></clipPath><clipPath id="clip-path-43" transform="translate(-282.34 -613.43)"><path class="cls-1" d="M378.43,758l0,0a1.06,1.06,0,0,0,.75.31l0,0A1.06,1.06,0,0,1,378.43,758Z"/></clipPath><clipPath id="clip-path-44" transform="translate(-282.34 -613.43)"><path class="cls-1" d="M379.89,756.44l0,0a1.06,1.06,0,0,1,.31.75l0,0A1.06,1.06,0,0,0,379.89,756.44Z"/></clipPath><clipPath id="clip-path-45" transform="translate(-282.34 -613.43)"><path class="cls-1" d="M380.2,757.2l0,0a1.05,1.05,0,0,1-1.05,1.05l0,0A1.05,1.05,0,0,0,380.2,757.2Z"/></clipPath><clipPath id="clip-path-46" transform="translate(-282.34 -613.43)"><path class="cls-1" d="M909.05,810.61l0,0a1,1,0,0,1,.31.75l0,0A1,1,0,0,0,909.05,810.61Z"/></clipPath><clipPath id="clip-path-47" transform="translate(-282.34 -613.43)"><path class="cls-1" d="M907.6,812.15l0,0a1.06,1.06,0,0,0,.75.31l0,0A1.06,1.06,0,0,1,907.6,812.15Z"/></clipPath><clipPath id="clip-path-48" transform="translate(-282.34 -613.43)"><path class="cls-1" d="M909.36,811.36l0,0a1.06,1.06,0,0,1-1.05,1.06l0,0A1.06,1.06,0,0,0,909.36,811.36Z"/></clipPath><clipPath id="clip-path-49" transform="translate(-282.34 -613.43)"><path class="cls-1" d="M905.32,759.31l0,0a1.06,1.06,0,0,0,.75.31l0,0A1.06,1.06,0,0,1,905.32,759.31Z"/></clipPath><clipPath id="clip-path-50" transform="translate(-282.34 -613.43)"><path class="cls-1" d="M906.77,757.77l0,0a1.06,1.06,0,0,1,.31.75l0,0A1.06,1.06,0,0,0,906.77,757.77Z"/></clipPath><clipPath id="clip-path-51" transform="translate(-282.34 -613.43)"><path class="cls-1" d="M907.09,758.53l0,0a1,1,0,0,1-1.05,1.05l0,0A1,1,0,0,0,907.09,758.53Z"/></clipPath><clipPath id="clip-path-52" transform="translate(-282.34 -613.43)"><path class="cls-1" d="M911.22,724.78l0,0a1,1,0,0,1,.31.74l0,0A1,1,0,0,0,911.22,724.78Z"/></clipPath><clipPath id="clip-path-53" transform="translate(-282.34 -613.43)"><path class="cls-1" d="M909.77,726.32l0,0a1.06,1.06,0,0,0,.75.31l0,0A1.06,1.06,0,0,1,909.77,726.32Z"/></clipPath><clipPath id="clip-path-54" transform="translate(-282.34 -613.43)"><path class="cls-1" d="M911.53,725.53l0,0a1.06,1.06,0,0,1-1.05,1.06l0,0A1.06,1.06,0,0,0,911.53,725.53Z"/></clipPath><clipPath id="clip-path-55" transform="translate(-282.34 -613.43)"><path class="cls-1" d="M942.88,715.89l0,0a1.05,1.05,0,0,1,.31.74l0,0A1.05,1.05,0,0,0,942.88,715.89Z"/></clipPath><clipPath id="clip-path-56" transform="translate(-282.34 -613.43)"><path class="cls-1" d="M941.44,717.43l0,0a1,1,0,0,0,.74.31l0,0A1,1,0,0,1,941.44,717.43Z"/></clipPath><clipPath id="clip-path-57" transform="translate(-282.34 -613.43)"><path class="cls-1" d="M943.19,716.63l0,0a1.06,1.06,0,0,1-1.05,1.06l0,0A1.06,1.06,0,0,0,943.19,716.63Z"/></clipPath><clipPath id="clip-path-58" transform="translate(-282.34 -613.43)"><path class="cls-1" d="M978.72,706.45l0,0a1,1,0,0,1,.31.74l0,0A1,1,0,0,0,978.72,706.45Z"/></clipPath><clipPath id="clip-path-59" transform="translate(-282.34 -613.43)"><path class="cls-1" d="M977.27,708l0,0a1.06,1.06,0,0,0,.75.31l0,0A1.06,1.06,0,0,1,977.27,708Z"/></clipPath><clipPath id="clip-path-60" transform="translate(-282.34 -613.43)"><path class="cls-1" d="M979,707.19l0,0A1.06,1.06,0,0,1,978,708.3l0,0A1.06,1.06,0,0,0,979,707.19Z"/></clipPath><clipPath id="clip-path-61" transform="translate(-282.34 -613.43)"><path class="cls-1" d="M1013.55,697.11l0,0a1,1,0,0,1,.31.75l0,0A1,1,0,0,0,1013.55,697.11Z"/></clipPath><clipPath id="clip-path-62" transform="translate(-282.34 -613.43)"><path class="cls-1" d="M1012.11,698.66l0,0a1,1,0,0,0,.74.31l0,0A1,1,0,0,1,1012.11,698.66Z"/></clipPath><clipPath id="clip-path-63" transform="translate(-282.34 -613.43)"><path class="cls-1" d="M1013.86,697.86l0,0a1.06,1.06,0,0,1-1.05,1.06l0,0A1.06,1.06,0,0,0,1013.86,697.86Z"/></clipPath><clipPath id="clip-path-64" transform="translate(-282.34 -613.43)"><path class="cls-1" d="M1049.22,694.28l0,0a1,1,0,0,1,.31.75l0,0A1,1,0,0,0,1049.22,694.28Z"/></clipPath><clipPath id="clip-path-65" transform="translate(-282.34 -613.43)"><path class="cls-1" d="M1047.77,695.82l0,0a1.06,1.06,0,0,0,.75.31l0,0A1.06,1.06,0,0,1,1047.77,695.82Z"/></clipPath><clipPath id="clip-path-66" transform="translate(-282.34 -613.43)"><path class="cls-1" d="M1049.53,695l0,0a1.06,1.06,0,0,1-1.05,1.06l0,0A1.06,1.06,0,0,0,1049.53,695Z"/></clipPath><clipPath id="clip-path-67" transform="translate(-282.34 -613.43)"><path class="cls-1" d="M1084.22,696.61l0,0a1.06,1.06,0,0,1,.31.75l0,0A1.06,1.06,0,0,0,1084.22,696.61Z"/></clipPath><clipPath id="clip-path-68" transform="translate(-282.34 -613.43)"><path class="cls-1" d="M1082.77,698.15l0,0a1.06,1.06,0,0,0,.75.31l0,0A1.06,1.06,0,0,1,1082.77,698.15Z"/></clipPath><clipPath id="clip-path-69" transform="translate(-282.34 -613.43)"><path class="cls-1" d="M1084.53,697.37l0,0a1.05,1.05,0,0,1-1.05,1.05l0,0A1.05,1.05,0,0,0,1084.53,697.37Z"/></clipPath><clipPath id="clip-path-70" transform="translate(-282.34 -613.43)"><path class="cls-1" d="M1122.39,698.94l0,0a1.06,1.06,0,0,1,.31.75l0,0A1.06,1.06,0,0,0,1122.39,698.94Z"/></clipPath><clipPath id="clip-path-71" transform="translate(-282.34 -613.43)"><path class="cls-1" d="M1120.93,700.48l0,0a1.06,1.06,0,0,0,.75.31l0,0A1.06,1.06,0,0,1,1120.93,700.48Z"/></clipPath><clipPath id="clip-path-72" transform="translate(-282.34 -613.43)"><path class="cls-1" d="M1122.7,699.7l0,0a1.05,1.05,0,0,1-1.05,1.05l0,0A1.05,1.05,0,0,0,1122.7,699.7Z"/></clipPath><clipPath id="clip-path-73" transform="translate(-282.34 -613.43)"><path class="cls-1" d="M1134.11,723.15l0,0a1,1,0,0,0,.74.31l0,0A1,1,0,0,1,1134.11,723.15Z"/></clipPath><clipPath id="clip-path-74" transform="translate(-282.34 -613.43)"><path class="cls-1" d="M1135.56,721.62l0,0a1,1,0,0,1,.31.74l0,0A1,1,0,0,0,1135.56,721.62Z"/></clipPath><clipPath id="clip-path-75" transform="translate(-282.34 -613.43)"><path class="cls-1" d="M1135.87,722.36l0,0a1.06,1.06,0,0,1-1.06,1.06l0,0A1.06,1.06,0,0,0,1135.87,722.36Z"/></clipPath><clipPath id="clip-path-76" transform="translate(-282.34 -613.43)"><path class="cls-1" d="M1095.39,749l0,0a1,1,0,0,1,.31.74l0,0A1,1,0,0,0,1095.39,749Z"/></clipPath><clipPath id="clip-path-77" transform="translate(-282.34 -613.43)"><path class="cls-1" d="M1093.93,750.52l0,0a1.06,1.06,0,0,0,.75.31l0,0A1.06,1.06,0,0,1,1093.93,750.52Z"/></clipPath><clipPath id="clip-path-78" transform="translate(-282.34 -613.43)"><path class="cls-1" d="M1095.7,749.74l0,0a1.05,1.05,0,0,1-1.05,1.05l0,0A1.05,1.05,0,0,0,1095.7,749.74Z"/></clipPath><clipPath id="clip-path-79" transform="translate(-282.34 -613.43)"><path class="cls-1" d="M1127.32,770.76l0,0a1.05,1.05,0,0,0,.74.31l0,0A1.05,1.05,0,0,1,1127.32,770.76Z"/></clipPath><clipPath id="clip-path-80" transform="translate(-282.34 -613.43)"><path class="cls-1" d="M1128.78,769.23l0,0a1.06,1.06,0,0,1,.31.75l0,0A1.06,1.06,0,0,0,1128.78,769.23Z"/></clipPath><clipPath id="clip-path-81" transform="translate(-282.34 -613.43)"><path class="cls-1" d="M1129.09,770l0,0a1.06,1.06,0,0,1-1.06,1.05l0,0A1.06,1.06,0,0,0,1129.09,770Z"/></clipPath><clipPath id="clip-path-82" transform="translate(-282.34 -613.43)"><path class="cls-1" d="M1145.88,752.94l0,0a1.06,1.06,0,0,1,.31.75l0,0A1.06,1.06,0,0,0,1145.88,752.94Z"/></clipPath><clipPath id="clip-path-83" transform="translate(-282.34 -613.43)"><path class="cls-1" d="M1144.43,754.48l0,0a1.06,1.06,0,0,0,.75.31l0,0A1.06,1.06,0,0,1,1144.43,754.48Z"/></clipPath><clipPath id="clip-path-84" transform="translate(-282.34 -613.43)"><path class="cls-1" d="M1146.2,753.7l0,0a1.05,1.05,0,0,1-1.05,1.05l0,0A1.05,1.05,0,0,0,1146.2,753.7Z"/></clipPath><clipPath id="clip-path-85" transform="translate(-282.34 -613.43)"><path class="cls-1" d="M1136.6,730l0,0a1,1,0,0,0,.74.31l0,0A1,1,0,0,1,1136.6,730Z"/></clipPath><clipPath id="clip-path-86" transform="translate(-282.34 -613.43)"><path class="cls-1" d="M1138.06,728.45l0,0a1.06,1.06,0,0,1,.31.75l0,0A1.06,1.06,0,0,0,1138.06,728.45Z"/></clipPath><clipPath id="clip-path-87" transform="translate(-282.34 -613.43)"><path class="cls-1" d="M1138.37,729.2l0,0a1.06,1.06,0,0,1-1.06,1.05l0,0A1.06,1.06,0,0,0,1138.37,729.2Z"/></clipPath><clipPath id="clip-path-88" transform="translate(-282.34 -613.43)"><path class="cls-1" d="M1116.05,779.78l0,0a1,1,0,0,1,.31.75l0,0A1,1,0,0,0,1116.05,779.78Z"/></clipPath><clipPath id="clip-path-89" transform="translate(-282.34 -613.43)"><path class="cls-1" d="M1114.6,781.32l0,0a1.06,1.06,0,0,0,.75.31l0,0A1.06,1.06,0,0,1,1114.6,781.32Z"/></clipPath><clipPath id="clip-path-90" transform="translate(-282.34 -613.43)"><path class="cls-1" d="M1116.36,780.53l0,0a1.06,1.06,0,0,1-1.05,1.06l0,0A1.06,1.06,0,0,0,1116.36,780.53Z"/></clipPath><clipPath id="clip-path-91" transform="translate(-282.34 -613.43)"><path class="cls-1" d="M879.78,810.95l0,0a1,1,0,0,1,.31.75l0,0A1,1,0,0,0,879.78,810.95Z"/></clipPath><clipPath id="clip-path-92" transform="translate(-282.34 -613.43)"><path class="cls-1" d="M878.33,812.49l0,0a1.06,1.06,0,0,0,.75.31l0,0A1.06,1.06,0,0,1,878.33,812.49Z"/></clipPath><clipPath id="clip-path-93" transform="translate(-282.34 -613.43)"><path class="cls-1" d="M880.09,811.69l0,0a1.06,1.06,0,0,1-1.05,1.06l0,0A1.06,1.06,0,0,0,880.09,811.69Z"/></clipPath><clipPath id="clip-path-94" transform="translate(-282.34 -613.43)"><path class="cls-1" d="M892.27,789.49l0,0a1,1,0,0,0,.75.31l0,0A1,1,0,0,1,892.27,789.49Z"/></clipPath><clipPath id="clip-path-95" transform="translate(-282.34 -613.43)"><path class="cls-1" d="M893.72,787.95l0,0a1.06,1.06,0,0,1,.31.75l0,0A1.06,1.06,0,0,0,893.72,787.95Z"/></clipPath><clipPath id="clip-path-96" transform="translate(-282.34 -613.43)"><path class="cls-1" d="M894,788.7l0,0a1.06,1.06,0,0,1-1.06,1.05l0,0A1.06,1.06,0,0,0,894,788.7Z"/></clipPath></defs><title>frs-body-frame</title><g id="shaddow"><path class="cls-2" d="M1095.39,856.79s139.94-5,127.94,1.36-132.95,17.73-132.95,17.73-599.76-.85-601-2.71-206.76,0-206.76,0-6-9.38,39.4-12.25S1029.43,850,1029.43,850Z" transform="translate(-282.34 -613.43)"/></g><g id="wheels"><g class="cls-3"><path class="cls-4" d="M465.7,725.46a72.48,72.48,0,1,1-72.2,72.48A72.34,72.34,0,0,1,465.7,725.46Z" transform="translate(-282.34 -613.43)"/><g class="cls-3"><g class="cls-5"><g class="cls-3"><path class="cls-6" d="M465.7,870.41h-4.36A72.53,72.53,0,0,1,435.87,730.1h4.36A72.53,72.53,0,0,0,465.7,870.41" transform="translate(-282.34 -613.43)"/><path class="cls-6" d="M440.23,730.1h-4.36a71.47,71.47,0,0,1,14.81-3.86H455a71.47,71.47,0,0,0-14.81,3.86" transform="translate(-282.34 -613.43)"/><path class="cls-7" d="M455,726.25h-4.36a72.49,72.49,0,0,1,10.66-.78h4.36a72.49,72.49,0,0,0-10.66.78" transform="translate(-282.34 -613.43)"/></g></g></g></g><g class="cls-3"><path class="cls-8" d="M464.34,740.06a57.15,57.15,0,1,1-57.09,57.15A57.18,57.18,0,0,1,464.34,740.06Z" transform="translate(-282.34 -613.43)"/><g class="cls-3"><g class="cls-9"><g class="cls-3"><path class="cls-10" d="M489.91,848.36l-1.74.87a57.17,57.17,0,0,1-51.07-102.3l1.74-.87a57.17,57.17,0,0,0,51.07,102.3" transform="translate(-282.34 -613.43)"/></g></g></g></g><circle class="cls-11" cx="181.14" cy="184.47" r="50.75"/><g class="cls-3"><g class="cls-3"><g class="cls-12"><g class="cls-3"><path class="cls-13" d="M491.84,822.48l-1.74,1.74a33.45,33.45,0,0,1-47.32-47.29l1.74-1.74a33.45,33.45,0,0,0,47.32,47.29" transform="translate(-282.34 -613.43)"/></g></g></g><path class="cls-14" d="M468.14,765.41a33.43,33.43,0,1,1-33.39,33.43A33.49,33.49,0,0,1,468.14,765.41Z" transform="translate(-282.34 -613.43)"/></g><g class="cls-3"><polygon class="cls-8" points="175.77 134.17 185.44 171.46 182.56 171.99 170.55 134.97 175.77 134.17"/><polygon class="cls-15" points="182.56 171.99 179.94 171.99 167.93 134.97 170.55 134.97 182.56 171.99"/><polygon class="cls-16" points="170.55 134.97 167.93 134.97 173.15 134.17 175.77 134.17 170.55 134.97"/></g><g class="cls-3"><polygon class="cls-8" points="190.09 133.84 195.2 135.24 188.95 173.24 186.11 172.57 190.09 133.84"/><polygon class="cls-15" points="188.95 173.24 186.34 173.24 183.5 172.57 186.11 172.57 188.95 173.24"/><polygon class="cls-15" points="186.11 172.57 183.5 172.57 187.48 133.84 190.09 133.84 186.11 172.57"/></g><g class="cls-3"><polygon class="cls-8" points="210.92 142.22 214.81 145.78 191.88 176.72 189.67 174.81 210.92 142.22"/><polygon class="cls-15" points="191.88 176.72 189.26 176.72 187.05 174.81 189.67 174.81 191.88 176.72"/><polygon class="cls-15" points="189.67 174.81 187.05 174.81 208.3 142.22 210.92 142.22 189.67 174.81"/></g><g class="cls-3"><polygon class="cls-8" points="224.65 156.05 227.3 160.63 196.16 183.25 194.62 180.77 224.65 156.05"/><polygon class="cls-15" points="196.16 183.25 193.54 183.25 192 180.77 194.62 180.77 196.16 183.25"/><polygon class="cls-15" points="194.62 180.77 192 180.77 222.03 156.05 224.65 156.05 194.62 180.77"/></g><g class="cls-3"><polygon class="cls-16" points="194.34 181.41 191.72 181.41 230.54 179.34 233.16 179.34 194.34 181.41"/><polygon class="cls-8" points="194.34 181.41 233.16 179.34 232.58 184.6 194.12 184.33 194.34 181.41"/><polygon class="cls-15" points="232.58 184.6 229.97 184.6 191.5 184.33 194.12 184.33 232.58 184.6"/><polygon class="cls-15" points="194.12 184.33 191.5 184.33 191.72 181.41 194.34 181.41 194.12 184.33"/></g><g class="cls-3"><polygon class="cls-8" points="194.32 187.28 231.21 199.57 228.75 204.25 193.04 189.91 194.32 187.28"/><polygon class="cls-15" points="228.75 204.25 226.13 204.25 190.43 189.91 193.04 189.91 228.75 204.25"/><polygon class="cls-15" points="193.04 189.91 190.43 189.91 191.7 187.28 194.32 187.28 193.04 189.91"/></g><g class="cls-3"><polygon class="cls-8" points="191.98 191.69 220.31 218.34 216.11 221.56 189.72 193.54 191.98 191.69"/><polygon class="cls-15" points="216.11 221.56 213.5 221.56 187.1 193.54 189.72 193.54 216.11 221.56"/><polygon class="cls-15" points="189.72 193.54 187.1 193.54 189.37 191.69 191.98 191.69 189.72 193.54"/></g><g class="cls-3"><polygon class="cls-8" points="188.23 195.27 204.25 230.74 199.15 232.1 185.43 196.11 188.23 195.27"/><polygon class="cls-15" points="199.15 232.1 196.53 232.1 182.82 196.11 185.43 196.11 199.15 232.1"/><polygon class="cls-10" points="185.43 196.11 182.82 196.11 185.61 195.27 188.23 195.27 185.43 196.11"/></g><g class="cls-3"><polygon class="cls-8" points="180.89 195.71 183.79 196 185.05 234.9 179.81 234.21 180.89 195.71"/><polygon class="cls-15" points="185.05 234.9 182.43 234.9 177.19 234.21 179.81 234.21 185.05 234.9"/><polygon class="cls-15" points="179.81 234.21 177.19 234.21 178.27 195.71 180.89 195.71 179.81 234.21"/></g><g class="cls-3"><polygon class="cls-8" points="180.45 195.61 182.72 197.44 162.45 230.65 158.45 227.2 180.45 195.61"/><polygon class="cls-15" points="162.45 230.65 159.83 230.65 155.83 227.2 158.45 227.2 162.45 230.65"/><polygon class="cls-15" points="158.45 227.2 155.83 227.2 177.83 195.61 180.45 195.61 158.45 227.2"/></g><g class="cls-3"><polygon class="cls-8" points="172.98 191.61 174.67 194.01 146.1 220.4 143.2 215.98 172.98 191.61"/><polygon class="cls-15" points="146.1 220.4 143.48 220.4 140.58 215.98 143.2 215.98 146.1 220.4"/><polygon class="cls-15" points="143.2 215.98 140.58 215.98 170.37 191.61 172.98 191.61 143.2 215.98"/></g><g class="cls-3"><polygon class="cls-8" points="139.37 158.37 175.83 177.94 174.34 180.48 136.54 162.85 139.37 158.37"/><polygon class="cls-15" points="174.34 180.48 171.73 180.48 133.93 162.85 136.54 162.85 174.34 180.48"/><polygon class="cls-15" points="136.54 162.85 133.93 162.85 136.76 158.37 139.37 158.37 136.54 162.85"/></g><g class="cls-3"><polygon class="cls-8" points="132.93 175.93 173.84 182.09 173.29 184.97 131.76 181.1 132.93 175.93"/><polygon class="cls-15" points="173.29 184.97 170.67 184.97 129.15 181.1 131.76 181.1 173.29 184.97"/><polygon class="cls-15" points="131.76 181.1 129.15 181.1 130.31 175.93 132.93 175.93 131.76 181.1"/></g><g class="cls-3"><polygon class="cls-8" points="173.93 185.93 174.54 188.79 134.76 201.34 133.83 196.12 173.93 185.93"/><polygon class="cls-15" points="134.76 201.34 132.14 201.34 131.22 196.12 133.83 196.12 134.76 201.34"/><polygon class="cls-17" points="133.83 196.12 131.22 196.12 171.31 185.93 173.93 185.93 133.83 196.12"/></g><g class="cls-3"><polygon class="cls-8" points="157.2 141.57 177.43 173.54 174.82 174.9 152.4 143.89 157.2 141.57"/><polygon class="cls-15" points="174.82 174.9 172.21 174.9 149.78 143.89 152.4 143.89 174.82 174.9"/><polygon class="cls-15" points="152.4 143.89 149.78 143.89 154.58 141.57 157.2 141.57 152.4 143.89"/></g><circle class="cls-18" cx="467.43" cy="798.63" r="14.91" transform="translate(-629.2 624.78) rotate(-88.02)"/><g class="cls-3"><path class="cls-4" d="M1039.7,725.46a72.48,72.48,0,1,1-72.2,72.48A72.34,72.34,0,0,1,1039.7,725.46Z" transform="translate(-282.34 -613.43)"/><g class="cls-3"><g class="cls-19"><g class="cls-3"><path class="cls-6" d="M1039.7,870.41h-4.36a72.53,72.53,0,0,1-25.47-140.31h4.36a72.53,72.53,0,0,0,25.47,140.31" transform="translate(-282.34 -613.43)"/><path class="cls-6" d="M1014.23,730.1h-4.36a71.47,71.47,0,0,1,14.81-3.86H1029a71.47,71.47,0,0,0-14.81,3.86" transform="translate(-282.34 -613.43)"/><path class="cls-7" d="M1029,726.25h-4.36a72.49,72.49,0,0,1,10.66-.78h4.36a72.49,72.49,0,0,0-10.66.78" transform="translate(-282.34 -613.43)"/></g></g></g></g><g class="cls-3"><path class="cls-8" d="M1038.34,740.06a57.15,57.15,0,1,1-57.09,57.15A57.17,57.17,0,0,1,1038.34,740.06Z" transform="translate(-282.34 -613.43)"/><g class="cls-3"><g class="cls-20"><g class="cls-3"><path class="cls-10" d="M1063.91,848.36l-1.74.87a57.17,57.17,0,0,1-51.07-102.3l1.74-.87a57.17,57.17,0,0,0,51.07,102.3" transform="translate(-282.34 -613.43)"/></g></g></g></g><circle class="cls-11" cx="755.14" cy="184.47" r="50.75"/><g class="cls-3"><g class="cls-3"><g class="cls-21"><g class="cls-3"><path class="cls-13" d="M1065.84,822.49l-1.74,1.74a33.45,33.45,0,0,1-47.32-47.3l1.74-1.74a33.45,33.45,0,0,0,47.32,47.3" transform="translate(-282.34 -613.43)"/></g></g></g><path class="cls-14" d="M1042.13,765.41a33.43,33.43,0,1,1-33.38,33.43A33.48,33.48,0,0,1,1042.13,765.41Z" transform="translate(-282.34 -613.43)"/></g><g class="cls-3"><polygon class="cls-8" points="749.77 134.17 759.43 171.46 756.56 171.99 744.55 134.97 749.77 134.17"/><polygon class="cls-15" points="756.56 171.99 753.95 171.99 741.93 134.97 744.55 134.97 756.56 171.99"/><polygon class="cls-16" points="744.55 134.97 741.93 134.97 747.15 134.17 749.77 134.17 744.55 134.97"/></g><g class="cls-3"><polygon class="cls-8" points="764.1 133.84 769.19 135.24 762.95 173.24 760.11 172.57 764.1 133.84"/><polygon class="cls-15" points="762.95 173.24 760.33 173.24 757.49 172.57 760.11 172.57 762.95 173.24"/><polygon class="cls-15" points="760.11 172.57 757.49 172.57 761.48 133.84 764.1 133.84 760.11 172.57"/></g><g class="cls-3"><polygon class="cls-8" points="784.91 142.22 788.81 145.78 765.88 176.72 763.66 174.81 784.91 142.22"/><polygon class="cls-15" points="765.88 176.72 763.26 176.72 761.04 174.81 763.66 174.81 765.88 176.72"/><polygon class="cls-15" points="763.66 174.81 761.04 174.81 782.29 142.22 784.91 142.22 763.66 174.81"/></g><g class="cls-3"><polygon class="cls-8" points="798.65 156.05 801.3 160.63 770.16 183.25 768.62 180.77 798.65 156.05"/><polygon class="cls-15" points="770.16 183.25 767.55 183.25 766 180.77 768.62 180.77 770.16 183.25"/><polygon class="cls-15" points="768.62 180.77 766 180.77 796.04 156.05 798.65 156.05 768.62 180.77"/></g><g class="cls-3"><polygon class="cls-16" points="768.34 181.41 765.73 181.41 804.54 179.34 807.16 179.34 768.34 181.41"/><polygon class="cls-8" points="768.34 181.41 807.16 179.34 806.58 184.6 768.12 184.33 768.34 181.41"/><polygon class="cls-15" points="806.58 184.6 803.97 184.6 765.5 184.33 768.12 184.33 806.58 184.6"/><polygon class="cls-15" points="768.12 184.33 765.5 184.33 765.73 181.41 768.34 181.41 768.12 184.33"/></g><g class="cls-3"><polygon class="cls-8" points="768.32 187.28 805.21 199.57 802.75 204.25 767.05 189.91 768.32 187.28"/><polygon class="cls-15" points="802.75 204.25 800.14 204.25 764.43 189.91 767.05 189.91 802.75 204.25"/><polygon class="cls-15" points="767.05 189.91 764.43 189.91 765.71 187.28 768.32 187.28 767.05 189.91"/></g><g class="cls-3"><polygon class="cls-8" points="765.98 191.69 794.3 218.34 790.12 221.56 763.72 193.54 765.98 191.69"/><polygon class="cls-15" points="790.12 221.56 787.5 221.56 761.1 193.54 763.72 193.54 790.12 221.56"/><polygon class="cls-15" points="763.72 193.54 761.1 193.54 763.37 191.69 765.98 191.69 763.72 193.54"/></g><g class="cls-3"><polygon class="cls-8" points="762.23 195.27 778.25 230.74 773.14 232.1 759.44 196.11 762.23 195.27"/><polygon class="cls-15" points="773.14 232.1 770.53 232.1 756.82 196.11 759.44 196.11 773.14 232.1"/><polygon class="cls-10" points="759.44 196.11 756.82 196.11 759.62 195.27 762.23 195.27 759.44 196.11"/></g><g class="cls-3"><polygon class="cls-8" points="754.89 195.71 757.79 196 759.05 234.9 753.81 234.21 754.89 195.71"/><polygon class="cls-15" points="759.05 234.9 756.43 234.9 751.19 234.21 753.81 234.21 759.05 234.9"/><polygon class="cls-15" points="753.81 234.21 751.19 234.21 752.27 195.71 754.89 195.71 753.81 234.21"/></g><g class="cls-3"><polygon class="cls-8" points="754.45 195.61 756.73 197.44 736.45 230.65 732.44 227.2 754.45 195.61"/><polygon class="cls-15" points="736.45 230.65 733.83 230.65 729.82 227.2 732.44 227.2 736.45 230.65"/><polygon class="cls-15" points="732.44 227.2 729.82 227.2 751.83 195.61 754.45 195.61 732.44 227.2"/></g><g class="cls-3"><polygon class="cls-8" points="746.98 191.61 748.66 194.01 720.1 220.4 717.19 215.98 746.98 191.61"/><polygon class="cls-15" points="720.1 220.4 717.49 220.4 714.57 215.98 717.19 215.98 720.1 220.4"/><polygon class="cls-15" points="717.19 215.98 714.57 215.98 744.37 191.61 746.98 191.61 717.19 215.98"/></g><g class="cls-3"><polygon class="cls-8" points="713.38 158.37 749.83 177.94 748.35 180.48 710.53 162.85 713.38 158.37"/><polygon class="cls-15" points="748.35 180.48 745.73 180.48 707.92 162.85 710.53 162.85 748.35 180.48"/><polygon class="cls-15" points="710.53 162.85 707.92 162.85 710.76 158.37 713.38 158.37 710.53 162.85"/></g><g class="cls-3"><polygon class="cls-8" points="706.93 175.93 747.84 182.09 747.29 184.97 705.77 181.1 706.93 175.93"/><polygon class="cls-15" points="747.29 184.97 744.67 184.97 703.15 181.1 705.77 181.1 747.29 184.97"/><polygon class="cls-15" points="705.77 181.1 703.15 181.1 704.31 175.93 706.93 175.93 705.77 181.1"/></g><g class="cls-3"><polygon class="cls-8" points="747.93 185.93 748.54 188.79 708.76 201.34 707.84 196.12 747.93 185.93"/><polygon class="cls-15" points="708.76 201.34 706.14 201.34 705.22 196.12 707.84 196.12 708.76 201.34"/><polygon class="cls-17" points="707.84 196.12 705.22 196.12 745.31 185.93 747.93 185.93 707.84 196.12"/></g><g class="cls-3"><polygon class="cls-8" points="731.19 141.57 751.43 173.54 748.83 174.9 726.4 143.89 731.19 141.57"/><polygon class="cls-15" points="748.83 174.9 746.21 174.9 723.78 143.89 726.4 143.89 748.83 174.9"/><polygon class="cls-15" points="726.4 143.89 723.78 143.89 728.58 141.57 731.19 141.57 726.4 143.89"/></g><circle class="cls-18" cx="1041.43" cy="798.63" r="14.91" transform="translate(-75.01 1198.44) rotate(-88.02)"/></g><g id="body"><path class="cls-22" d="M315.33,829.55c6-7.33,10.67-20,4-39.33-6.67-27.33.67-30.67.67-30.67,19.33-20.67,108-52.67,156.67-56.67S528,700.22,528,700.22c16-2,74-6,74-6s36-31.33,112.67-65.33c80-20.67,108.67-15.33,162-13.33S996,638.88,1068,663.55c62,18,108.67,13.33,108.67,13.33,3.67,2.67,1,3.67.67,7.33s.17,27.17,2.5,34.5S1201,749.55,1201,749.55v40.67l-20.67,42.33-13.67,3.33-5-9.67-42,13.33s1.67-1.33,1.67-9.67c0-11.67-2-24.32-6.5-38.5a142.79,142.79,0,0,0-15.5-32.83c-4.9-7.54-9.06-9.51-14.67-13.33-10.75-7.33-18.55-9-26.33-10.33-7.94-1.32-18.13-1.17-22-1-5,.22-16.31,1.64-31.33,10-8.21,4.57-17.32,10.67-25.33,22.33C957,799.22,962,842.88,962,842.88s-62,6-83.33,3.33-63.33,5.33-63.33,5.33l-269.17,3.33-1.25-15.25a36.87,36.87,0,0,0,.17-4.58c-.06-1.86-.59-3.79.25-5.67.74-1.65,3.55-2,4.83-3.25-.16-2.63,2.8-17.76-.25-32.75-2.11-10.36-4.72-24.57-11.75-29.25-3.41-2.27-9.64-2.44-13.5-2-31.33-30.67-94.17-28.75-119.5,9.25S390,847.55,390,847.55s-6-.67-41.33,0-43.67,3-47.67,2.33S305.33,837.55,315.33,829.55Z" transform="translate(-282.34 -613.43)"/></g><g id="shiny"><path class="cls-23" d="M964.66,793.88s-21,3-26,0-9-11-14-11-5-17-5-17l-13-16-321.75,8.5-6.75-6.5s-38.5,0-46.5,8c0,0-4.5,2.5-8.5.25s-25.75-24-59.25-20.75-48,20.5-48,20.5l-14.25,17.75-13.5-1s27.25-40,63.25-44,47,3.25,47,3.25l32.75-20s53,5.5,73,3.75,40.25-2,40.25-2l250.5-16.5L995,750.22l-15,14.67Z" transform="translate(-282.34 -613.43)"/><path class="cls-23" d="M845.16,827.38s12.5-1,19.5-8.5c25.5-2,44-3,44-3s-16,16-66,18-287,10-287,10l-1-6.5Z" transform="translate(-282.34 -613.43)"/><path class="cls-23" d="M961.41,842.13l3.25,11.75s3,6.25-4.75,5.25H888.16s-9.25-11.5-13.5-12.25-26-.5-26-.5l-5-1.25Z" transform="translate(-282.34 -613.43)"/></g><g id="Layer_12" data-name="Layer 12"><path d="M608.88,734.71c3.25-11.07,11.77-21.29,21.53-27.33,9.57-5.92,21.22-6.47,32.09-7.87,25.64-3.32,51.32-6.22,77-9.22,22.89-2.68,45.79-5.85,68.86-6.46a281.72,281.72,0,0,1,34.08,1.11c9.18.87,18,3.3,27.18,1.73,3.68-.63,7.35-1.44,11.06-1.88,4.34-.52,7.13-.81,9.7,3.07a72.88,72.88,0,0,1,10.48,25.58c3.89,18.83,1,38.72-5.62,56.59a121.75,121.75,0,0,1-31.89,47c-4.28,4-8.64,7-14.35,8.48-6.62,1.73-13.58,1.79-20.37,2.1q-18.79.86-37.58,1.59-88,3.38-176.15,3.62l1.45,1.1a320.11,320.11,0,0,1-8.73-50.08c-1.48-16.16-2.71-33.17,1.28-49.06.47-1.87-2.42-2.67-2.89-.8-4.06,16.18-2.89,33.4-1.39,49.86a325.79,325.79,0,0,0,8.83,50.87,1.52,1.52,0,0,0,1.45,1.1q84.64-.24,169.23-3.36,21.27-.79,42.53-1.76c10.72-.49,22.94-.09,32.28-6.22,8-5.27,15.17-13.3,21.05-20.84a120.07,120.07,0,0,0,15-25.16c7.73-17.39,11.91-36.78,10.18-55.84a81.47,81.47,0,0,0-7.16-27.2c-2.84-6.08-5.7-13.79-13.27-13.88s-14.69,3.17-22.13,3c-5.73-.14-11.74-1.67-17.45-2.27q-9.82-1-19.69-1.35c-24.46-.79-48.78,2-73,4.88-31.32,3.74-62.66,7.21-93.94,11.28-11.4,1.48-22.71,2.62-32.31,9.57-9.16,6.63-17,16.39-20.25,27.33C605.45,735.77,608.34,736.56,608.88,734.71Z" transform="translate(-282.34 -613.43)"/></g><g id="window"><path class="cls-24" d="M890,633.38c31.42,6.25,63.34,12.67,91.78,28.07l-2.41,2.92S949.35,683.79,932.29,688s-34.64,5.39-52.13,6.57Z" transform="translate(-282.34 -613.43)"/><path class="cls-25" d="M893.52,639c27.28,5.15,55,10.45,79.7,23.14-.7.8-.86,1.34-1.56,2.14,0,0-26.65,16.28-41.46,19.74s-30.08,4.44-45.26,5.42Z" transform="translate(-282.34 -613.43)"/><path class="cls-24" d="M734.91,638.63a93.62,93.62,0,0,1,16.75-6.08c8.09-2.32,17.83-3.52,26.21-4.3A406.35,406.35,0,0,1,890,633.38c-.13.45,2.59,1.8,2.49,2.25-1.15,5.07-8,43.35-9.75,56.75-.08.6-2.56,1.59-2.62,2.18-80.88,5-170.87,8.23-251.87,10.32C658.1,682.1,700.87,654.43,734.91,638.63Z" transform="translate(-282.34 -613.43)"/><path class="cls-25" d="M734.55,643.31a137.53,137.53,0,0,1,19.86-7.83,132.85,132.85,0,0,1,24.28-4.06,401,401,0,0,1,110.11,4.92c-5.33,18.39-8.28,35.11-10.54,54.13-79,4.89-158.5,7.53-237.58,9.57A505,505,0,0,1,734.55,643.31Z" transform="translate(-282.34 -613.43)"/></g><g id="side_mirror" data-name="side mirror"><path class="cls-24" d="M655.59,703.92c.83-1.53,2-2.89,2.69-4.48,2.52-5.58-.71-12.36,1.33-18.13a15,15,0,0,1,4.3-6c7.47-6.71,18.8-8.92,27.8-5a6.77,6.77,0,0,1,3.23,2.27c.84,1.19,2.25,2.6,2.08,4.42-.26,4.31-.16,6-.42,10.36-.22,3.58-.77,7.73-3.85,9.55-4.49,2.64-11.09-1.66-15.14,1.61-1.73,1.4-1.85,3.42-1.79,5.65s1,3.84,1.25,6.06c.17,1.64,1.3,4.17-.25,4.75-.82.31-20.49,1.05-21.87.06-1-.71-1.27-4-1.44-5.19C653.12,707.09,654.27,706.35,655.59,703.92Z" transform="translate(-282.34 -613.43)"/><path class="cls-26" d="M660.06,680.27c1.43-3.09,4.68-5.73,7.58-7.5,6.16-3.75,12.83-5.38,19.86-3.75a24.76,24.76,0,0,1,5.74,2.07,4.16,4.16,0,0,1,1.2,1c.23.27.45.61.75.92a5.43,5.43,0,0,1,1.28,1.86,4.41,4.41,0,0,1,.54,1.58c.1,1.52-.22,3.46-.15,3.46l-14.36,6.35-1.94,1c-2.11,1.55-3.94,2.31-6,3.63-4,2.54-9.48,3.89-14.23,4.37a2.9,2.9,0,0,1-1-.25s-.08,0-.09-.12c-.12-.54,0-2.1-.07-2.45C658.8,688.12,658.24,684.18,660.06,680.27Z" transform="translate(-282.34 -613.43)"/><path d="M331.68,821.31l11.65-16.26c2.59-3.62,5.22-7.28,8.6-10.19s7.63-5,12.09-5c.61,0,1.36.14,1.55.72l0,.07L352,822.44c-1.41,3.31-3,6.87-6.22,8.56-2.21,1.18-4.83,1.25-7.33,1.21s-5.1-.17-7.65-.38a3,3,0,0,1-1.88-.61,2.49,2.49,0,0,1-.62-1.68C328.07,826.51,329.91,823.78,331.68,821.31Z" transform="translate(-282.34 -613.43)"/></g><g id="diffuser"><path d="M1118.77,845.27l2.54-13.12h.88l1.41.06a96,96,0,0,0,31-6.3c2.39-.92,4.84-1.95,7.39-1.8s5.22,1.92,5.42,4.46c.11,1.44-.55,3,.17,4.27a3.06,3.06,0,0,0,2.23,1.35l1.4.06c6.38-.24,10.53-7,13.11-12.94q5-11.66,8.9-23.79c1.36-4.27,2.66-8.69,5.44-12.2s7.48-5.93,11.77-4.64a4.71,4.71,0,0,1,2.85,2c.85,1.53.34,3.42-.18,5.08l-12.53,39.67-1.32,4.16a9.4,9.4,0,0,1-1.49,3.06,1.15,1.15,0,0,1-.9.59l-23.81-1,23.54,1a25.82,25.82,0,0,1-7.47.92,162.88,162.88,0,0,0-19.91,2.46c-6.52,1.08-13,2.16-19.49,3.58a320.33,320.33,0,0,0-31.76,9.14A31.2,31.2,0,0,1,1118.77,845.27Z" transform="translate(-282.34 -613.43)"/></g><g id="flare_glare" data-name="flare glare"><path class="cls-27" d="M1198.66,788.72,1189,816.88l-8.33,13.67-12,4.67,1,2.5,27.5-5.17,15-46.5S1204.16,779.38,1198.66,788.72Z" transform="translate(-282.34 -613.43)"/></g><g id="flares"><path class="cls-28" d="M1137.69,722.3a501.37,501.37,0,0,1-43.78,29.63,1.5,1.5,0,0,0,1.51,2.59,501.37,501.37,0,0,0,43.78-29.63c1.53-1.14,0-3.75-1.51-2.59Z" transform="translate(-282.34 -613.43)"/><path class="cls-28" d="M1124.65,695.9c-17.77-1.43-35.57-2.35-53.34-3.64-18.12-1.31-35.64-2.85-53.61.8-18.4,3.73-36.55,9.09-54.72,13.78l-56.15,14.48a1.53,1.53,0,0,0-1.1,1.45c-.1,32.88-14.15,64.87-33.61,90.86-1.16,1.55,1.45,3,2.59,1.51,19.76-26.4,33.92-59,34-92.38l-1.1,1.45,56.15-14.48c17.59-4.54,35.15-9.62,52.92-13.4,18.36-3.91,36.08-2.41,54.62-1.07,17.78,1.29,35.58,2.22,53.34,3.64,1.92.15,1.91-2.85,0-3Z" transform="translate(-282.34 -613.43)"/><path d="M961.16,811.88c-29.24,1.14-58.51-.14-87.75,1-1.92.07-1.93,3.08,0,3,29.24-1.14,58.51.14,87.75-1,1.92-.07,1.93-3.08,0-3Z" transform="translate(-282.34 -613.43)"/><path class="cls-28" d="M1123.36,698.15A340.51,340.51,0,0,1,1146.29,746c1,2.55,2.27,6.22,1.2,8.95-.75,1.92-3.78,3.9-5.3,5.22-3.2,2.78-6.48,5.46-9.79,8.1-6.63,5.3-13.4,10.43-20.07,15.68-1.51,1.19.62,3.3,2.12,2.12,7.87-6.21,15.89-12.23,23.65-18.57,5.07-4.15,14.27-9.34,12.83-17.05-.88-4.7-3.36-9.42-5.2-13.81q-2.56-6.14-5.35-12.18c-4.39-9.49-9.23-18.77-14.44-27.84a1.5,1.5,0,0,0-2.59,1.51Z" transform="translate(-282.34 -613.43)"/><path d="M1114.84,784.63c-4.52-12.79-11-24.91-21.25-34a76.48,76.48,0,0,0-40.28-18.08c-30.51-4.08-59.37,10.64-76.54,35.69-9.15,13.35-15.57,29-17.11,45.18-.18,1.92,2.82,1.91,3,0,2.53-26.61,18.55-53.39,41.35-67.45a75,75,0,0,1,82.63,2.9c12.5,9,20.24,22.29,25.3,36.6.64,1.81,3.54,1,2.89-.8Z" transform="translate(-282.34 -613.43)"/><path class="cls-28" d="M606.21,717.62c-9.86,1.31-19.7,2.79-29.56,4.15-11.06,1.52-21.82,3.2-32.45-1.25-8.56-3.59-16.26-8.75-25.16-11.6a91.55,91.55,0,0,0-26.24-4.12c-19-.35-37.82,3.94-55.79,9.66a138.86,138.86,0,0,0-49.34,27.35,322.84,322.84,0,0,0-23.75,22.26c-6.38,6.71-11.81,14.21-14.2,23.27a1.51,1.51,0,0,0,1.45,1.9c10.53-.57,21.07-.17,31.6-.29,5.46-.06,15.83,1.71,16.64-5.8.21-1.92-2.8-1.9-3,0-.48,4.52-19.63,2.82-23,2.8-7.43,0-14.86-.12-22.27.28l1.45,1.9c4.55-17.25,21.06-29.92,33.83-41.27,15.07-13.39,31.29-23,50.51-29.23,17.71-5.71,36.28-10,55-9.83a88.45,88.45,0,0,1,27.9,4.56c8.21,2.83,15.39,7.69,23.37,11,9.95,4.14,19.83,3.24,30.27,1.84,10.91-1.46,21.8-3.12,32.72-4.58,1.89-.25,1.91-3.25,0-3Z" transform="translate(-282.34 -613.43)"/><path class="cls-28" d="M609,834.92c-2.27-19.7-4.86-39.38-6.71-59.12-1.78-19-2-38.36,5.36-56.28.73-1.79-2.17-2.56-2.89-.8-7.2,17.57-7.28,36.65-5.63,55.29,1.8,20.34,4.53,40.63,6.87,60.91.22,1.9,3.22,1.92,3,0Z" transform="translate(-282.34 -613.43)"/><path class="cls-28" d="M607.5,833.42c-20.79.81-41.55,2.4-62.34,3.21-1.92.07-1.93,3.08,0,3,20.79-.81,41.55-2.4,62.34-3.21,1.92-.07,1.93-3.08,0-3Z" transform="translate(-282.34 -613.43)"/><path class="cls-28" d="M546.61,838.53c.77-3.18-1.33-7.38,1.42-9.2,1.82-1.2,2.82-.95,3.63-3.2,1.48-4.12,1.06-10,1.23-14.41a113,113,0,0,0-.37-15.55c-.85-8.63-2.85-17.25-7.07-24.89-1.68-3-3.76-6.53-6.65-8.58-2.63-1.87-5.75-1.76-8.85-1.84-4.93-.13-7.13-1.86-10.54-5.18a30.17,30.17,0,0,0-6.86-5,110.06,110.06,0,0,0-22.44-9,82.89,82.89,0,0,0-53.49,3.44,78.81,78.81,0,0,0-40,37.27c-.88,1.72,1.71,3.24,2.59,1.51,15.92-31.11,51-47.52,85.23-40.52a101,101,0,0,1,24.31,8.71c4.87,2.41,8.07,6.08,12.29,9.38a11.23,11.23,0,0,0,6.37,2.34c5.44.46,9.21-.19,12.85,4.8,5.06,7,7.63,15.53,8.85,24,1.42,9.8,1.06,19.84,0,29.66-.34,3.23-1.3,3.34-3.69,4.77-.75.45-1.48.57-2,1.36-1.7,2.53,1,6.61.31,9.4-.46,1.88,2.43,2.68,2.89.8Z" transform="translate(-282.34 -613.43)"/></g><g id="rivets"><g class="cls-3"><g class="cls-3"><g class="cls-29"><g class="cls-3"><path class="cls-30" d="M943.58,811.36l0,0a1.05,1.05,0,0,1-.74-.31l0,0a1.05,1.05,0,0,0,.74.31" transform="translate(-282.34 -613.43)"/></g></g></g><g class="cls-3"><g class="cls-31"><g class="cls-3"><path class="cls-32" d="M944.33,809.56l0,0a1.07,1.07,0,0,1,.23.35l0,0a1.07,1.07,0,0,0-.23-.35" transform="translate(-282.34 -613.43)"/><path class="cls-33" d="M944.56,809.91l0,0a1.05,1.05,0,0,1,.06.21l0,0a1.05,1.05,0,0,0-.06-.21" transform="translate(-282.34 -613.43)"/><path class="cls-34" d="M944.62,810.11l0,0a1.06,1.06,0,0,1,0,.17l0,0a1.06,1.06,0,0,0,0-.17" transform="translate(-282.34 -613.43)"/><path class="cls-35" d="M944.64,810.29l0,0v0l0,0v0" transform="translate(-282.34 -613.43)"/></g></g></g><path class="cls-36" d="M943.58,809.24a1.06,1.06,0,1,1-1.05,1.06A1.06,1.06,0,0,1,943.58,809.24Z" transform="translate(-282.34 -613.43)"/><g class="cls-3"><g class="cls-37"><g class="cls-3"><path class="cls-35" d="M944.64,810.31l0,0a1.06,1.06,0,0,1,0,.14l0,0a1.06,1.06,0,0,0,0-.14" transform="translate(-282.34 -613.43)"/><path class="cls-38" d="M944.63,810.45l0,0a1,1,0,0,1,0,.16l0,0a1,1,0,0,0,0-.16" transform="translate(-282.34 -613.43)"/><path class="cls-39" d="M944.6,810.61l0,0a1,1,0,0,1-.07.18l0,0a1,1,0,0,0,.07-.18" transform="translate(-282.34 -613.43)"/><path class="cls-30" d="M944.53,810.78l0,0a1.06,1.06,0,0,1-.95.58l0,0a1.06,1.06,0,0,0,.95-.58" transform="translate(-282.34 -613.43)"/></g></g></g></g><g class="cls-3"><g class="cls-3"><g class="cls-40"><g class="cls-3"><path class="cls-32" d="M605.05,831.45l0,0a1,1,0,0,1,.23.35l0,0a1,1,0,0,0-.23-.35" transform="translate(-282.34 -613.43)"/><path class="cls-33" d="M605.28,831.79l0,0a1,1,0,0,1,.06.21l0,0a1,1,0,0,0-.06-.21" transform="translate(-282.34 -613.43)"/><path class="cls-34" d="M605.34,832l0,0a1.07,1.07,0,0,1,0,.17l0,0a1.07,1.07,0,0,0,0-.17" transform="translate(-282.34 -613.43)"/><path class="cls-35" d="M605.36,832.17l0,0v0l0,0v0" transform="translate(-282.34 -613.43)"/></g></g></g><g class="cls-3"><g class="cls-41"><g class="cls-3"><path class="cls-30" d="M604.31,833.25l0,0a1,1,0,0,1-.75-.31l0,0a1,1,0,0,0,.75.31" transform="translate(-282.34 -613.43)"/></g></g></g><circle class="cls-36" cx="321.97" cy="218.77" r="1.05"/><g class="cls-3"><g class="cls-42"><g class="cls-3"><path class="cls-35" d="M605.36,832.19l0,0a1.08,1.08,0,0,1,0,.14l0,0a1.08,1.08,0,0,0,0-.14" transform="translate(-282.34 -613.43)"/><path class="cls-38" d="M605.35,832.34l0,0a1.06,1.06,0,0,1,0,.16l0,0a1.06,1.06,0,0,0,0-.16" transform="translate(-282.34 -613.43)"/><path class="cls-39" d="M605.32,832.5l0,0a1,1,0,0,1-.07.18l0,0a1,1,0,0,0,.07-.18" transform="translate(-282.34 -613.43)"/><path class="cls-30" d="M605.24,832.68l0,0a1,1,0,0,1-.94.57l0,0a1,1,0,0,0,.94-.57" transform="translate(-282.34 -613.43)"/></g></g></g></g><g class="cls-3"><g class="cls-3"><g class="cls-43"><g class="cls-3"><path class="cls-32" d="M600.55,796.11l0,0a1,1,0,0,1,.23.35l0,0a1,1,0,0,0-.23-.35" transform="translate(-282.34 -613.43)"/><path class="cls-33" d="M600.78,796.46l0,0a1,1,0,0,1,.06.21l0,0a1,1,0,0,0-.06-.21" transform="translate(-282.34 -613.43)"/><path class="cls-34" d="M600.84,796.67l0,0a1.07,1.07,0,0,1,0,.17l0,0a1.07,1.07,0,0,0,0-.17" transform="translate(-282.34 -613.43)"/><path class="cls-35" d="M600.86,796.84l0,0v0l0,0v0" transform="translate(-282.34 -613.43)"/></g></g></g><g class="cls-3"><g class="cls-44"><g class="cls-3"><path class="cls-30" d="M599.81,797.92l0,0a1,1,0,0,1-.74-.31l0,0a1,1,0,0,0,.74.31" transform="translate(-282.34 -613.43)"/></g></g></g><ellipse class="cls-36" cx="317.47" cy="183.44" rx="1.05" ry="1.06"/><g class="cls-3"><g class="cls-45"><g class="cls-3"><path class="cls-35" d="M600.86,796.86l0,0a1.08,1.08,0,0,1,0,.14l0,0a1.08,1.08,0,0,0,0-.14" transform="translate(-282.34 -613.43)"/><path class="cls-38" d="M600.85,797l0,0a1.07,1.07,0,0,1,0,.16l0,0a1.07,1.07,0,0,0,0-.16" transform="translate(-282.34 -613.43)"/><path class="cls-39" d="M600.82,797.17l0,0a1.06,1.06,0,0,1-.07.18l0,0a1.06,1.06,0,0,0,.07-.18" transform="translate(-282.34 -613.43)"/><path class="cls-30" d="M600.74,797.35l0,0a1,1,0,0,1-.94.58l0,0a1,1,0,0,0,.94-.58" transform="translate(-282.34 -613.43)"/></g></g></g></g><g class="cls-3"><g class="cls-3"><g class="cls-46"><g class="cls-3"><path class="cls-30" d="M596.69,762.75l0,0a1.05,1.05,0,0,1-.74-.31l0,0a1.05,1.05,0,0,0,.74.31" transform="translate(-282.34 -613.43)"/></g></g></g><g class="cls-3"><g class="cls-47"><g class="cls-3"><path class="cls-32" d="M597.44,760.95l0,0a1.07,1.07,0,0,1,.23.35l0,0a1.07,1.07,0,0,0-.23-.35" transform="translate(-282.34 -613.43)"/><path class="cls-33" d="M597.68,761.3l0,0a1.05,1.05,0,0,1,.06.21l0,0a1.05,1.05,0,0,0-.06-.21" transform="translate(-282.34 -613.43)"/><path class="cls-34" d="M597.74,761.51l0,0a1.06,1.06,0,0,1,0,.17l0,0a1.06,1.06,0,0,0,0-.17" transform="translate(-282.34 -613.43)"/><path class="cls-35" d="M597.75,761.68l0,0v0l0,0v0" transform="translate(-282.34 -613.43)"/></g></g></g><path class="cls-36" d="M596.69,760.64a1.06,1.06,0,1,1-1.05,1.06A1.06,1.06,0,0,1,596.69,760.64Z" transform="translate(-282.34 -613.43)"/><g class="cls-3"><g class="cls-48"><g class="cls-3"><path class="cls-35" d="M597.76,761.7l0,0a1.06,1.06,0,0,1,0,.14l0,0a1.06,1.06,0,0,0,0-.14" transform="translate(-282.34 -613.43)"/><path class="cls-38" d="M597.75,761.84l0,0a1,1,0,0,1,0,.16l0,0a1,1,0,0,0,0-.16" transform="translate(-282.34 -613.43)"/><path class="cls-39" d="M597.71,762l0,0a1,1,0,0,1-.07.18l0,0a1,1,0,0,0,.07-.18" transform="translate(-282.34 -613.43)"/><path class="cls-30" d="M597.64,762.17l0,0a1.06,1.06,0,0,1-.95.58l0,0a1.06,1.06,0,0,0,.95-.58" transform="translate(-282.34 -613.43)"/></g></g></g></g><g class="cls-3"><g class="cls-3"><g class="cls-49"><g class="cls-3"><path class="cls-30" d="M601.8,723.42l0,0a1,1,0,0,1-.74-.31l0,0a1,1,0,0,0,.74.31" transform="translate(-282.34 -613.43)"/></g></g></g><g class="cls-3"><g class="cls-50"><g class="cls-3"><path class="cls-32" d="M602.56,721.62l0,0a1.05,1.05,0,0,1,.23.35l0,0a1.05,1.05,0,0,0-.23-.35" transform="translate(-282.34 -613.43)"/><path class="cls-33" d="M602.79,722l0,0a1,1,0,0,1,.06.2l0,0a1,1,0,0,0-.06-.2" transform="translate(-282.34 -613.43)"/><path class="cls-34" d="M602.85,722.17l0,0a1.05,1.05,0,0,1,0,.17l0,0a1.05,1.05,0,0,0,0-.17" transform="translate(-282.34 -613.43)"/><path class="cls-35" d="M602.87,722.34l0,0v0l0,0v0" transform="translate(-282.34 -613.43)"/></g></g></g><circle class="cls-36" cx="319.47" cy="108.93" r="1.06"/><g class="cls-3"><g class="cls-51"><g class="cls-3"><path class="cls-35" d="M602.87,722.36l0,0a1.06,1.06,0,0,1,0,.14l0,0a1.06,1.06,0,0,0,0-.14" transform="translate(-282.34 -613.43)"/><path class="cls-38" d="M602.86,722.5l0,0a1.05,1.05,0,0,1,0,.16l0,0a1.05,1.05,0,0,0,0-.16" transform="translate(-282.34 -613.43)"/><path class="cls-39" d="M602.82,722.66l0,0a1.06,1.06,0,0,1-.07.18l0,0a1.06,1.06,0,0,0,.07-.18" transform="translate(-282.34 -613.43)"/><path class="cls-30" d="M602.75,722.84l0,0a1.06,1.06,0,0,1-.95.58l0,0a1.06,1.06,0,0,0,.95-.58" transform="translate(-282.34 -613.43)"/></g></g></g></g><g class="cls-3"><g class="cls-3"><g class="cls-52"><g class="cls-3"><path class="cls-30" d="M515.64,713.92l0,0a1,1,0,0,1-.75-.31l0,0a1,1,0,0,0,.75.31" transform="translate(-282.34 -613.43)"/></g></g></g><g class="cls-3"><g class="cls-53"><g class="cls-3"><path class="cls-32" d="M516.39,712.11l0,0a1.07,1.07,0,0,1,.23.35l0,0a1.07,1.07,0,0,0-.23-.35" transform="translate(-282.34 -613.43)"/><path class="cls-33" d="M516.62,712.46l0,0a1.05,1.05,0,0,1,.06.21l0,0a1.05,1.05,0,0,0-.06-.21" transform="translate(-282.34 -613.43)"/><path class="cls-34" d="M516.68,712.67l0,0a1.06,1.06,0,0,1,0,.17l0,0a1.06,1.06,0,0,0,0-.17" transform="translate(-282.34 -613.43)"/><path class="cls-35" d="M516.7,712.84l0,0v0l0,0v0" transform="translate(-282.34 -613.43)"/></g></g></g><circle class="cls-36" cx="233.3" cy="99.43" r="1.06"/><g class="cls-3"><g class="cls-54"><g class="cls-3"><path class="cls-35" d="M516.7,712.86l0,0a1.06,1.06,0,0,1,0,.14l0,0a1.06,1.06,0,0,0,0-.14" transform="translate(-282.34 -613.43)"/><path class="cls-38" d="M516.69,713l0,0a1,1,0,0,1,0,.16l0,0a1,1,0,0,0,0-.16" transform="translate(-282.34 -613.43)"/><path class="cls-39" d="M516.66,713.16l0,0a1,1,0,0,1-.07.18l0,0a1,1,0,0,0,.07-.18" transform="translate(-282.34 -613.43)"/><path class="cls-30" d="M516.59,713.34l0,0a1.06,1.06,0,0,1-.95.58l0,0a1.06,1.06,0,0,0,.95-.58" transform="translate(-282.34 -613.43)"/></g></g></g></g><g class="cls-3"><g class="cls-3"><g class="cls-55"><g class="cls-3"><path class="cls-30" d="M476,711.41l0,0a1.06,1.06,0,0,1-.75-.31l0,0a1.06,1.06,0,0,0,.75.31" transform="translate(-282.34 -613.43)"/></g></g></g><g class="cls-3"><g class="cls-56"><g class="cls-3"><path class="cls-32" d="M476.72,709.62l0,0a1,1,0,0,1,.23.35l0,0a1,1,0,0,0-.23-.35" transform="translate(-282.34 -613.43)"/><path class="cls-33" d="M477,710l0,0a1,1,0,0,1,.06.21l0,0A1,1,0,0,0,477,710" transform="translate(-282.34 -613.43)"/><path class="cls-34" d="M477,710.17l0,0a1.07,1.07,0,0,1,0,.17l0,0a1.07,1.07,0,0,0,0-.17" transform="translate(-282.34 -613.43)"/><path class="cls-35" d="M477,710.34l0,0v0l0,0v0" transform="translate(-282.34 -613.43)"/></g></g></g><ellipse class="cls-36" cx="193.63" cy="96.93" rx="1.06" ry="1.05"/><g class="cls-3"><g class="cls-57"><g class="cls-3"><path class="cls-35" d="M477,710.36l0,0a1.08,1.08,0,0,1,0,.14l0,0a1.08,1.08,0,0,0,0-.14" transform="translate(-282.34 -613.43)"/><path class="cls-38" d="M477,710.51l0,0a1.06,1.06,0,0,1,0,.16l0,0a1.06,1.06,0,0,0,0-.16" transform="translate(-282.34 -613.43)"/><path class="cls-39" d="M477,710.67l0,0a1,1,0,0,1-.07.18l0,0a1,1,0,0,0,.07-.18" transform="translate(-282.34 -613.43)"/><path class="cls-30" d="M476.91,710.84l0,0a1,1,0,0,1-.94.57l0,0a1,1,0,0,0,.94-.57" transform="translate(-282.34 -613.43)"/></g></g></g></g><g class="cls-3"><g class="cls-3"><g class="cls-58"><g class="cls-3"><path class="cls-30" d="M437,720.31l0,0a1.05,1.05,0,0,1-.74-.31l0,0a1.05,1.05,0,0,0,.74.31" transform="translate(-282.34 -613.43)"/></g></g></g><g class="cls-3"><g class="cls-59"><g class="cls-3"><path class="cls-32" d="M437.72,718.5l0,0a1.07,1.07,0,0,1,.23.35l0,0a1.07,1.07,0,0,0-.23-.35" transform="translate(-282.34 -613.43)"/><path class="cls-33" d="M438,718.85l0,0a1.05,1.05,0,0,1,.06.21l0,0a1.05,1.05,0,0,0-.06-.21" transform="translate(-282.34 -613.43)"/><path class="cls-34" d="M438,719.06l0,0a1.06,1.06,0,0,1,0,.17l0,0a1.06,1.06,0,0,0,0-.17" transform="translate(-282.34 -613.43)"/><path class="cls-35" d="M438,719.23l0,0v0l0,0v0" transform="translate(-282.34 -613.43)"/></g></g></g><path class="cls-36" d="M437,718.19a1.06,1.06,0,1,1-1.05,1.06A1.06,1.06,0,0,1,437,718.19Z" transform="translate(-282.34 -613.43)"/><g class="cls-3"><g class="cls-60"><g class="cls-3"><path class="cls-35" d="M438,719.25l0,0a1.06,1.06,0,0,1,0,.14l0,0a1.06,1.06,0,0,0,0-.14" transform="translate(-282.34 -613.43)"/><path class="cls-38" d="M438,719.39l0,0a1,1,0,0,1,0,.16l0,0a1,1,0,0,0,0-.16" transform="translate(-282.34 -613.43)"/><path class="cls-39" d="M438,719.55l0,0a1,1,0,0,1-.07.18l0,0a1,1,0,0,0,.07-.18" transform="translate(-282.34 -613.43)"/><path class="cls-30" d="M437.92,719.73l0,0a1.06,1.06,0,0,1-.95.58l0,0a1.06,1.06,0,0,0,.95-.58" transform="translate(-282.34 -613.43)"/></g></g></g></g><g class="cls-3"><g class="cls-3"><g class="cls-61"><g class="cls-3"><path class="cls-30" d="M402.31,737l0,0a1.06,1.06,0,0,1-.75-.31l0,0a1.06,1.06,0,0,0,.75.31" transform="translate(-282.34 -613.43)"/></g></g></g><g class="cls-3"><g class="cls-62"><g class="cls-3"><path class="cls-32" d="M403.05,735.17l0,0a1.07,1.07,0,0,1,.23.35l0,0a1.07,1.07,0,0,0-.23-.35" transform="translate(-282.34 -613.43)"/><path class="cls-33" d="M403.29,735.52l0,0a1.06,1.06,0,0,1,.06.21l0,0a1.06,1.06,0,0,0-.06-.21" transform="translate(-282.34 -613.43)"/><path class="cls-34" d="M403.35,735.73l0,0a1.06,1.06,0,0,1,0,.17l0,0a1.06,1.06,0,0,0,0-.17" transform="translate(-282.34 -613.43)"/><path class="cls-35" d="M403.36,735.9l0,0v0l0,0v0" transform="translate(-282.34 -613.43)"/></g></g></g><path class="cls-36" d="M402.31,734.86a1.06,1.06,0,1,1-1.06,1.06A1.06,1.06,0,0,1,402.31,734.86Z" transform="translate(-282.34 -613.43)"/><g class="cls-3"><g class="cls-63"><g class="cls-3"><path class="cls-35" d="M403.36,735.92l0,0a1,1,0,0,1,0,.14l0,0a1,1,0,0,0,0-.14" transform="translate(-282.34 -613.43)"/><path class="cls-38" d="M403.35,736.06l0,0a1,1,0,0,1,0,.16l0,0a1,1,0,0,0,0-.16" transform="translate(-282.34 -613.43)"/><path class="cls-39" d="M403.32,736.22l0,0a1,1,0,0,1-.07.18l0,0a1,1,0,0,0,.07-.18" transform="translate(-282.34 -613.43)"/><path class="cls-30" d="M403.25,736.39l0,0a1.06,1.06,0,0,1-.94.58l0,0a1.06,1.06,0,0,0,.94-.58" transform="translate(-282.34 -613.43)"/></g></g></g></g><g class="cls-3"><g class="cls-3"><g class="cls-64"><g class="cls-3"><path class="cls-30" d="M383.53,753.59l0,0a1,1,0,0,1-.74-.31l0,0a1,1,0,0,0,.74.31" transform="translate(-282.34 -613.43)"/></g></g></g><g class="cls-3"><g class="cls-65"><g class="cls-3"><path class="cls-32" d="M384.28,751.79l0,0a1.05,1.05,0,0,1,.23.35l0,0a1.05,1.05,0,0,0-.23-.35" transform="translate(-282.34 -613.43)"/><path class="cls-33" d="M384.51,752.13l0,0a1,1,0,0,1,.06.2l0,0a1,1,0,0,0-.06-.2" transform="translate(-282.34 -613.43)"/><path class="cls-34" d="M384.57,752.34l0,0a1.05,1.05,0,0,1,0,.17l0,0a1.05,1.05,0,0,0,0-.17" transform="translate(-282.34 -613.43)"/><path class="cls-35" d="M384.59,752.51l0,0v0l0,0v0" transform="translate(-282.34 -613.43)"/></g></g></g><circle class="cls-36" cx="101.19" cy="139.1" r="1.06"/><g class="cls-3"><g class="cls-66"><g class="cls-3"><path class="cls-35" d="M384.59,752.53l0,0a1.06,1.06,0,0,1,0,.14l0,0a1.06,1.06,0,0,0,0-.14" transform="translate(-282.34 -613.43)"/><path class="cls-38" d="M384.58,752.67l0,0a1.05,1.05,0,0,1,0,.16l0,0a1.05,1.05,0,0,0,0-.16" transform="translate(-282.34 -613.43)"/><path class="cls-39" d="M384.55,752.83l0,0a1.06,1.06,0,0,1-.07.18l0,0a1.06,1.06,0,0,0,.07-.18" transform="translate(-282.34 -613.43)"/><path class="cls-30" d="M384.47,753l0,0a1.06,1.06,0,0,1-.95.58l0,0a1.06,1.06,0,0,0,.95-.58" transform="translate(-282.34 -613.43)"/></g></g></g></g><g class="cls-3"><g class="cls-3"><g class="cls-67"><g class="cls-3"><path class="cls-30" d="M356,785.25l0,0a1.05,1.05,0,0,1-.74-.31l0,0a1.05,1.05,0,0,0,.74.31" transform="translate(-282.34 -613.43)"/></g></g></g><g class="cls-3"><g class="cls-68"><g class="cls-3"><path class="cls-32" d="M356.72,783.45l0,0a1.07,1.07,0,0,1,.23.35l0,0a1.07,1.07,0,0,0-.23-.35" transform="translate(-282.34 -613.43)"/><path class="cls-33" d="M357,783.8l0,0a1.05,1.05,0,0,1,.06.21l0,0a1.05,1.05,0,0,0-.06-.21" transform="translate(-282.34 -613.43)"/><path class="cls-34" d="M357,784l0,0a1.06,1.06,0,0,1,0,.17l0,0a1.06,1.06,0,0,0,0-.17" transform="translate(-282.34 -613.43)"/><path class="cls-35" d="M357,784.18l0,0v0l0,0v0" transform="translate(-282.34 -613.43)"/></g></g></g><path class="cls-36" d="M356,783.14a1.06,1.06,0,1,1-1.05,1.06A1.06,1.06,0,0,1,356,783.14Z" transform="translate(-282.34 -613.43)"/><g class="cls-3"><g class="cls-69"><g class="cls-3"><path class="cls-35" d="M357,784.2l0,0a1.06,1.06,0,0,1,0,.14l0,0a1.06,1.06,0,0,0,0-.14" transform="translate(-282.34 -613.43)"/><path class="cls-38" d="M357,784.34l0,0a1,1,0,0,1,0,.16l0,0a1,1,0,0,0,0-.16" transform="translate(-282.34 -613.43)"/><path class="cls-39" d="M357,784.5l0,0a1,1,0,0,1-.07.18l0,0a1,1,0,0,0,.07-.18" transform="translate(-282.34 -613.43)"/><path class="cls-30" d="M356.92,784.67l0,0a1.06,1.06,0,0,1-.95.58l0,0a1.06,1.06,0,0,0,.95-.58" transform="translate(-282.34 -613.43)"/></g></g></g></g><g class="cls-3"><g class="cls-3"><g class="cls-70"><g class="cls-3"><path class="cls-30" d="M393.47,786.14l0,0a1,1,0,0,1-.74-.31l0,0a1,1,0,0,0,.74.31" transform="translate(-282.34 -613.43)"/></g></g></g><g class="cls-3"><g class="cls-71"><g class="cls-3"><path class="cls-32" d="M394.22,784.34l0,0a1.07,1.07,0,0,1,.23.35l0,0a1.07,1.07,0,0,0-.23-.35" transform="translate(-282.34 -613.43)"/><path class="cls-33" d="M394.46,784.69l0,0a1.05,1.05,0,0,1,.06.21l0,0a1.05,1.05,0,0,0-.06-.21" transform="translate(-282.34 -613.43)"/><path class="cls-34" d="M394.52,784.9l0,0a1.06,1.06,0,0,1,0,.17l0,0a1.06,1.06,0,0,0,0-.17" transform="translate(-282.34 -613.43)"/><path class="cls-35" d="M394.53,785.07l0,0v0l0,0v0" transform="translate(-282.34 -613.43)"/></g></g></g><path class="cls-36" d="M393.47,784a1.06,1.06,0,1,1-1.05,1.06A1.06,1.06,0,0,1,393.47,784Z" transform="translate(-282.34 -613.43)"/><g class="cls-3"><g class="cls-72"><g class="cls-3"><path class="cls-35" d="M394.54,785.09l0,0a1,1,0,0,1,0,.14l0,0a1,1,0,0,0,0-.14" transform="translate(-282.34 -613.43)"/><path class="cls-38" d="M394.53,785.23l0,0a1,1,0,0,1,0,.16l0,0a1,1,0,0,0,0-.16" transform="translate(-282.34 -613.43)"/><path class="cls-39" d="M394.49,785.38l0,0a1,1,0,0,1-.07.18l0,0a1,1,0,0,0,.07-.18" transform="translate(-282.34 -613.43)"/><path class="cls-30" d="M394.42,785.56l0,0a1.07,1.07,0,0,1-.95.58l0,0a1.07,1.07,0,0,0,.95-.58" transform="translate(-282.34 -613.43)"/></g></g></g></g><g class="cls-3"><g class="cls-3"><g class="cls-73"><g class="cls-3"><path class="cls-30" d="M379.15,758.25l0,0a1.06,1.06,0,0,1-.75-.31l0,0a1.06,1.06,0,0,0,.75.31" transform="translate(-282.34 -613.43)"/></g></g></g><g class="cls-3"><g class="cls-74"><g class="cls-3"><path class="cls-32" d="M379.89,756.44l0,0a1.07,1.07,0,0,1,.23.35l0,0a1.07,1.07,0,0,0-.23-.35" transform="translate(-282.34 -613.43)"/><path class="cls-33" d="M380.12,756.8l0,0a1.06,1.06,0,0,1,.06.21l0,0a1.06,1.06,0,0,0-.06-.21" transform="translate(-282.34 -613.43)"/><path class="cls-34" d="M380.18,757l0,0a1.06,1.06,0,0,1,0,.17l0,0a1.06,1.06,0,0,0,0-.17" transform="translate(-282.34 -613.43)"/><path class="cls-35" d="M380.2,757.18l0,0v0l0,0v0" transform="translate(-282.34 -613.43)"/></g></g></g><path class="cls-36" d="M379.15,756.14a1.06,1.06,0,1,1-1.06,1.06A1.06,1.06,0,0,1,379.15,756.14Z" transform="translate(-282.34 -613.43)"/><g class="cls-3"><g class="cls-75"><g class="cls-3"><path class="cls-35" d="M380.2,757.2l0,0a1.06,1.06,0,0,1,0,.14l0,0a1.06,1.06,0,0,0,0-.14" transform="translate(-282.34 -613.43)"/><path class="cls-38" d="M380.19,757.34l0,0a1,1,0,0,1,0,.16l0,0a1,1,0,0,0,0-.16" transform="translate(-282.34 -613.43)"/><path class="cls-39" d="M380.15,757.5l0,0a1,1,0,0,1-.07.18l0,0a1,1,0,0,0,.07-.18" transform="translate(-282.34 -613.43)"/><path class="cls-30" d="M380.08,757.67l0,0a1.06,1.06,0,0,1-.94.58l0,0a1.06,1.06,0,0,0,.94-.58" transform="translate(-282.34 -613.43)"/></g></g></g></g><g class="cls-3"><g class="cls-3"><g class="cls-76"><g class="cls-3"><path class="cls-32" d="M909.05,810.61l0,0a1,1,0,0,1,.23.35l0,0a1,1,0,0,0-.23-.35" transform="translate(-282.34 -613.43)"/><path class="cls-33" d="M909.28,811l0,0a1,1,0,0,1,.06.21l0,0a1,1,0,0,0-.06-.21" transform="translate(-282.34 -613.43)"/><path class="cls-34" d="M909.34,811.17l0,0a1.07,1.07,0,0,1,0,.17l0,0a1.07,1.07,0,0,0,0-.17" transform="translate(-282.34 -613.43)"/><path class="cls-35" d="M909.36,811.34l0,0v0l0,0v0" transform="translate(-282.34 -613.43)"/></g></g></g><g class="cls-3"><g class="cls-77"><g class="cls-3"><path class="cls-30" d="M908.31,812.42l0,0a1.06,1.06,0,0,1-.75-.31l0,0a1.06,1.06,0,0,0,.75.31" transform="translate(-282.34 -613.43)"/></g></g></g><circle class="cls-36" cx="625.97" cy="197.93" r="1.06"/><g class="cls-3"><g class="cls-78"><g class="cls-3"><path class="cls-35" d="M909.36,811.36l0,0a1.08,1.08,0,0,1,0,.14l0,0a1.08,1.08,0,0,0,0-.14" transform="translate(-282.34 -613.43)"/><path class="cls-38" d="M909.35,811.5l0,0a1.07,1.07,0,0,1,0,.16l0,0a1.07,1.07,0,0,0,0-.16" transform="translate(-282.34 -613.43)"/><path class="cls-39" d="M909.32,811.67l0,0a1.06,1.06,0,0,1-.07.18l0,0a1.06,1.06,0,0,0,.07-.18" transform="translate(-282.34 -613.43)"/><path class="cls-30" d="M909.25,811.85l0,0a1,1,0,0,1-.94.58l0,0a1,1,0,0,0,.94-.58" transform="translate(-282.34 -613.43)"/></g></g></g></g><g class="cls-3"><g class="cls-3"><g class="cls-79"><g class="cls-3"><path class="cls-30" d="M906,759.58l0,0a1.06,1.06,0,0,1-.75-.31l0,0a1.06,1.06,0,0,0,.75.31" transform="translate(-282.34 -613.43)"/></g></g></g><g class="cls-3"><g class="cls-80"><g class="cls-3"><path class="cls-32" d="M906.77,757.77l0,0a1.06,1.06,0,0,1,.23.35l0,0a1.06,1.06,0,0,0-.23-.35" transform="translate(-282.34 -613.43)"/><path class="cls-33" d="M907,758.13l0,0a1.06,1.06,0,0,1,.06.21l0,0a1.06,1.06,0,0,0-.06-.21" transform="translate(-282.34 -613.43)"/><path class="cls-34" d="M907.07,758.33l0,0a1.08,1.08,0,0,1,0,.17l0,0a1.08,1.08,0,0,0,0-.17" transform="translate(-282.34 -613.43)"/><path class="cls-35" d="M907.08,758.51l0,0v0l0,0v0" transform="translate(-282.34 -613.43)"/></g></g></g><circle class="cls-36" cx="623.69" cy="145.1" r="1.06"/><g class="cls-3"><g class="cls-81"><g class="cls-3"><path class="cls-35" d="M907.09,758.53l0,0a1.08,1.08,0,0,1,0,.14l0,0a1.08,1.08,0,0,0,0-.14" transform="translate(-282.34 -613.43)"/><path class="cls-38" d="M907.08,758.67l0,0a1.06,1.06,0,0,1,0,.16l0,0a1.06,1.06,0,0,0,0-.16" transform="translate(-282.34 -613.43)"/><path class="cls-39" d="M907,758.83l0,0a1,1,0,0,1-.07.18l0,0a1,1,0,0,0,.07-.18" transform="translate(-282.34 -613.43)"/><path class="cls-30" d="M907,759l0,0a1,1,0,0,1-.94.57l0,0A1,1,0,0,0,907,759" transform="translate(-282.34 -613.43)"/></g></g></g></g><g class="cls-3"><g class="cls-3"><g class="cls-82"><g class="cls-3"><path class="cls-32" d="M911.22,724.78l0,0a1.05,1.05,0,0,1,.23.35l0,0a1.05,1.05,0,0,0-.23-.35" transform="translate(-282.34 -613.43)"/><path class="cls-33" d="M911.45,725.13l0,0a1,1,0,0,1,.06.21l0,0a1,1,0,0,0-.06-.21" transform="translate(-282.34 -613.43)"/><path class="cls-34" d="M911.51,725.34l0,0a1.06,1.06,0,0,1,0,.17l0,0a1.06,1.06,0,0,0,0-.17" transform="translate(-282.34 -613.43)"/><path class="cls-35" d="M911.53,725.51l0,0v0l0,0v0" transform="translate(-282.34 -613.43)"/></g></g></g><g class="cls-3"><g class="cls-83"><g class="cls-3"><path class="cls-30" d="M910.48,726.59l0,0a1.06,1.06,0,0,1-.75-.31l0,0a1.06,1.06,0,0,0,.75.31" transform="translate(-282.34 -613.43)"/></g></g></g><path class="cls-36" d="M910.48,724.47a1.06,1.06,0,1,1-1.06,1.05A1.05,1.05,0,0,1,910.48,724.47Z" transform="translate(-282.34 -613.43)"/><g class="cls-3"><g class="cls-84"><g class="cls-3"><path class="cls-35" d="M911.53,725.53l0,0a1.07,1.07,0,0,1,0,.14l0,0a1.07,1.07,0,0,0,0-.14" transform="translate(-282.34 -613.43)"/><path class="cls-38" d="M911.52,725.67l0,0a1.05,1.05,0,0,1,0,.16l0,0a1.06,1.06,0,0,0,0-.16" transform="translate(-282.34 -613.43)"/><path class="cls-39" d="M911.49,725.83l0,0a1.06,1.06,0,0,1-.07.18l0,0a1.06,1.06,0,0,0,.07-.18" transform="translate(-282.34 -613.43)"/><path class="cls-30" d="M911.42,726l0,0a1.06,1.06,0,0,1-.94.58l0,0a1.06,1.06,0,0,0,.94-.58" transform="translate(-282.34 -613.43)"/></g></g></g></g><g class="cls-3"><g class="cls-3"><g class="cls-85"><g class="cls-3"><path class="cls-32" d="M942.88,715.89l0,0a1.06,1.06,0,0,1,.23.35l0,0a1.06,1.06,0,0,0-.23-.35" transform="translate(-282.34 -613.43)"/><path class="cls-33" d="M943.12,716.24l0,0a1,1,0,0,1,.06.21l0,0a1,1,0,0,0-.06-.21" transform="translate(-282.34 -613.43)"/><path class="cls-34" d="M943.18,716.44l0,0a1.05,1.05,0,0,1,0,.17l0,0a1.05,1.05,0,0,0,0-.17" transform="translate(-282.34 -613.43)"/><path class="cls-35" d="M943.19,716.61l0,0v0l0,0v0" transform="translate(-282.34 -613.43)"/></g></g></g><g class="cls-3"><g class="cls-86"><g class="cls-3"><path class="cls-30" d="M942.14,717.7l0,0a1,1,0,0,1-.74-.31l0,0a1,1,0,0,0,.74.31" transform="translate(-282.34 -613.43)"/></g></g></g><path class="cls-36" d="M942.14,715.58a1.06,1.06,0,1,1-1.05,1.05A1.05,1.05,0,0,1,942.14,715.58Z" transform="translate(-282.34 -613.43)"/><g class="cls-3"><g class="cls-87"><g class="cls-3"><path class="cls-35" d="M943.19,716.63l0,0a1.08,1.08,0,0,1,0,.14l0,0a1.08,1.08,0,0,0,0-.14" transform="translate(-282.34 -613.43)"/><path class="cls-38" d="M943.18,716.78l0,0a1.07,1.07,0,0,1,0,.16l0,0a1.07,1.07,0,0,0,0-.16" transform="translate(-282.34 -613.43)"/><path class="cls-39" d="M943.15,716.94l0,0a1.06,1.06,0,0,1-.07.18l0,0a1.06,1.06,0,0,0,.07-.18" transform="translate(-282.34 -613.43)"/><path class="cls-30" d="M943.08,717.12l0,0a1,1,0,0,1-.94.58l0,0a1,1,0,0,0,.94-.58" transform="translate(-282.34 -613.43)"/></g></g></g></g><g class="cls-3"><g class="cls-3"><g class="cls-88"><g class="cls-3"><path class="cls-32" d="M978.72,706.45l0,0a1.05,1.05,0,0,1,.23.35l0,0a1.05,1.05,0,0,0-.23-.35" transform="translate(-282.34 -613.43)"/><path class="cls-33" d="M979,706.8l0,0a1,1,0,0,1,.06.21l0,0a1,1,0,0,0-.06-.21" transform="translate(-282.34 -613.43)"/><path class="cls-34" d="M979,707l0,0a1.06,1.06,0,0,1,0,.17l0,0a1.06,1.06,0,0,0,0-.17" transform="translate(-282.34 -613.43)"/><path class="cls-35" d="M979,707.17l0,0v0l0,0v0" transform="translate(-282.34 -613.43)"/></g></g></g><g class="cls-3"><g class="cls-89"><g class="cls-3"><path class="cls-30" d="M978,708.26l0,0a1.06,1.06,0,0,1-.75-.31l0,0a1.06,1.06,0,0,0,.75.31" transform="translate(-282.34 -613.43)"/></g></g></g><path class="cls-36" d="M978,706.14a1.06,1.06,0,1,1-1.06,1.05A1.05,1.05,0,0,1,978,706.14Z" transform="translate(-282.34 -613.43)"/><g class="cls-3"><g class="cls-90"><g class="cls-3"><path class="cls-35" d="M979,707.19l0,0a1.07,1.07,0,0,1,0,.14l0,0a1.07,1.07,0,0,0,0-.14" transform="translate(-282.34 -613.43)"/><path class="cls-38" d="M979,707.34l0,0a1.05,1.05,0,0,1,0,.16l0,0a1.05,1.05,0,0,0,0-.16" transform="translate(-282.34 -613.43)"/><path class="cls-39" d="M979,707.5l0,0a1.06,1.06,0,0,1-.07.18l0,0a1.06,1.06,0,0,0,.07-.18" transform="translate(-282.34 -613.43)"/><path class="cls-30" d="M978.92,707.68l0,0a1.06,1.06,0,0,1-.94.58l0,0a1.06,1.06,0,0,0,.94-.58" transform="translate(-282.34 -613.43)"/></g></g></g></g><g class="cls-3"><g class="cls-3"><g class="cls-91"><g class="cls-3"><path class="cls-32" d="M1013.55,697.11l0,0a1,1,0,0,1,.23.35l0,0a1,1,0,0,0-.23-.35" transform="translate(-282.34 -613.43)"/><path class="cls-33" d="M1013.78,697.46l0,0a1,1,0,0,1,.06.21l0,0a1,1,0,0,0-.06-.21" transform="translate(-282.34 -613.43)"/><path class="cls-34" d="M1013.84,697.67l0,0a1.07,1.07,0,0,1,0,.17l0,0a1.07,1.07,0,0,0,0-.17" transform="translate(-282.34 -613.43)"/><path class="cls-35" d="M1013.86,697.84l0,0v0l0,0v0" transform="translate(-282.34 -613.43)"/></g></g></g><g class="cls-3"><g class="cls-92"><g class="cls-3"><path class="cls-30" d="M1012.81,698.92l0,0a1,1,0,0,1-.74-.31l0,0a1,1,0,0,0,.74.31" transform="translate(-282.34 -613.43)"/></g></g></g><ellipse class="cls-36" cx="730.47" cy="84.44" rx="1.05" ry="1.06"/><g class="cls-3"><g class="cls-93"><g class="cls-3"><path class="cls-35" d="M1013.86,697.86l0,0a1.08,1.08,0,0,1,0,.14l0,0a1.08,1.08,0,0,0,0-.14" transform="translate(-282.34 -613.43)"/><path class="cls-38" d="M1013.85,698l0,0a1.07,1.07,0,0,1,0,.16l0,0a1.07,1.07,0,0,0,0-.16" transform="translate(-282.34 -613.43)"/><path class="cls-39" d="M1013.82,698.17l0,0a1.06,1.06,0,0,1-.07.18l0,0a1.06,1.06,0,0,0,.07-.18" transform="translate(-282.34 -613.43)"/><path class="cls-30" d="M1013.74,698.35l0,0a1.05,1.05,0,0,1-.94.58l0,0a1.05,1.05,0,0,0,.94-.58" transform="translate(-282.34 -613.43)"/></g></g></g></g><g class="cls-3"><g class="cls-3"><g class="cls-94"><g class="cls-3"><path class="cls-32" d="M1049.22,694.28l0,0a1,1,0,0,1,.23.35l0,0a1,1,0,0,0-.23-.35" transform="translate(-282.34 -613.43)"/><path class="cls-33" d="M1049.45,694.63l0,0a1,1,0,0,1,.06.21l0,0a1,1,0,0,0-.06-.21" transform="translate(-282.34 -613.43)"/><path class="cls-34" d="M1049.51,694.83l0,0a1.07,1.07,0,0,1,0,.17l0,0a1.07,1.07,0,0,0,0-.17" transform="translate(-282.34 -613.43)"/><path class="cls-35" d="M1049.53,695l0,0v0l0,0v0" transform="translate(-282.34 -613.43)"/></g></g></g><g class="cls-3"><g class="cls-95"><g class="cls-3"><path class="cls-30" d="M1048.47,696.09l0,0a1.06,1.06,0,0,1-.75-.31l0,0a1.06,1.06,0,0,0,.75.31" transform="translate(-282.34 -613.43)"/></g></g></g><circle class="cls-36" cx="766.13" cy="81.6" r="1.06"/><g class="cls-3"><g class="cls-96"><g class="cls-3"><path class="cls-35" d="M1049.53,695l0,0a1.08,1.08,0,0,1,0,.14l0,0a1.08,1.08,0,0,0,0-.14" transform="translate(-282.34 -613.43)"/><path class="cls-38" d="M1049.52,695.17l0,0a1.07,1.07,0,0,1,0,.16l0,0a1.07,1.07,0,0,0,0-.16" transform="translate(-282.34 -613.43)"/><path class="cls-39" d="M1049.48,695.33l0,0a1.06,1.06,0,0,1-.07.18l0,0a1.06,1.06,0,0,0,.07-.18" transform="translate(-282.34 -613.43)"/><path class="cls-30" d="M1049.41,695.51l0,0a1.05,1.05,0,0,1-.94.58l0,0a1.05,1.05,0,0,0,.94-.58" transform="translate(-282.34 -613.43)"/></g></g></g></g><g class="cls-3"><g class="cls-3"><g class="cls-97"><g class="cls-3"><path class="cls-32" d="M1084.22,696.61l0,0a1.06,1.06,0,0,1,.23.35l0,0a1.06,1.06,0,0,0-.23-.35" transform="translate(-282.34 -613.43)"/><path class="cls-33" d="M1084.45,697l0,0a1.06,1.06,0,0,1,.06.21l0,0a1.06,1.06,0,0,0-.06-.21" transform="translate(-282.34 -613.43)"/><path class="cls-34" d="M1084.51,697.17l0,0a1.08,1.08,0,0,1,0,.17l0,0a1.08,1.08,0,0,0,0-.17" transform="translate(-282.34 -613.43)"/><path class="cls-35" d="M1084.53,697.35l0,0v0l0,0v0" transform="translate(-282.34 -613.43)"/></g></g></g><g class="cls-3"><g class="cls-98"><g class="cls-3"><path class="cls-30" d="M1083.48,698.42l0,0a1.06,1.06,0,0,1-.75-.31l0,0a1.06,1.06,0,0,0,.75.31" transform="translate(-282.34 -613.43)"/></g></g></g><path class="cls-36" d="M1083.48,696.3a1.06,1.06,0,1,1-1.06,1.06A1.06,1.06,0,0,1,1083.48,696.3Z" transform="translate(-282.34 -613.43)"/><g class="cls-3"><g class="cls-99"><g class="cls-3"><path class="cls-35" d="M1084.53,697.37l0,0a1.05,1.05,0,0,1,0,.14l0,0a1.05,1.05,0,0,0,0-.14" transform="translate(-282.34 -613.43)"/><path class="cls-38" d="M1084.52,697.51l0,0a1,1,0,0,1,0,.16l0,0a1,1,0,0,0,0-.16" transform="translate(-282.34 -613.43)"/><path class="cls-39" d="M1084.49,697.67l0,0a1,1,0,0,1-.07.18l0,0a1,1,0,0,0,.07-.18" transform="translate(-282.34 -613.43)"/><path class="cls-30" d="M1084.41,697.84l0,0a1.05,1.05,0,0,1-.94.58l0,0a1.05,1.05,0,0,0,.94-.58" transform="translate(-282.34 -613.43)"/></g></g></g></g><g class="cls-3"><g class="cls-3"><g class="cls-100"><g class="cls-3"><path class="cls-32" d="M1122.39,698.94l0,0a1.07,1.07,0,0,1,.23.35l0,0a1.07,1.07,0,0,0-.23-.35" transform="translate(-282.34 -613.43)"/><path class="cls-33" d="M1122.62,699.3l0,0a1.06,1.06,0,0,1,.06.21l0,0a1.06,1.06,0,0,0-.06-.21" transform="translate(-282.34 -613.43)"/><path class="cls-34" d="M1122.68,699.5l0,0a1.06,1.06,0,0,1,0,.17l0,0a1.06,1.06,0,0,0,0-.17" transform="translate(-282.34 -613.43)"/><path class="cls-35" d="M1122.7,699.68l0,0v0l0,0v0" transform="translate(-282.34 -613.43)"/></g></g></g><g class="cls-3"><g class="cls-101"><g class="cls-3"><path class="cls-30" d="M1121.64,700.75l0,0a1.06,1.06,0,0,1-.75-.31l0,0a1.06,1.06,0,0,0,.75.31" transform="translate(-282.34 -613.43)"/></g></g></g><path class="cls-36" d="M1121.64,698.63a1.06,1.06,0,1,1-1.06,1.06A1.06,1.06,0,0,1,1121.64,698.63Z" transform="translate(-282.34 -613.43)"/><g class="cls-3"><g class="cls-102"><g class="cls-3"><path class="cls-35" d="M1122.7,699.7l0,0a1.06,1.06,0,0,1,0,.14l0,0a1.06,1.06,0,0,0,0-.14" transform="translate(-282.34 -613.43)"/><path class="cls-38" d="M1122.69,699.84l0,0a1,1,0,0,1,0,.16l0,0a1,1,0,0,0,0-.16" transform="translate(-282.34 -613.43)"/><path class="cls-39" d="M1122.65,700l0,0a1,1,0,0,1-.07.18l0,0a1,1,0,0,0,.07-.18" transform="translate(-282.34 -613.43)"/><path class="cls-30" d="M1122.58,700.17l0,0a1.06,1.06,0,0,1-.94.58l0,0a1.06,1.06,0,0,0,.94-.58" transform="translate(-282.34 -613.43)"/></g></g></g></g><g class="cls-3"><g class="cls-3"><g class="cls-103"><g class="cls-3"><path class="cls-30" d="M1134.8,723.42l0,0a1,1,0,0,1-.74-.31l0,0a1,1,0,0,0,.74.31" transform="translate(-282.34 -613.43)"/></g></g></g><g class="cls-3"><g class="cls-104"><g class="cls-3"><path class="cls-32" d="M1135.56,721.62l0,0a1.05,1.05,0,0,1,.23.35l0,0a1.05,1.05,0,0,0-.23-.35" transform="translate(-282.34 -613.43)"/><path class="cls-33" d="M1135.79,722l0,0a1,1,0,0,1,.06.2l0,0a1,1,0,0,0-.06-.2" transform="translate(-282.34 -613.43)"/><path class="cls-34" d="M1135.85,722.17l0,0a1.05,1.05,0,0,1,0,.17l0,0a1.05,1.05,0,0,0,0-.17" transform="translate(-282.34 -613.43)"/><path class="cls-35" d="M1135.86,722.34l0,0v0l0,0v0" transform="translate(-282.34 -613.43)"/></g></g></g><path class="cls-36" d="M1134.8,721.31a1.06,1.06,0,1,1-1.05,1.05A1.06,1.06,0,0,1,1134.8,721.31Z" transform="translate(-282.34 -613.43)"/><g class="cls-3"><g class="cls-105"><g class="cls-3"><path class="cls-35" d="M1135.87,722.36l0,0a1.06,1.06,0,0,1,0,.14l0,0a1.06,1.06,0,0,0,0-.14" transform="translate(-282.34 -613.43)"/><path class="cls-38" d="M1135.86,722.5l0,0a1.05,1.05,0,0,1,0,.16l0,0a1.05,1.05,0,0,0,0-.16" transform="translate(-282.34 -613.43)"/><path class="cls-39" d="M1135.82,722.66l0,0a1.06,1.06,0,0,1-.07.18l0,0a1.06,1.06,0,0,0,.07-.18" transform="translate(-282.34 -613.43)"/><path class="cls-30" d="M1135.75,722.84l0,0a1.06,1.06,0,0,1-.95.58l0,0a1.06,1.06,0,0,0,.95-.58" transform="translate(-282.34 -613.43)"/></g></g></g></g><g class="cls-3"><g class="cls-3"><g class="cls-106"><g class="cls-3"><path class="cls-32" d="M1095.39,749l0,0a1.05,1.05,0,0,1,.23.35l0,0a1.05,1.05,0,0,0-.23-.35" transform="translate(-282.34 -613.43)"/><path class="cls-33" d="M1095.62,749.34l0,0a1,1,0,0,1,.06.21l0,0a1,1,0,0,0-.06-.21" transform="translate(-282.34 -613.43)"/><path class="cls-34" d="M1095.68,749.55l0,0a1.06,1.06,0,0,1,0,.17l0,0a1.06,1.06,0,0,0,0-.17" transform="translate(-282.34 -613.43)"/><path class="cls-35" d="M1095.7,749.72l0,0v0l0,0v0" transform="translate(-282.34 -613.43)"/></g></g></g><g class="cls-3"><g class="cls-107"><g class="cls-3"><path class="cls-30" d="M1094.65,750.79l0,0a1.06,1.06,0,0,1-.75-.31l0,0a1.06,1.06,0,0,0,.75.31" transform="translate(-282.34 -613.43)"/></g></g></g><path class="cls-36" d="M1094.65,748.68a1.05,1.05,0,1,1-1.06,1.05A1.05,1.05,0,0,1,1094.65,748.68Z" transform="translate(-282.34 -613.43)"/><g class="cls-3"><g class="cls-108"><g class="cls-3"><path class="cls-35" d="M1095.7,749.74l0,0a1.06,1.06,0,0,1,0,.14l0,0a1.06,1.06,0,0,0,0-.14" transform="translate(-282.34 -613.43)"/><path class="cls-38" d="M1095.69,749.88l0,0a1,1,0,0,1,0,.16l0,0a1,1,0,0,0,0-.16" transform="translate(-282.34 -613.43)"/><path class="cls-39" d="M1095.65,750l0,0a1,1,0,0,1-.07.18l0,0a1,1,0,0,0,.07-.18" transform="translate(-282.34 -613.43)"/><path class="cls-30" d="M1095.58,750.21l0,0a1.06,1.06,0,0,1-.94.58l0,0a1.06,1.06,0,0,0,.94-.58" transform="translate(-282.34 -613.43)"/></g></g></g></g><g class="cls-3"><g class="cls-3"><g class="cls-109"><g class="cls-3"><path class="cls-30" d="M1128,771l0,0a1.05,1.05,0,0,1-.74-.31l0,0a1.05,1.05,0,0,0,.74.31" transform="translate(-282.34 -613.43)"/></g></g></g><g class="cls-3"><g class="cls-110"><g class="cls-3"><path class="cls-32" d="M1128.78,769.23l0,0a1.07,1.07,0,0,1,.23.35l0,0a1.07,1.07,0,0,0-.23-.35" transform="translate(-282.34 -613.43)"/><path class="cls-33" d="M1129,769.58l0,0a1.05,1.05,0,0,1,.06.21l0,0a1.05,1.05,0,0,0-.06-.21" transform="translate(-282.34 -613.43)"/><path class="cls-34" d="M1129.07,769.79l0,0a1.06,1.06,0,0,1,0,.17l0,0a1.06,1.06,0,0,0,0-.17" transform="translate(-282.34 -613.43)"/><path class="cls-35" d="M1129.09,770l0,0v0l0,0v0" transform="translate(-282.34 -613.43)"/></g></g></g><path class="cls-36" d="M1128,768.92A1.06,1.06,0,1,1,1127,770,1.06,1.06,0,0,1,1128,768.92Z" transform="translate(-282.34 -613.43)"/><g class="cls-3"><g class="cls-111"><g class="cls-3"><path class="cls-35" d="M1129.09,770l0,0a1.06,1.06,0,0,1,0,.14l0,0a1.06,1.06,0,0,0,0-.14" transform="translate(-282.34 -613.43)"/><path class="cls-38" d="M1129.08,770.12l0,0a1,1,0,0,1,0,.16l0,0a1,1,0,0,0,0-.16" transform="translate(-282.34 -613.43)"/><path class="cls-39" d="M1129,770.28l0,0a1,1,0,0,1-.07.18l0,0a1,1,0,0,0,.07-.18" transform="translate(-282.34 -613.43)"/><path class="cls-30" d="M1129,770.45l0,0a1.06,1.06,0,0,1-.95.58l0,0a1.06,1.06,0,0,0,.95-.58" transform="translate(-282.34 -613.43)"/></g></g></g></g><g class="cls-3"><g class="cls-3"><g class="cls-112"><g class="cls-3"><path class="cls-32" d="M1145.88,752.94l0,0a1.07,1.07,0,0,1,.23.35l0,0a1.07,1.07,0,0,0-.23-.35" transform="translate(-282.34 -613.43)"/><path class="cls-33" d="M1146.12,753.3l0,0a1.06,1.06,0,0,1,.06.21l0,0a1.06,1.06,0,0,0-.06-.21" transform="translate(-282.34 -613.43)"/><path class="cls-34" d="M1146.18,753.5l0,0a1.06,1.06,0,0,1,0,.17l0,0a1.06,1.06,0,0,0,0-.17" transform="translate(-282.34 -613.43)"/><path class="cls-35" d="M1146.2,753.68l0,0v0l0,0v0" transform="translate(-282.34 -613.43)"/></g></g></g><g class="cls-3"><g class="cls-113"><g class="cls-3"><path class="cls-30" d="M1145.14,754.75l0,0a1.06,1.06,0,0,1-.75-.31l0,0a1.06,1.06,0,0,0,.75.31" transform="translate(-282.34 -613.43)"/></g></g></g><path class="cls-36" d="M1145.14,752.63a1.06,1.06,0,1,1-1.06,1.06A1.06,1.06,0,0,1,1145.14,752.63Z" transform="translate(-282.34 -613.43)"/><g class="cls-3"><g class="cls-114"><g class="cls-3"><path class="cls-35" d="M1146.2,753.7l0,0a1.06,1.06,0,0,1,0,.14l0,0a1.06,1.06,0,0,0,0-.14" transform="translate(-282.34 -613.43)"/><path class="cls-38" d="M1146.19,753.84l0,0a1,1,0,0,1,0,.16l0,0a1,1,0,0,0,0-.16" transform="translate(-282.34 -613.43)"/><path class="cls-39" d="M1146.15,754l0,0a1,1,0,0,1-.07.18l0,0a1,1,0,0,0,.07-.18" transform="translate(-282.34 -613.43)"/><path class="cls-30" d="M1146.08,754.17l0,0a1.06,1.06,0,0,1-.94.58l0,0a1.06,1.06,0,0,0,.94-.58" transform="translate(-282.34 -613.43)"/></g></g></g></g><g class="cls-3"><g class="cls-3"><g class="cls-115"><g class="cls-3"><path class="cls-30" d="M1137.3,730.25l0,0a1,1,0,0,1-.74-.31l0,0a1,1,0,0,0,.74.31" transform="translate(-282.34 -613.43)"/></g></g></g><g class="cls-3"><g class="cls-116"><g class="cls-3"><path class="cls-32" d="M1138.06,728.45l0,0a1.07,1.07,0,0,1,.23.35l0,0a1.07,1.07,0,0,0-.23-.35" transform="translate(-282.34 -613.43)"/><path class="cls-33" d="M1138.29,728.8l0,0a1.05,1.05,0,0,1,.06.21l0,0a1.05,1.05,0,0,0-.06-.21" transform="translate(-282.34 -613.43)"/><path class="cls-34" d="M1138.35,729l0,0a1.06,1.06,0,0,1,0,.17l0,0a1.06,1.06,0,0,0,0-.17" transform="translate(-282.34 -613.43)"/><path class="cls-35" d="M1138.37,729.18l0,0v0l0,0v0" transform="translate(-282.34 -613.43)"/></g></g></g><path class="cls-36" d="M1137.3,728.14a1.06,1.06,0,1,1-1.05,1.06A1.06,1.06,0,0,1,1137.3,728.14Z" transform="translate(-282.34 -613.43)"/><g class="cls-3"><g class="cls-117"><g class="cls-3"><path class="cls-35" d="M1138.37,729.2l0,0a1,1,0,0,1,0,.14l0,0a1,1,0,0,0,0-.14" transform="translate(-282.34 -613.43)"/><path class="cls-38" d="M1138.36,729.34l0,0a1,1,0,0,1,0,.16l0,0a1,1,0,0,0,0-.16" transform="translate(-282.34 -613.43)"/><path class="cls-39" d="M1138.32,729.49l0,0a1,1,0,0,1-.07.18l0,0a1,1,0,0,0,.07-.18" transform="translate(-282.34 -613.43)"/><path class="cls-30" d="M1138.25,729.67l0,0a1.07,1.07,0,0,1-.95.58l0,0a1.07,1.07,0,0,0,.95-.58" transform="translate(-282.34 -613.43)"/></g></g></g></g><g class="cls-3"><g class="cls-3"><g class="cls-118"><g class="cls-3"><path class="cls-32" d="M1116.05,779.78l0,0a1,1,0,0,1,.23.35l0,0a1,1,0,0,0-.23-.35" transform="translate(-282.34 -613.43)"/><path class="cls-33" d="M1116.28,780.13l0,0a1,1,0,0,1,.06.21l0,0a1,1,0,0,0-.06-.21" transform="translate(-282.34 -613.43)"/><path class="cls-34" d="M1116.34,780.33l0,0a1.07,1.07,0,0,1,0,.17l0,0a1.07,1.07,0,0,0,0-.17" transform="translate(-282.34 -613.43)"/><path class="cls-35" d="M1116.36,780.51l0,0v0l0,0v0" transform="translate(-282.34 -613.43)"/></g></g></g><g class="cls-3"><g class="cls-119"><g class="cls-3"><path class="cls-30" d="M1115.31,781.59l0,0a1.06,1.06,0,0,1-.75-.31l0,0a1.06,1.06,0,0,0,.75.31" transform="translate(-282.34 -613.43)"/></g></g></g><circle class="cls-36" cx="832.97" cy="167.1" r="1.06"/><g class="cls-3"><g class="cls-120"><g class="cls-3"><path class="cls-35" d="M1116.36,780.53l0,0a1.08,1.08,0,0,1,0,.14l0,0a1.08,1.08,0,0,0,0-.14" transform="translate(-282.34 -613.43)"/><path class="cls-38" d="M1116.35,780.67l0,0a1.07,1.07,0,0,1,0,.16l0,0a1.07,1.07,0,0,0,0-.16" transform="translate(-282.34 -613.43)"/><path class="cls-39" d="M1116.32,780.83l0,0a1.06,1.06,0,0,1-.07.18l0,0a1.06,1.06,0,0,0,.07-.18" transform="translate(-282.34 -613.43)"/><path class="cls-30" d="M1116.25,781l0,0a1,1,0,0,1-.94.58l0,0a1,1,0,0,0,.94-.58" transform="translate(-282.34 -613.43)"/></g></g></g></g><g class="cls-3"><g class="cls-3"><g class="cls-121"><g class="cls-3"><path class="cls-32" d="M879.78,810.95l0,0a1,1,0,0,1,.23.35l0,0a1,1,0,0,0-.23-.35" transform="translate(-282.34 -613.43)"/><path class="cls-33" d="M880,811.29l0,0a1,1,0,0,1,.06.21l0,0a1,1,0,0,0-.06-.21" transform="translate(-282.34 -613.43)"/><path class="cls-34" d="M880.07,811.5l0,0a1.07,1.07,0,0,1,0,.17l0,0a1.07,1.07,0,0,0,0-.17" transform="translate(-282.34 -613.43)"/><path class="cls-35" d="M880.08,811.67l0,0v0l0,0v0" transform="translate(-282.34 -613.43)"/></g></g></g><g class="cls-3"><g class="cls-122"><g class="cls-3"><path class="cls-30" d="M879,812.75l0,0a1.06,1.06,0,0,1-.75-.31l0,0a1.06,1.06,0,0,0,.75.31" transform="translate(-282.34 -613.43)"/></g></g></g><circle class="cls-36" cx="596.69" cy="198.27" r="1.06"/><g class="cls-3"><g class="cls-123"><g class="cls-3"><path class="cls-35" d="M880.09,811.69l0,0a1.08,1.08,0,0,1,0,.14l0,0a1.08,1.08,0,0,0,0-.14" transform="translate(-282.34 -613.43)"/><path class="cls-38" d="M880.08,811.84l0,0a1.07,1.07,0,0,1,0,.16l0,0a1.07,1.07,0,0,0,0-.16" transform="translate(-282.34 -613.43)"/><path class="cls-39" d="M880,812l0,0a1.06,1.06,0,0,1-.07.18l0,0A1.06,1.06,0,0,0,880,812" transform="translate(-282.34 -613.43)"/><path class="cls-30" d="M880,812.18l0,0a1.05,1.05,0,0,1-.94.58l0,0a1.05,1.05,0,0,0,.94-.58" transform="translate(-282.34 -613.43)"/></g></g></g></g><g class="cls-3"><g class="cls-3"><g class="cls-124"><g class="cls-3"><path class="cls-30" d="M893,789.75l0,0a1,1,0,0,1-.75-.31l0,0a1,1,0,0,0,.75.31" transform="translate(-282.34 -613.43)"/></g></g></g><g class="cls-3"><g class="cls-125"><g class="cls-3"><path class="cls-32" d="M893.72,787.95l0,0a1.07,1.07,0,0,1,.23.35l0,0a1.07,1.07,0,0,0-.23-.35" transform="translate(-282.34 -613.43)"/><path class="cls-33" d="M894,788.3l0,0a1.05,1.05,0,0,1,.06.21l0,0a1.05,1.05,0,0,0-.06-.21" transform="translate(-282.34 -613.43)"/><path class="cls-34" d="M894,788.51l0,0a1.06,1.06,0,0,1,0,.17l0,0a1.06,1.06,0,0,0,0-.17" transform="translate(-282.34 -613.43)"/><path class="cls-35" d="M894,788.68l0,0v0l0,0v0" transform="translate(-282.34 -613.43)"/></g></g></g><circle class="cls-36" cx="610.63" cy="175.27" r="1.06"/><g class="cls-3"><g class="cls-126"><g class="cls-3"><path class="cls-35" d="M894,788.7l0,0a1.06,1.06,0,0,1,0,.14l0,0a1.06,1.06,0,0,0,0-.14" transform="translate(-282.34 -613.43)"/><path class="cls-38" d="M894,788.84l0,0a1,1,0,0,1,0,.16l0,0a1,1,0,0,0,0-.16" transform="translate(-282.34 -613.43)"/><path class="cls-39" d="M894,789l0,0a1,1,0,0,1-.07.18l0,0A1,1,0,0,0,894,789" transform="translate(-282.34 -613.43)"/><path class="cls-30" d="M893.92,789.17l0,0a1.06,1.06,0,0,1-.95.58l0,0a1.06,1.06,0,0,0,.95-.58" transform="translate(-282.34 -613.43)"/></g></g></g></g></g><g id="tail_lights" data-name="tail lights"><path class="cls-127" d="M1129.33,696.22a2,2,0,0,1,1.42-.59,210,210,0,0,1,38.46-1,2.45,2.45,0,0,1,2.81,2.55l3.51,19.63-1.07.52c-1.91-1.35-4.58.46-5.54,2.59s-1.09,4.63-2.44,6.54c-1.58,2.24-4.57,3.15-7.3,2.86a18.32,18.32,0,0,1-7.56-3,56.71,56.71,0,0,1-18.79-19.2,25.4,25.4,0,0,1-3.69-9.57A1.85,1.85,0,0,1,1129.33,696.22Z" transform="translate(-282.34 -613.43)"/><ellipse class="cls-128" cx="814.46" cy="100.98" rx="17.86" ry="14.48"/><path class="cls-129" d="M1146,718.06c4.36-.12,12.31-2.94,7.54-8.1-3.91-4.23-10.11-6.55-15-2.55a1.5,1.5,0,0,0,0,2.12,19.5,19.5,0,0,1,4.16,4.3c.67,1,1.1,2.41,2.08,3.16,1.85,1.4,3.74.13,5.29-1s3.2-2.47,1.85-4.35-5.81-2.83-7.86-3.69l.66,2.51c-.4.37,3.13,2.59,2.06.5a3,3,0,0,0-1-.86,2.9,2.9,0,0,0-2.45-.2,1.51,1.51,0,0,0-.9,2.2c.16.23,1.85,2.84,1.81,2.89l1.46-.39c-.55-.13-1.8-2-2.17-2.49-1.7-2.14.47-3.14,2.44-3.6,1.77-.42,3.88-.82,5.67-.17,3.13,1.15,1.41,3.62-.69,4.53l2.05,2.05c.33-.58.42-1.21.73-1.77.57-1-.49-.9.93-1.19,2.13-.44-1.43,2.1-1.71,2.26a30.52,30.52,0,0,1-3.44,1.45c-1.75.74-1,3.64.8,2.89,3.82-1.61,11.06-3.38,7.32-9.08a3.72,3.72,0,0,0-4.72-1.6c-2.24,1.15-1.44,3.67-2.5,5.52-.81,1.41.75,2.61,2.05,2.05,2.61-1.12,5.16-3.36,4-6.48-1.33-3.72-6-4.25-9.37-3.76-2.85.41-7.87,1.16-7.74,5,.08,2.41,3.16,6.73,5.51,7.3a1.48,1.48,0,0,0,1.46-.39c1.66-2.08-.07-4.62-1.34-6.53l-.9,2.2c.25-.07,1.8,1.9,2,2a2.89,2.89,0,0,0,1.84.35,2.3,2.3,0,0,0,2-2.57c-.1-1.6-2.46-4.32-3.93-5a3,3,0,0,0-3.52.69,1.52,1.52,0,0,0,.66,2.51l4.28,1.8c.69.29,1.78,1.32,1.69.21l-.86.67q-1.74,1.65-2.26.18c-.78-.62-1.34-2.12-2-2.95a21.47,21.47,0,0,0-3.44-3.32v2.12c2.81-2.31,6.28-1.12,8.85.87,1.21.93,2.5,2,1.28,3.46-.93,1.11-3.51,1.17-4.83,1.2-1.93.05-1.93,3.05,0,3Z" transform="translate(-282.34 -613.43)"/><path class="cls-130" d="M1148,715.38h-3.33a1.5,1.5,0,0,0,0,3H1148a1.5,1.5,0,0,0,0-3Z" transform="translate(-282.34 -613.43)"/></g><g id="headlights"><path d="M395.39,843.49l.63,14.26-37.2.41s-.63-4.07-13.87-2.44-28.93.78-28.93.78l-17.67-2s-18.74-4.81-2.67-7.67c4.74-.84.48-.75,14-1.67C342,843,395.39,843.49,395.39,843.49Z" transform="translate(-282.34 -613.43)"/></g><g id="side_skirts" data-name="side skirts"><path class="cls-131" d="M564.79,852.38c65.7.37,129-1.71,194.71-1.33,15.2.09,33.19,0,48.33-1.33,17.46-1.58,33.94-4.3,51.35-6.34,34.05-4,69.48-3.09,103.73-1.49.74,5.51,2.51,12.74,3.25,18.25-21.75-.31-44.75,1.06-66.5.75-3.39,0-12.82-.09-16-1.25-2.44-.89-3.94-4.77-6.5-5.25-17.25-3.25-25.25.75-44,2-14.11.94-28.11,2.1-42.25,2.25-15,.15-32.46.6-47.5.75-63.14.65-123.69-.13-186.84.52-3.91,0-10.92,1.14-10.66-2.77,0-1.62-1.09-3.35.75-4.25C550.57,851,560.77,852.36,564.79,852.38Z" transform="translate(-282.34 -613.43)"/><path d="M564.79,853.88c53,.28,106.05-1,159.08-1.32,25.18-.14,50.46.75,75.61-.73s49.85-6.49,74.92-8.42c29.45-2.26,59-1.38,88.52,0l-1.45-1.1c.89,6.12,2.36,12.13,3.25,18.25l1.45-1.9c-15.87-.19-31.74.42-47.61.68-6.85.11-13.69.15-20.54,0-5.29-.08-12,.72-16.07-3.08-1.51-1.41-2.39-2.62-4.38-3.35-2.5-.91-6-1-8.6-1.14a82.75,82.75,0,0,0-17,.88c-15.16,2.06-30.36,3.17-45.64,3.95-30.13,1.54-60.48,1.32-90.65,1.46-32.64.15-65.27,0-97.91,0q-27.6,0-55.19.22c-3.39,0-6.78.17-10.16.22-.94,0-2.92.24-3.74-.24-1.38-.82-2.07-3-.78-4.31,1.44-1.46,7.25-.63,9.15-.55,2.59.11,5.18.36,7.78.42,1.93,0,1.93-3,0-3-5.51-.13-23.79-3.82-20.31,7.07,1,3.11,3.79,3.56,6.8,3.62,7.37.16,14.81-.26,22.19-.31,35-.23,69.91-.1,104.87-.1q51.14,0,102.25-.89c16.61-.26,33.11-1.06,49.69-2.19,13.57-.93,27.39-4.59,41-3.07,2.87.32,5.45.41,7.67,2.42,1,.93,1.76,2.17,2.95,3,1.76,1.15,3.95,1.31,6,1.52a192,192,0,0,0,20.22.52c19.35-.06,38.7-1,58.05-.79a1.52,1.52,0,0,0,1.45-1.9c-.89-6.12-2.36-12.13-3.25-18.25a1.51,1.51,0,0,0-1.45-1.1c-26.29-1.21-52.64-2-78.94-.6-25.55,1.39-50.69,6.17-76.15,8.43-24.61,2.18-49.43,1.23-74.1,1.3-26.14.07-52.28.45-78.43.79-30.17.4-60.34.74-90.51.58A1.5,1.5,0,0,0,564.79,853.88Z" transform="translate(-282.34 -613.43)"/><path class="cls-131" d="M964.15,859.2v-.11l2.33,0Z" transform="translate(-282.34 -613.43)"/><path d="M965.6,858.8v-.11l-1.45,1.9,2.33,0v-3l-2.31.08a1.5,1.5,0,0,0,0,3l2.31-.08a1.5,1.5,0,0,0,0-3l-2.33,0a1.53,1.53,0,0,0-1.45,1.9v.11a1.51,1.51,0,0,0,1.85,1A1.54,1.54,0,0,0,965.6,858.8Z" transform="translate(-282.34 -613.43)"/></g><g id="fender_garnish" data-name="fender garnish"><path class="cls-132" d="M632.08,701.11l-3.42,0,.07-.07Z" transform="translate(-282.34 -613.43)"/><path class="cls-133" d="M632.08,699.61l-3.42,0,1.06,2.56.07-.07-1.06.44,3.35,0a1.5,1.5,0,0,0,0-3h-1.94c-.89,0-1.83-.16-2.53.49a1.52,1.52,0,0,0,1.06,2.56l3.42,0A1.5,1.5,0,0,0,632.08,699.61Z" transform="translate(-282.34 -613.43)"/><path class="cls-132" d="M628.66,701.15c-7.76,7.25-15.59,14.32-25.63,17.75-5,1.69-10.33,1.95-15.53,2.59-11.08,1.36-26,3.67-37,2.16a90.72,90.72,0,0,1-11.93-4.1c-5.71-2.53-10.77-7.3-14.59-12.22C558.31,702.79,594,701.43,628.66,701.15Z" transform="translate(-282.34 -613.43)"/><path class="cls-133" d="M549.6,720.34h-.33l1.9-1.45q-7.56-2.13-15-4.59l1.1,1.45c0-.36,13.07,4,14.07,4.47l.76-2.8a56.82,56.82,0,0,1-16.42-3.94c-1.79-.72-2.57,2.18-.8,2.89a59.43,59.43,0,0,0,17.22,4c1.43.12,2.12-2.22.76-2.8a68.78,68.78,0,0,0-13.39-4.44c-2.39-.47-4.85-.22-5.2,2.56a1.51,1.51,0,0,0,1.1,1.45q7.46,2.46,15,4.59a1.52,1.52,0,0,0,1.9-1.45c.26-2.15-1.51-3.29-3.47-2.9s-1.09,3.27.8,2.89Z" transform="translate(-282.34 -613.43)"/><polygon class="cls-134" points="297.68 96.35 308.46 95.86 308.46 93.46 313.57 93.46 313.57 95.62 321.7 95.25 321.92 100.13 313.57 100.51 313.57 101.96 308.46 101.96 308.46 100.75 297.9 101.23 297.68 96.35"/></g><g id="headlights-2" data-name="headlights"><path class="cls-135" d="M337.82,752.24c1.83-2.37,6.39-3.74,9-5.19,3.92-2.17,6.18-2.79,10.5-4,2.5-.7,5-2.73,7.4-3.65,2.28-.86,6.78-2,8.93-3.19,6.49-3.45,9.43-4.21,16.67-5.5,1.26-.22,5.08-.92,6.33-.67s1.35,2.06.79,3a35.61,35.61,0,0,1-2.57,3.73c-5.36,6.81-13,11.45-18.74,17.94a39.81,39.81,0,0,1-4.75,5c-1.3,1-2.78,1.82-4,2.92a15.09,15.09,0,0,1-2.66,2.25,8.53,8.53,0,0,1-3,.77q-1.85.22-3.7.4c-2.06.19-4.66,0-5.48-1.86-.46-1.07-.15-2.38-.68-3.42a3.17,3.17,0,0,0-2.6-1.54,9.78,9.78,0,0,0-3.12.43q-4,1-8.11,1.73a1.67,1.67,0,0,1-1.18-.08,1.48,1.48,0,0,1-.52-.7C335.09,757.92,336,754.61,337.82,752.24Z" transform="translate(-282.34 -613.43)"/><path class="cls-136" d="M338.88,753.31c3.63-3.79,11-6.48,15.93-8,5.6-1.72,10.7-4.48,16.24-6.44,4.78-1.69,9-4.38,14-5.59,2.5-.61,5.06-1.08,7.61-1.47,2.16-.32,4-1.27,2.71,1.73-.71,1.64-2.45,3.3-3.64,4.6-4.2,4.61-9.35,8.23-13.82,12.56-2.22,2.15-4,4.7-6.27,6.81-2,1.89-6.16,5.54-8.78,6.47-1,.35-4.79,1-6.15.65-6-1.7-1.9-2-3.43-4.24a5.4,5.4,0,0,0-2.62-2.36c-2.08-.79-4.54.13-6.56.58-1.24.28-2.81,1-4.06.88-4.24-.33-2.58-4-.91-6.52,1.07-1.61-1.53-3.12-2.59-1.51-1.71,2.57-4.18,9-.48,11.17,1.71,1,4.71-.22,6.41-.58,2.57-.55,3.63-1.11,6.16.05,4.24,2,.58.78,2.59,2.87,3.24,3.36,8,3.21,12.44,1.91,2.48-.72,4-2.51,6-4a51.93,51.93,0,0,0,7.58-7.11c4.73-5.25,10.57-9.29,15.51-14.31,2.19-2.22,7.77-7.23,6.31-10.92s-7.1-1.63-9.9-1.12a58.91,58.91,0,0,0-15.51,5.13c-3.06,1.48-6.33,2.21-9.47,3.49-3.87,1.57-7.41,3.48-11.41,4.8-5.2,1.71-12.18,4.38-16,8.36C335.43,752.58,337.55,754.7,338.88,753.31Z" transform="translate(-282.34 -613.43)"/></g></svg>